<svg width="142" height="167" viewBox="0 0 142 167" fill="none" xmlns="http://www.w3.org/2000/svg">
<path d="M117.61 28.1956C110.292 24.6991 103.299 13.9086 103.299 13.9086C89.5531 -7.32023 67.2753 -3.65137 62.7594 27.1484C57.1145 65.6479 79.507 81.3055 99.9458 82.9993C108.977 83.7477 136.316 78.926 140.859 55.47C145.403 32.0139 122.203 30.3897 117.61 28.1956Z" stroke="#FFBF4D"/>
<path d="M29.5504 146.343C27.2112 149.535 26.6949 155.786 26.6949 155.786C25.6845 168.083 15.2618 171.646 6.21434 159.449C-5.09495 144.202 0.917886 132.305 9.31278 126.861C13.022 124.456 25.8865 120.221 33.2513 129.255C40.6161 138.289 31.0182 144.34 29.5504 146.343Z" fill="#FFBF4D"/>
</svg>
