<svg width="312" height="328" viewBox="0 0 312 328" fill="none" xmlns="http://www.w3.org/2000/svg">
<path d="M122.065 177.186C120.111 173.835 111.452 168.034 109.992 163.115C108.533 158.197 104.48 159.2 101.833 162.496C98.1538 167.077 93.9661 173.827 97.7993 181.28C100.197 185.942 106.166 188.255 114.878 187.539C123.589 186.824 123.838 180.229 122.065 177.186Z" fill="#12C6FF"/>
<path d="M308.439 255.253C301.669 243.638 271.663 223.537 266.605 206.493C261.547 189.449 247.505 192.927 238.332 204.347C225.581 220.223 211.069 243.612 224.353 269.44C232.66 285.593 253.346 293.611 283.535 291.13C313.723 288.65 314.586 265.797 308.439 255.253Z" stroke="#16AB11"/>
<path d="M87.0577 57.4862C92.8823 52.4417 104.935 50.4512 104.935 50.4512C128.642 46.546 133.909 25.7534 108.805 10.1215C77.4249 -9.41829 55.2847 4.13278 46.0459 21.287C41.9638 28.8665 35.7773 54.5046 54.4764 67.3708C73.1755 80.2369 83.4026 60.6518 87.0577 57.4862Z" stroke="#12C6FF"/>
<g filter="url(#filter0_f_393_1232)">
<path d="M48.9189 255.106C54.0286 255.894 58.4416 261.841 65.4094 261.841C72.3772 261.841 84.7255 262.306 79.5777 275.545C70.8781 297.918 51.4738 301.326 40.7896 295.287C36.0469 292.607 26.774 280.655 31.2668 268.113C35.7597 255.57 45.8994 254.641 48.9189 255.106Z" fill="#FF732B"/>
</g>
<defs>
<filter id="filter0_f_393_1232" x="0" y="224.946" width="110.87" height="103.054" filterUnits="userSpaceOnUse" color-interpolation-filters="sRGB">
<feFlood flood-opacity="0" result="BackgroundImageFix"/>
<feBlend mode="normal" in="SourceGraphic" in2="BackgroundImageFix" result="shape"/>
<feGaussianBlur stdDeviation="15" result="effect1_foregroundBlur_393_1232"/>
</filter>
</defs>
</svg>
