<svg width="54" height="54" viewBox="0 0 54 54" fill="none" xmlns="http://www.w3.org/2000/svg">
<path d="M13.5 35.6496C14.0107 35.3004 14.5581 35.0408 15.1419 34.8705C15.7262 34.7006 16.3472 34.6157 17.0049 34.6157H18.4326V9H17.4375C16.3556 9 15.429 9.38588 14.6576 10.1576C13.8859 10.929 13.5 11.8556 13.5 12.9375V35.6496ZM21.8076 34.6157H40.5V9.69244C40.5 9.49031 40.4351 9.32438 40.3054 9.19463C40.1756 9.06488 40.0097 9 39.8076 9H21.8076V34.6157ZM17.0049 48.375C15.1041 48.375 13.4822 47.7036 12.1393 46.3607C10.7964 45.0178 10.125 43.3959 10.125 41.4951V12.9375C10.125 10.9069 10.836 9.18037 12.258 7.758C13.6804 6.336 15.4069 5.625 17.4375 5.625H39.8076C40.9296 5.625 41.8881 6.02231 42.6831 6.81694C43.4777 7.61194 43.875 8.57044 43.875 9.69244V37.008C43.875 37.2791 43.7711 37.5221 43.5634 37.737C43.3556 37.9519 43.0196 38.1589 42.5554 38.358C41.9006 38.5916 41.3726 38.9884 40.9714 39.5482C40.5705 40.1077 40.3701 40.7567 40.3701 41.4951C40.3701 42.2192 40.5669 42.8668 40.9607 43.4379C41.3544 44.0091 41.8787 44.4071 42.5334 44.6321C42.9576 44.7994 43.2872 45.033 43.5223 45.333C43.7574 45.633 43.875 45.9576 43.875 46.3067V46.6526C43.875 47.1315 43.7134 47.5384 43.3901 47.8732C43.0672 48.2077 42.6664 48.375 42.1875 48.375H17.0049ZM17.0049 45H38.0295C37.7033 44.4893 37.4494 43.9478 37.2679 43.3755C37.086 42.8029 36.9951 42.1761 36.9951 41.4951C36.9951 40.8519 37.0802 40.2347 37.2504 39.6433C37.4207 39.0519 37.6804 38.5009 38.0295 37.9901H17.0049C16.0011 37.9901 15.1659 38.3327 14.4996 39.0178C13.8332 39.7029 13.5 40.5287 13.5 41.4951C13.5 42.4989 13.8332 43.3341 14.4996 44.0004C15.1659 44.6668 16.0011 45 17.0049 45Z" fill="#FF732B"/>
</svg>
