<svg width="54" height="54" viewBox="0 0 54 54" fill="none" xmlns="http://www.w3.org/2000/svg">
<path d="M12.8464 28.2724H18.9996L20.0683 31.2317C20.1433 31.4278 20.2601 31.5806 20.4187 31.6901C20.5774 31.8 20.7664 31.8549 20.9857 31.8549C21.3405 31.8549 21.618 31.7113 21.8183 31.424C22.0189 31.1372 22.0586 30.8278 21.9375 30.4959L17.3683 18.4112C17.2933 18.2004 17.1598 18.0274 16.9678 17.892C16.7762 17.7562 16.5636 17.6884 16.3299 17.6884H15.5166C15.2829 17.6884 15.0701 17.7562 14.8781 17.892C14.6865 18.0274 14.5532 18.2004 14.4782 18.4112L9.90844 30.5179C9.78731 30.8351 9.82706 31.1372 10.0277 31.424C10.2283 31.7113 10.506 31.8549 10.8607 31.8549C11.0798 31.8549 11.2744 31.8 11.4446 31.6901C11.6149 31.5806 11.7375 31.4164 11.8125 31.1974L12.8464 28.2724ZM13.5349 26.4071L15.867 19.9558H15.9795L18.3116 26.4071H13.5349ZM14.625 36.0433C16.4884 36.0433 18.3013 36.2546 20.0638 36.6772C21.8263 37.0999 23.5759 37.7627 25.3125 38.6657V16.5459C23.7319 15.5162 22.0213 14.7439 20.1808 14.229C18.3403 13.7141 16.4884 13.4567 14.625 13.4567C13.275 13.4567 12.0137 13.5626 10.8411 13.7745C9.66844 13.9867 8.46338 14.3336 7.22588 14.8151C7.053 14.8729 6.93037 14.9559 6.858 15.0643C6.786 15.1723 6.75 15.2912 6.75 15.4209V36.7009C6.75 36.903 6.82219 37.0509 6.96656 37.1447C7.11056 37.2384 7.26919 37.2491 7.44244 37.1767C8.50969 36.8134 9.636 36.5336 10.8214 36.3375C12.0071 36.1414 13.275 36.0433 14.625 36.0433ZM28.6875 38.6657C30.4241 37.7627 32.1737 37.0999 33.9362 36.6772C35.6987 36.2546 37.5116 36.0433 39.375 36.0433C40.725 36.0433 41.9929 36.1414 43.1786 36.3375C44.364 36.5336 45.4903 36.8134 46.5576 37.1767C46.7308 37.2491 46.8894 37.2384 47.0334 37.1447C47.1778 37.0509 47.25 36.903 47.25 36.7009V15.4209C47.25 15.2912 47.214 15.1759 47.142 15.075C47.0696 14.9741 46.947 14.8875 46.7741 14.8151C45.5366 14.3336 44.3316 13.9867 43.1589 13.7745C41.9863 13.5626 40.725 13.4567 39.375 13.4567C37.5116 13.4567 35.6597 13.7141 33.8192 14.229C31.9787 14.7439 30.2681 15.5162 28.6875 16.5459V38.6657ZM25.7692 42.5075C25.3867 42.398 25.0254 42.2524 24.6853 42.0705C23.1362 41.1937 21.5156 40.5324 19.8236 40.0865C18.132 39.641 16.3991 39.4183 14.625 39.4183C13.2521 39.4183 11.9036 39.5704 10.5795 39.8745C9.25537 40.179 7.97887 40.6269 6.75 41.2183C5.94825 41.5873 5.18531 41.5288 4.46119 41.0428C3.73706 40.5568 3.375 39.8681 3.375 38.9767V14.5474C3.375 14.0625 3.49988 13.6074 3.74963 13.1822C3.999 12.7565 4.35881 12.45 4.82906 12.2625C6.35194 11.5211 7.93913 10.9723 9.59062 10.616C11.2421 10.2598 12.9202 10.0817 14.625 10.0817C16.8142 10.0817 18.9532 10.3809 21.042 10.9794C23.1304 11.5783 25.1164 12.4618 27 13.6299C28.8836 12.4618 30.8696 11.5783 32.958 10.9794C35.0467 10.3809 37.1857 10.0817 39.375 10.0817C41.0798 10.0817 42.7579 10.2598 44.4094 10.616C46.0609 10.9723 47.6481 11.5211 49.1709 12.2625C49.6412 12.45 50.001 12.7565 50.2504 13.1822C50.5001 13.6074 50.625 14.0625 50.625 14.5474V38.9767C50.625 39.8681 50.2485 40.5497 49.4955 41.0214C48.7425 41.4928 47.9507 41.544 47.1201 41.175C45.9058 40.5979 44.6475 40.1608 43.3451 39.8638C42.0428 39.5668 40.7194 39.4183 39.375 39.4183C37.6009 39.4183 35.868 39.641 34.1764 40.0865C32.4844 40.5324 30.8638 41.1937 29.3147 42.0705C28.9746 42.2524 28.6132 42.398 28.2307 42.5075C27.8486 42.617 27.4384 42.6718 27 42.6718C26.5616 42.6718 26.1514 42.617 25.7692 42.5075ZM31.3701 19.9384C31.3701 19.6875 31.4595 19.4308 31.6384 19.1683C31.8173 18.9058 32.0207 18.7254 32.2487 18.6272C33.3651 18.1802 34.5139 17.8414 35.6951 17.6107C36.8764 17.3797 38.103 17.2642 39.375 17.2642C40.1107 17.2642 40.8225 17.3075 41.5103 17.3942C42.1984 17.4808 42.8914 17.5991 43.5892 17.7491C43.8547 17.8095 44.0841 17.9537 44.2772 18.1817C44.4707 18.4097 44.5674 18.675 44.5674 18.9776C44.5674 19.4854 44.4081 19.8568 44.0893 20.0919C43.7706 20.327 43.3573 20.384 42.8496 20.2629C42.3099 20.1504 41.7495 20.0696 41.1683 20.0205C40.587 19.9714 39.9893 19.9468 39.375 19.9468C38.2845 19.9468 37.2165 20.0514 36.171 20.2607C35.1251 20.4699 34.1278 20.7534 33.1791 21.1112C32.6481 21.3159 32.2138 21.3043 31.8763 21.0763C31.5388 20.8487 31.3701 20.4694 31.3701 19.9384ZM31.3701 32.2267C31.3701 31.9759 31.4595 31.7156 31.6384 31.446C31.8173 31.1764 32.0207 30.9924 32.2487 30.8942C33.3362 30.4472 34.485 30.1119 35.6951 29.8884C36.9053 29.6649 38.1319 29.5532 39.375 29.5532C40.1107 29.5532 40.8225 29.5963 41.5103 29.6825C42.1984 29.7692 42.8914 29.8875 43.5892 30.0375C43.8547 30.0982 44.0841 30.2424 44.2772 30.47C44.4707 30.698 44.5674 30.9635 44.5674 31.2665C44.5674 31.7739 44.4081 32.1452 44.0893 32.3803C43.7706 32.6154 43.3573 32.6724 42.8496 32.5513C42.3099 32.4388 41.7495 32.358 41.1683 32.3089C40.587 32.2601 39.9893 32.2357 39.375 32.2357C38.2991 32.2357 37.2418 32.3381 36.2031 32.5429C35.1647 32.7476 34.1709 33.036 33.2218 33.408C32.6912 33.6274 32.25 33.6217 31.8983 33.3911C31.5461 33.1601 31.3701 32.772 31.3701 32.2267ZM31.3701 26.1045C31.3701 25.8536 31.4595 25.5969 31.6384 25.3344C31.8173 25.0719 32.0207 24.8915 32.2487 24.7933C33.3651 24.3463 34.5139 24.0073 35.6951 23.7763C36.8764 23.5457 38.103 23.4304 39.375 23.4304C40.1107 23.4304 40.8225 23.4737 41.5103 23.5603C42.1984 23.6465 42.8914 23.7647 43.5892 23.9147C43.8547 23.9754 44.0841 24.1198 44.2772 24.3478C44.4707 24.5754 44.5674 24.8407 44.5674 25.1437C44.5674 25.6515 44.4081 26.0229 44.0893 26.258C43.7706 26.4932 43.3573 26.5502 42.8496 26.429C42.3099 26.3165 41.7495 26.2357 41.1683 26.1866C40.587 26.1375 39.9893 26.1129 39.375 26.1129C38.2845 26.1129 37.2165 26.2175 36.171 26.4268C35.1251 26.6357 34.1278 26.919 33.1791 27.2767C32.6481 27.4815 32.2138 27.47 31.8763 27.2424C31.5388 27.0144 31.3701 26.6351 31.3701 26.1045Z" fill="#1E3A8A"/>
</svg>
