<svg width="54" height="54" viewBox="0 0 54 54" fill="none" xmlns="http://www.w3.org/2000/svg">
<path d="M14.8195 35.2209H31.262V34.4166C31.262 32.9972 30.4983 31.839 28.9709 30.942C27.4435 30.0446 25.4669 29.5959 23.041 29.5959C20.6148 29.5959 18.638 30.0446 17.1106 30.942C15.5832 31.839 14.8195 32.9972 14.8195 34.4166V35.2209ZM23.041 26.6541C24.1341 26.6541 25.0636 26.271 25.8293 25.5049C26.5955 24.7391 26.9785 23.8097 26.9785 22.7166C26.9785 21.6231 26.5955 20.6934 25.8293 19.9277C25.0636 19.1619 24.1341 18.7791 23.041 18.7791C21.9475 18.7791 21.0179 19.1619 20.2521 19.9277C19.4864 20.6934 19.1035 21.6231 19.1035 22.7166C19.1035 23.8097 19.4864 24.7391 20.2521 25.5049C21.0179 26.271 21.9475 26.6541 23.041 26.6541ZM10.2329 43.875C9.09664 43.875 8.13477 43.4813 7.34727 42.6937C6.55977 41.9062 6.16602 40.9442 6.16602 39.8076V14.1924C6.16602 13.0558 6.55977 12.0938 7.34727 11.3062C8.13477 10.5187 9.09664 10.125 10.2329 10.125H35.8486C36.9848 10.125 37.9467 10.5187 38.7342 11.3062C39.5217 12.0938 39.9155 13.0558 39.9155 14.1924V24.4907L46.0945 18.3116C46.4264 17.9797 46.7991 17.8969 47.2128 18.063C47.6268 18.2287 47.8338 18.5452 47.8338 19.0125V34.9875C47.8338 35.4548 47.6268 35.7712 47.2128 35.937C46.7991 36.1031 46.4264 36.0202 46.0945 35.6884L39.9155 29.5093V39.8076C39.9155 40.9442 39.5217 41.9062 38.7342 42.6937C37.9467 43.4813 36.9848 43.875 35.8486 43.875H10.2329ZM10.2329 40.5H35.8486C36.0503 40.5 36.2161 40.4351 36.3458 40.3054C36.476 40.1756 36.541 40.0097 36.541 39.8076V14.1924C36.541 13.9903 36.476 13.8244 36.3458 13.6946C36.2161 13.5649 36.0503 13.5 35.8486 13.5H10.2329C10.0311 13.5 9.86539 13.5649 9.73564 13.6946C9.60589 13.8244 9.54102 13.9903 9.54102 14.1924V39.8076C9.54102 40.0097 9.60589 40.1756 9.73564 40.3054C9.86539 40.4351 10.0311 40.5 10.2329 40.5Z" fill="#1B5CC5"/>
</svg>
