<svg width="54" height="54" viewBox="0 0 54 54" fill="none" xmlns="http://www.w3.org/2000/svg">
<path d="M14.4994 37.8731C13.836 37.5041 13.316 37.0061 12.9395 36.3791C12.563 35.7521 12.3748 35.0488 12.3748 34.2692V24.5075L7.8838 22.0241C7.51442 21.8133 7.2433 21.557 7.07042 21.2552C6.89717 20.9537 6.81055 20.6184 6.81055 20.2494C6.81055 19.8804 6.89717 19.5453 7.07042 19.2442C7.2433 18.9427 7.51442 18.6866 7.8838 18.4758L25.0625 9.11584C25.3674 8.94634 25.68 8.82184 26.0002 8.74234C26.3205 8.66322 26.6537 8.62366 26.9998 8.62366C27.3459 8.62366 27.6791 8.66322 27.9994 8.74234C28.3196 8.82184 28.6325 8.94616 28.9382 9.11528L48.3399 19.6745C48.686 19.862 48.9515 20.1155 49.1364 20.435C49.3209 20.7549 49.4132 21.0999 49.4132 21.47V34.745C49.4132 35.2232 49.2514 35.624 48.9277 35.9477C48.6041 36.2709 48.2032 36.4325 47.7251 36.4325C47.2466 36.4325 46.8459 36.2709 46.523 35.9477C46.1998 35.624 46.0382 35.2232 46.0382 34.745V22.1192L41.6248 24.5075V34.2692C41.6248 35.0488 41.4365 35.7521 41.06 36.3791C40.6835 37.0061 40.1636 37.5041 39.5002 37.8731L28.9427 43.5808C28.634 43.7537 28.3196 43.8798 27.9994 43.9593C27.6791 44.0385 27.3459 44.078 26.9998 44.078C26.6537 44.078 26.3205 44.0385 26.0002 43.9593C25.68 43.8798 25.3655 43.7537 25.0569 43.5808L14.4994 37.8731ZM26.7399 28.445C26.8412 28.5028 26.9314 28.5317 27.0105 28.5317C27.09 28.5317 27.1802 28.5028 27.281 28.445L42.3909 20.25L27.281 12.0763C27.1802 12.0185 27.09 11.9897 27.0105 11.9897C26.9314 11.9897 26.8412 12.0185 26.7399 12.0763L11.6087 20.25L26.7399 28.445ZM26.7185 40.6597C26.8194 40.7175 26.9132 40.7463 26.9998 40.7463C27.0864 40.7463 27.1802 40.7175 27.281 40.6597L37.9252 34.9093C38.0407 34.8373 38.1236 34.7544 38.1739 34.6607C38.2245 34.5669 38.2498 34.4478 38.2498 34.3035V26.3075L28.977 31.4004C28.6684 31.5733 28.3483 31.6995 28.0168 31.779C27.6849 31.8585 27.3459 31.8982 26.9998 31.8982C26.6537 31.8982 26.3147 31.8585 25.9828 31.779C25.6513 31.6995 25.3312 31.5733 25.0226 31.4004L15.7498 26.3075V34.3035C15.7498 34.419 15.7751 34.5309 15.8257 34.6393C15.876 34.7473 15.9589 34.8373 16.0744 34.9093L26.7185 40.6597Z" fill="#3884A5"/>
</svg>
