<svg width="54" height="54" viewBox="0 0 54 54" fill="none" xmlns="http://www.w3.org/2000/svg">
<path d="M19.9127 37.8562L27.0002 33.5812L34.0877 37.9125L32.2314 29.8125L38.4752 24.4125L30.2627 23.6812L27.0002 16.0312L23.7377 23.625L15.5252 24.3562L21.7689 29.8125L19.9127 37.8562ZM27.0002 37.5491L18.2471 42.8276C17.9209 43.0181 17.594 43.0982 17.2667 43.0678C16.9393 43.0374 16.643 42.9272 16.3779 42.737C16.1124 42.5465 15.9075 42.2977 15.7631 41.9906C15.6191 41.6835 15.596 41.3437 15.6939 40.9713L18.0176 31.0325L10.29 24.3433C10.0012 24.0924 9.8173 23.8018 9.73817 23.4714C9.65867 23.141 9.67948 22.82 9.80061 22.5084C9.92173 22.1972 10.0963 21.9427 10.3243 21.7451C10.5523 21.5475 10.8639 21.4183 11.2592 21.3575L21.4573 20.4665L25.4167 11.0812C25.5607 10.7321 25.7792 10.4739 26.072 10.3067C26.3649 10.1394 26.6743 10.0558 27.0002 10.0558C27.326 10.0558 27.6354 10.1394 27.9283 10.3067C28.2212 10.4739 28.4396 10.7321 28.5836 11.0812L32.543 20.4665L42.7412 21.3575C43.1364 21.4183 43.448 21.5475 43.676 21.7451C43.904 21.9427 44.0786 22.1972 44.1997 22.5084C44.3209 22.82 44.3417 23.141 44.2622 23.4714C44.183 23.8018 43.9991 24.0924 43.7104 24.3433L35.9827 31.0325L38.3064 40.9713C38.4043 41.3437 38.3812 41.6835 38.2372 41.9906C38.0929 42.2977 37.8879 42.5465 37.6224 42.737C37.3573 42.9272 37.061 43.0374 36.7337 43.0678C36.4063 43.0982 36.0795 43.0181 35.7532 42.8276L27.0002 37.5491Z" fill="#3884A5"/>
</svg>
