<svg width="54" height="54" viewBox="0 0 54 54" fill="none" xmlns="http://www.w3.org/2000/svg">
<path d="M7.875 38.5008V22.262C7.875 21.3215 8.22188 20.5363 8.91562 19.9063C9.60937 19.2759 10.4265 18.9982 11.367 19.0732C14.3006 19.5232 17.0863 20.3951 19.7241 21.6888C22.3622 22.9826 24.7875 24.6318 27 26.6366C29.2125 24.6318 31.6378 22.9826 34.2759 21.6888C36.9137 20.3951 39.6994 19.5232 42.633 19.0732C43.5735 18.9982 44.3906 19.2759 45.0844 19.9063C45.7781 20.5363 46.125 21.3215 46.125 22.262V38.5008C46.125 39.3978 45.8286 40.1673 45.2357 40.8093C44.6428 41.4509 43.8979 41.8093 43.0009 41.8843C40.4854 42.2739 38.0991 42.8964 35.8419 43.7518C33.5848 44.6068 31.4235 45.7612 29.358 47.2151C29.0032 47.4948 28.6312 47.7011 28.242 47.8338C27.8524 47.9666 27.4384 48.0329 27 48.0329C26.5616 48.0329 26.1476 47.9666 25.758 47.8338C25.3687 47.7011 24.9967 47.4948 24.642 47.2151C22.5765 45.7612 20.4187 44.6068 18.1687 43.7518C15.9187 42.8964 13.5289 42.2739 10.9991 41.8843C10.1021 41.8093 9.35719 41.4509 8.76431 40.8093C8.17144 40.1673 7.875 39.3978 7.875 38.5008ZM27 44.7316C29.3625 42.9838 31.875 41.5811 34.5375 40.5236C37.2 39.4664 39.9375 38.7691 42.75 38.4316V22.4741C39.9116 22.9616 37.1632 23.9279 34.5049 25.3732C31.8469 26.8181 29.3452 28.7131 27 31.0584C24.6547 28.7131 22.1531 26.8181 19.4951 25.3732C16.8367 23.9279 14.0884 22.9616 11.25 22.4741V38.4316C14.0625 38.7691 16.8 39.4664 19.4625 40.5236C22.125 41.5811 24.6375 42.9838 27 44.7316ZM21.2496 17.3896C19.6603 15.8004 18.8657 13.8836 18.8657 11.6392C18.8657 9.39519 19.6603 7.47838 21.2496 5.88876C22.8388 4.29951 24.7556 3.50488 27 3.50488C29.2444 3.50488 31.1612 4.29951 32.7504 5.88876C34.3397 7.47838 35.1343 9.39519 35.1343 11.6392C35.1343 13.8836 34.3397 15.8004 32.7504 17.3896C31.1612 18.9793 29.2444 19.7741 27 19.7741C24.7556 19.7741 22.8388 18.9793 21.2496 17.3896ZM30.3621 15.0013C31.2939 14.0698 31.7599 12.9491 31.7599 11.6392C31.7599 10.3297 31.2939 9.20901 30.3621 8.27713C29.4302 7.34563 28.3095 6.87988 27 6.87988C25.6905 6.87988 24.5698 7.34563 23.6379 8.27713C22.7061 9.20901 22.2401 10.3297 22.2401 11.6392C22.2401 12.9491 22.7061 14.0698 23.6379 15.0013C24.5698 15.9331 25.6905 16.3991 27 16.3991C28.3095 16.3991 29.4302 15.9331 30.3621 15.0013Z" fill="#16AB11"/>
</svg>
