<svg width="54" height="54" viewBox="0 0 54 54" fill="none" xmlns="http://www.w3.org/2000/svg">
<path d="M28.6875 26.3166V17.4375C28.6875 16.9594 28.5257 16.5585 28.2021 16.2349C27.8784 15.9116 27.4776 15.75 26.9994 15.75C26.5209 15.75 26.1202 15.9116 25.7974 16.2349C25.4741 16.5585 25.3125 16.9594 25.3125 17.4375V26.8357C25.3125 27.1005 25.3616 27.357 25.4599 27.6052C25.5577 27.8535 25.7121 28.083 25.9228 28.2937L33.6291 36C33.9403 36.3116 34.3318 36.471 34.8036 36.4781C35.2753 36.4852 35.6741 36.3259 36 36C36.3259 35.6741 36.4888 35.2789 36.4888 34.8143C36.4888 34.35 36.3259 33.9549 36 33.6291L28.6875 26.3166ZM27.0039 48.375C24.0474 48.375 21.2685 47.814 18.6671 46.692C16.0657 45.57 13.803 44.0473 11.8789 42.1239C9.95475 40.2006 8.43131 37.9387 7.30856 35.3385C6.18619 32.7382 5.625 29.9601 5.625 27.0039C5.625 24.0474 6.186 21.2685 7.308 18.6671C8.43 16.0657 9.95269 13.803 11.8761 11.8789C13.7994 9.95475 16.0613 8.43131 18.6615 7.30856C21.2618 6.18619 24.0399 5.625 26.9961 5.625C29.9526 5.625 32.7315 6.186 35.3329 7.308C37.9342 8.43 40.197 9.95269 42.1211 11.8761C44.0452 13.7994 45.5687 16.0613 46.6914 18.6615C47.8138 21.2618 48.375 24.0399 48.375 26.9961C48.375 29.9526 47.814 32.7315 46.692 35.3329C45.57 37.9342 44.0473 40.197 42.1239 42.1211C40.2006 44.0452 37.9387 45.5687 35.3385 46.6914C32.7382 47.8138 29.9601 48.375 27.0039 48.375ZM27 45C31.9875 45 36.2344 43.2469 39.7406 39.7406C43.2469 36.2344 45 31.9875 45 27C45 22.0125 43.2469 17.7656 39.7406 14.2594C36.2344 10.7531 31.9875 9 27 9C22.0125 9 17.7656 10.7531 14.2594 14.2594C10.7531 17.7656 9 22.0125 9 27C9 31.9875 10.7531 36.2344 14.2594 39.7406C17.7656 43.2469 22.0125 45 27 45Z" fill="#FFBF4D"/>
</svg>
