<svg width="54" height="54" viewBox="0 0 54 54" fill="none" xmlns="http://www.w3.org/2000/svg">
<path d="M25.7974 46.2021C25.4741 45.8788 25.3125 45.4781 25.3125 45V36C25.3125 35.5219 25.4743 35.1212 25.7979 34.7979C26.1216 34.4743 26.5224 34.3125 27.0006 34.3125C27.4791 34.3125 27.8797 34.4743 28.2026 34.7979C28.5259 35.1212 28.6875 35.5219 28.6875 36V38.8125H45C45.4781 38.8125 45.8788 38.9743 46.2021 39.2979C46.5257 39.6216 46.6875 40.0224 46.6875 40.5006C46.6875 40.9791 46.5257 41.3797 46.2021 41.7026C45.8788 42.0259 45.4781 42.1875 45 42.1875H28.6875V45C28.6875 45.4781 28.5257 45.8788 28.2021 46.2021C27.8784 46.5257 27.4776 46.6875 26.9994 46.6875C26.5209 46.6875 26.1202 46.5257 25.7974 46.2021ZM9 42.1875C8.52188 42.1875 8.12119 42.0257 7.79794 41.7021C7.47431 41.3784 7.3125 40.9776 7.3125 40.4994C7.3125 40.0209 7.47431 39.6203 7.79794 39.2974C8.12119 38.9741 8.52188 38.8125 9 38.8125H18C18.4781 38.8125 18.8788 38.9743 19.2021 39.2979C19.5257 39.6216 19.6875 40.0224 19.6875 40.5006C19.6875 40.9791 19.5257 41.3797 19.2021 41.7026C18.8788 42.0259 18.4781 42.1875 18 42.1875H9ZM16.7974 32.7021C16.4741 32.3788 16.3125 31.9781 16.3125 31.5V28.6875H9C8.52188 28.6875 8.12119 28.5257 7.79794 28.2021C7.47431 27.8784 7.3125 27.4776 7.3125 26.9994C7.3125 26.5209 7.47431 26.1202 7.79794 25.7974C8.12119 25.4741 8.52188 25.3125 9 25.3125H16.3125V22.5C16.3125 22.0219 16.4743 21.6212 16.7979 21.2979C17.1216 20.9743 17.5224 20.8125 18.0006 20.8125C18.4791 20.8125 18.8798 20.9743 19.2026 21.2979C19.5259 21.6212 19.6875 22.0219 19.6875 22.5V31.5C19.6875 31.9781 19.5257 32.3788 19.2021 32.7021C18.8784 33.0257 18.4776 33.1875 17.9994 33.1875C17.5209 33.1875 17.1202 33.0257 16.7974 32.7021ZM27 28.6875C26.5219 28.6875 26.1212 28.5257 25.7979 28.2021C25.4743 27.8784 25.3125 27.4776 25.3125 26.9994C25.3125 26.5209 25.4743 26.1202 25.7979 25.7974C26.1212 25.4741 26.5219 25.3125 27 25.3125H45C45.4781 25.3125 45.8788 25.4743 46.2021 25.7979C46.5257 26.1216 46.6875 26.5224 46.6875 27.0006C46.6875 27.4791 46.5257 27.8797 46.2021 28.2026C45.8788 28.5259 45.4781 28.6875 45 28.6875H27ZM34.7974 19.2021C34.4741 18.8788 34.3125 18.4781 34.3125 18V9C34.3125 8.52188 34.4743 8.12119 34.7979 7.79794C35.1216 7.47431 35.5224 7.3125 36.0006 7.3125C36.4791 7.3125 36.8797 7.47431 37.2026 7.79794C37.5259 8.12119 37.6875 8.52188 37.6875 9V11.8125H45C45.4781 11.8125 45.8788 11.9743 46.2021 12.2979C46.5257 12.6216 46.6875 13.0224 46.6875 13.5006C46.6875 13.9791 46.5257 14.3798 46.2021 14.7026C45.8788 15.0259 45.4781 15.1875 45 15.1875H37.6875V18C37.6875 18.4781 37.5257 18.8788 37.2021 19.2021C36.8784 19.5257 36.4776 19.6875 35.9994 19.6875C35.5209 19.6875 35.1202 19.5257 34.7974 19.2021ZM9 15.1875C8.52188 15.1875 8.12119 15.0257 7.79794 14.7021C7.47431 14.3784 7.3125 13.9776 7.3125 13.4994C7.3125 13.0209 7.47431 12.6202 7.79794 12.2974C8.12119 11.9741 8.52188 11.8125 9 11.8125H27C27.4781 11.8125 27.8788 11.9743 28.2021 12.2979C28.5257 12.6216 28.6875 13.0224 28.6875 13.5006C28.6875 13.9791 28.5257 14.3798 28.2021 14.7026C27.8788 15.0259 27.4781 15.1875 27 15.1875H9Z" fill="#12C6FF"/>
</svg>
