<svg width="54" height="54" viewBox="0 0 54 54" fill="none" xmlns="http://www.w3.org/2000/svg">
<path d="M38.0334 43.875C37.4574 43.875 36.9744 43.68 36.5844 43.29C36.1948 42.9004 36 42.4174 36 41.841V32.625C36 32.049 36.1948 31.566 36.5844 31.176C36.9744 30.7864 37.4574 30.5916 38.0334 30.5916H41.841C42.4174 30.5916 42.9004 30.7864 43.29 31.176C43.68 31.566 43.875 32.049 43.875 32.625V41.841C43.875 42.4174 43.68 42.9004 43.29 43.29C42.9004 43.68 42.4174 43.875 41.841 43.875H38.0334ZM25.0959 43.875C24.5199 43.875 24.0369 43.68 23.6469 43.29C23.2573 42.9004 23.0625 42.4174 23.0625 41.841V12.159C23.0625 11.5826 23.2573 11.0996 23.6469 10.71C24.0369 10.32 24.5199 10.125 25.0959 10.125H28.9041C29.4801 10.125 29.9631 10.32 30.3531 10.71C30.7427 11.0996 30.9375 11.5826 30.9375 12.159V41.841C30.9375 42.4174 30.7427 42.9004 30.3531 43.29C29.9631 43.68 29.4801 43.875 28.9041 43.875H25.0959ZM12.159 43.875C11.5826 43.875 11.0996 43.68 10.71 43.29C10.32 42.9004 10.125 42.4174 10.125 41.841V23.2026C10.125 22.6161 10.32 22.1287 10.71 21.7406C11.0996 21.3529 11.5826 21.159 12.159 21.159H15.9666C16.5426 21.159 17.0256 21.3538 17.4156 21.7434C17.8052 22.1331 18 22.6161 18 23.1924V41.8309C18 42.4178 17.8052 42.9051 17.4156 43.2928C17.0256 43.6809 16.5426 43.875 15.9666 43.875H12.159Z" fill="#12C6FF"/>
</svg>
