<svg width="54" height="54" viewBox="0 0 54 54" fill="none" xmlns="http://www.w3.org/2000/svg">
<g clip-path="url(#clip0_473_695)">
<path d="M7.875 54.0001C6.95475 54.0001 6.16219 53.6712 5.49731 53.0134C4.83244 52.3557 4.5 51.5596 4.5 50.6251C4.5 49.7048 4.83244 48.9122 5.49731 48.2474C6.16219 47.5825 6.95475 47.2501 7.875 47.2501H46.125C47.0452 47.2501 47.8378 47.5789 48.5027 48.2367C49.1676 48.8944 49.5 49.6906 49.5 50.6251C49.5 51.5453 49.1676 52.3379 48.5027 53.0028C47.8378 53.6676 47.0452 54.0001 46.125 54.0001H7.875ZM13.5 36.9304H16.2821L34.9571 18.2897L33.5424 16.8537L32.1407 15.4733L13.5 34.1483V36.9304ZM10.125 38.2714V33.5599C10.125 33.2888 10.1704 33.0306 10.2611 32.7854C10.3522 32.5401 10.503 32.3121 10.7134 32.1014L35.3469 7.52462C35.6728 7.19875 36.0427 6.95218 36.4567 6.78493C36.8704 6.61768 37.2979 6.53406 37.7392 6.53406C38.1952 6.53406 38.6287 6.61768 39.0397 6.78493C39.4507 6.95218 39.8308 7.21037 40.1799 7.5595L42.8839 10.2983C43.233 10.6242 43.4854 10.9962 43.641 11.4143C43.797 11.8328 43.875 12.2699 43.875 12.7255C43.875 13.144 43.797 13.5601 43.641 13.9737C43.4854 14.3877 43.233 14.7692 42.8839 15.1184L18.3071 39.6951C18.0964 39.9059 17.8686 40.0602 17.6237 40.1581C17.3784 40.2563 17.1202 40.3054 16.8491 40.3054H12.159C11.5789 40.3054 11.0949 40.1114 10.7072 39.7232C10.3191 39.3355 10.125 38.8516 10.125 38.2714ZM34.9571 18.2897L33.5424 16.8537L32.1407 15.4733L34.9571 18.2897Z" fill="#FFBCF9"/>
</g>
<defs>
<clipPath id="clip0_473_695">
<rect width="54" height="54" fill="white"/>
</clipPath>
</defs>
</svg>
