<svg width="74" height="74" viewBox="0 0 74 74" fill="none" xmlns="http://www.w3.org/2000/svg">
<path d="M37 36.3834L31.9657 40.273C31.6774 40.4904 31.3937 40.4983 31.1147 40.2969C30.8362 40.0955 30.7483 39.8344 30.8511 39.5137L32.7666 33.2168L27.6668 29.3156C27.4098 29.0982 27.3379 28.8323 27.4509 28.5178C27.5635 28.2038 27.7798 28.0468 28.1 28.0468H34.4031L36.3178 21.8447C36.4206 21.524 36.648 21.3637 37 21.3637C37.352 21.3637 37.5794 21.524 37.6822 21.8447L39.5969 28.0468H45.853C46.1732 28.0468 46.3975 28.2038 46.526 28.5178C46.6544 28.8323 46.5902 29.0982 46.3333 29.3156L41.1864 33.2168L43.1011 39.5137C43.2039 39.8344 43.116 40.0955 42.8375 40.2969C42.559 40.4983 42.2753 40.4904 41.9865 40.273L37 36.3834ZM37 63.149L23.6823 67.3647C22.7732 67.6849 21.9392 67.5613 21.1802 66.9939C20.4212 66.4266 20.0417 65.6786 20.0417 64.75V46.4751C18.0889 44.4355 16.5729 42.0775 15.4937 39.4012C14.4146 36.7254 13.875 33.8694 13.875 30.8334C13.875 24.382 16.1163 18.915 20.599 14.4324C25.0816 9.9497 30.5486 7.70837 37 7.70837C43.4514 7.70837 48.9184 9.9497 53.401 14.4324C57.8837 18.915 60.125 24.382 60.125 30.8334C60.125 33.8694 59.5854 36.7254 58.5063 39.4012C57.4271 42.0775 55.9111 44.4355 53.9583 46.4751V64.75C53.9583 65.6786 53.5788 66.4266 52.8198 66.9939C52.0608 67.5613 51.2268 67.6849 50.3177 67.3647L37 63.149ZM50.1042 43.9375C53.7014 40.3403 55.5 35.9723 55.5 30.8334C55.5 25.6945 53.7014 21.3264 50.1042 17.7292C46.5069 14.132 42.1389 12.3334 37 12.3334C31.8611 12.3334 27.4931 14.132 23.8958 17.7292C20.2986 21.3264 18.5 25.6945 18.5 30.8334C18.5 35.9723 20.2986 40.3403 23.8958 43.9375C27.4931 47.5348 31.8611 49.3334 37 49.3334C42.1389 49.3334 46.5069 47.5348 50.1042 43.9375ZM24.6667 61.7731L37 58.4647L49.3333 61.7731V50.3177C47.5743 51.4642 45.6493 52.3576 43.5583 52.9979C41.4667 53.6382 39.2806 53.9584 37 53.9584C34.7194 53.9584 32.5333 53.6382 30.4418 52.9979C28.3507 52.3576 26.4257 51.4642 24.6667 50.3177V61.7731Z" fill="#111827"/>
</svg>
