<svg width="74" height="74" viewBox="0 0 74 74" fill="none" xmlns="http://www.w3.org/2000/svg">
<path d="M37.0056 66.2917C32.9541 66.2917 29.1459 65.5229 25.581 63.9854C22.0162 62.4478 18.9154 60.3612 16.2786 57.7254C13.6419 55.0897 11.5542 51.9902 10.0156 48.4269C8.47753 44.8636 7.7085 41.0564 7.7085 37.0054C7.7085 32.9539 8.47727 29.1458 10.0148 25.5809C11.5524 22.0161 13.639 18.9153 16.2748 16.2785C18.9105 13.6417 22.01 11.5541 25.5733 10.0155C29.1366 8.47741 32.9438 7.70837 36.9948 7.70837C41.0463 7.70837 44.8544 8.47715 48.4193 10.0147C51.9841 11.5523 55.0849 13.6389 57.7217 16.2746C60.3585 18.9104 62.4461 22.0099 63.9847 25.5732C65.5228 29.1365 66.2918 32.9437 66.2918 36.9946C66.2918 41.0461 65.5231 44.8543 63.9855 48.4192C62.4479 51.984 60.3613 55.0848 57.7256 57.7216C55.0898 60.3583 51.9903 62.446 48.427 63.9846C44.8637 65.5227 41.0565 66.2917 37.0056 66.2917ZM37.0002 61.6667C43.8863 61.6667 49.7189 59.2771 54.4981 54.498C59.2772 49.7188 61.6668 43.8862 61.6668 37C61.6668 36.6403 61.6589 36.2726 61.6429 35.897C61.627 35.5213 61.6093 35.1855 61.5897 34.8895C61.3919 36.3202 60.7721 37.5039 59.7305 38.4407C58.6894 39.3775 57.4373 39.846 55.9742 39.846H48.9774C47.4121 39.846 46.0721 39.2892 44.9575 38.1756C43.8428 37.0615 43.2855 35.7223 43.2855 34.158V31.3136H31.9011V25.6256C31.9011 24.0613 32.4584 22.7198 33.573 21.6011C34.6877 20.4824 36.0276 19.923 37.5929 19.923H40.4396V18.7375C40.4396 17.3972 40.8448 16.2872 41.6552 15.4075C42.4651 14.5282 43.4415 13.9146 44.5844 13.5667C43.3783 13.1715 42.1488 12.867 40.896 12.6533C39.6431 12.44 38.3445 12.3334 37.0002 12.3334C30.1141 12.3334 24.2814 14.723 19.5022 19.5021C14.7231 24.2813 12.3335 30.1139 12.3335 37V37.4448C12.3335 37.583 12.3433 37.7313 12.3628 37.8896H26.9793C30.1336 37.8896 32.8197 38.9983 35.0376 41.2157C37.2551 43.4337 38.3638 46.1154 38.3638 49.2609V52.1199H29.8252V60.5698C30.9717 60.9254 32.1398 61.1973 33.3295 61.3854C34.5196 61.5729 35.7432 61.6667 37.0002 61.6667Z" fill="#111827"/>
</svg>
