<svg width="74" height="74" viewBox="0 0 74 74" fill="none" xmlns="http://www.w3.org/2000/svg">
<path d="M25.5805 63.9854C22.0157 62.4478 18.9149 60.3612 16.2781 57.7254C13.6414 55.0897 11.5537 51.9902 10.0151 48.4269C8.47704 44.8636 7.70801 41.0564 7.70801 37.0054C7.70801 32.9539 8.47679 29.1458 10.0143 25.5809C11.5519 22.0161 13.6385 18.9153 16.2743 16.2785C18.91 13.6417 22.0095 11.5541 25.5728 10.0155C29.1361 8.47741 32.9433 7.70837 36.9943 7.70837C41.0458 7.70837 44.854 8.47715 48.4188 10.0147C51.9837 11.5523 55.0845 13.6389 57.7212 16.2746C60.358 18.9104 62.4457 22.0099 63.9842 25.5732C65.5223 29.1365 66.2913 32.9437 66.2913 36.9946C66.2913 41.0461 65.5226 44.8543 63.985 48.4192C62.4475 51.984 60.3608 55.0848 57.7251 57.7216C55.0893 60.3583 51.9898 62.446 48.4265 63.9846C44.8632 65.5227 41.0561 66.2917 37.0051 66.2917C32.9536 66.2917 29.1454 65.5229 25.5805 63.9854ZM54.4976 54.498C59.2768 49.7188 61.6663 43.8862 61.6663 37C61.6663 30.1139 59.2768 24.2813 54.4976 19.5021C49.7184 14.723 43.8858 12.3334 36.9997 12.3334C30.1136 12.3334 24.2809 14.723 19.5018 19.5021C14.7226 24.2813 12.333 30.1139 12.333 37C12.333 43.8862 14.7226 49.7188 19.5018 54.498C24.2809 59.2771 30.1136 61.6667 36.9997 61.6667C43.8858 61.6667 49.7184 59.2771 54.4976 54.498ZM24.9924 49.0142C21.6917 45.7182 20.0413 41.7157 20.0413 37.007C20.0413 32.2982 21.6894 28.2935 24.9855 24.9928C28.2816 21.6921 32.284 20.0417 36.9927 20.0417C41.7015 20.0417 45.7062 21.6898 49.0069 24.9858C52.3077 28.2819 53.958 32.2843 53.958 36.9931C53.958 41.7019 52.31 45.7066 49.0139 49.0073C45.7178 52.308 41.7154 53.9584 37.0066 53.9584C32.2978 53.9584 28.2931 52.3103 24.9924 49.0142ZM45.7101 45.7105C48.1254 43.2952 49.333 40.3917 49.333 37C49.333 33.6084 48.1254 30.7049 45.7101 28.2896C43.2948 25.8743 40.3913 24.6667 36.9997 24.6667C33.608 24.6667 30.7045 25.8743 28.2893 28.2896C25.874 30.7049 24.6663 33.6084 24.6663 37C24.6663 40.3917 25.874 43.2952 28.2893 45.7105C30.7045 48.1257 33.608 49.3334 36.9997 49.3334C40.3913 49.3334 43.2948 48.1257 45.7101 45.7105ZM33.7414 40.2584C32.8302 39.3472 32.3747 38.2611 32.3747 37C32.3747 35.739 32.8302 34.6529 33.7414 33.7417C34.6525 32.8306 35.7386 32.375 36.9997 32.375C38.2608 32.375 39.3469 32.8306 40.258 33.7417C41.1691 34.6529 41.6247 35.739 41.6247 37C41.6247 38.2611 41.1691 39.3472 40.258 40.2584C39.3469 41.1695 38.2608 41.625 36.9997 41.625C35.7386 41.625 34.6525 41.1695 33.7414 40.2584Z" fill="#021B2E"/>
</svg>
