<svg width="74" height="74" viewBox="0 0 74 74" fill="none" xmlns="http://www.w3.org/2000/svg">
<path d="M15.9541 66.2917C13.6637 66.2917 11.7168 65.4875 10.1135 63.879C8.51016 62.2705 7.7085 60.3175 7.7085 58.0199C7.7085 56.154 8.27172 54.4887 9.39816 53.0241C10.5251 51.5595 11.9483 50.5883 13.6678 50.1104V42.9886C13.6678 40.6962 14.4782 38.7396 16.099 37.1187C17.7198 35.4979 19.6765 34.6875 21.9689 34.6875H34.6877V23.8897C32.9682 23.4118 31.5452 22.4405 30.4188 20.976C29.2918 19.5114 28.7284 17.8461 28.7284 15.9802C28.7284 13.6826 29.53 11.7296 31.1334 10.1211C32.7367 8.51261 34.6836 7.70837 36.974 7.70837C39.2644 7.70837 41.22 8.51261 42.8408 10.1211C44.4616 11.7296 45.272 13.6826 45.272 15.9802C45.272 17.8461 44.7085 19.5114 43.5815 20.976C42.4551 22.4405 41.0321 23.4118 39.3127 23.8897V34.6875H52.0314C54.3239 34.6875 56.2805 35.4979 57.9013 37.1187C59.5221 38.7396 60.3325 40.6962 60.3325 42.9886V50.1104C62.052 50.5883 63.4752 51.5595 64.6022 53.0241C65.7286 54.4887 66.2918 56.154 66.2918 58.0199C66.2918 60.3175 65.4814 62.2705 63.8606 63.879C62.2398 65.4875 60.2842 66.2917 57.9938 66.2917C55.7034 66.2917 53.7565 65.4875 52.1532 63.879C50.5504 62.2705 49.749 60.3175 49.749 58.0199C49.749 56.154 50.3122 54.4887 51.4386 53.0241C52.5651 51.5595 53.988 50.5883 55.7075 50.1104V42.9886C55.7075 41.947 55.3552 41.0739 54.6507 40.3694C53.9462 39.6648 53.0731 39.3125 52.0314 39.3125H39.3127V50.1104C41.0321 50.5883 42.4551 51.5595 43.5815 53.0241C44.7085 54.4887 45.272 56.154 45.272 58.0199C45.272 60.3175 44.4616 62.2705 42.8408 63.879C41.22 65.4875 39.2644 66.2917 36.974 66.2917C34.6836 66.2917 32.7367 65.4875 31.1334 63.879C29.53 62.2705 28.7284 60.3175 28.7284 58.0199C28.7284 56.154 29.2918 54.4887 30.4188 53.0241C31.5452 51.5595 32.9682 50.5883 34.6877 50.1104V39.3125H21.9689C20.9273 39.3125 20.0542 39.6648 19.3496 40.3694C18.6451 41.0739 18.2928 41.947 18.2928 42.9886V50.1104C20.0123 50.5883 21.4352 51.5595 22.5617 53.0241C23.6881 54.4887 24.2513 56.154 24.2513 58.0199C24.2513 60.3175 23.4412 62.2705 21.8209 63.879C20.2001 65.4875 18.2445 66.2917 15.9541 66.2917ZM15.9657 61.6667C16.9873 61.6667 17.8529 61.3173 18.5626 60.6184C19.2723 59.92 19.6271 59.0544 19.6271 58.0214C19.6271 56.9885 19.2746 56.1224 18.5695 55.423C17.865 54.723 16.9919 54.3731 15.9502 54.3731C14.9384 54.3731 14.0828 54.7279 13.3834 55.4376C12.6835 56.1473 12.3335 57.008 12.3335 58.0199C12.3335 59.0317 12.6835 59.8925 13.3834 60.6022C14.0828 61.3119 14.9435 61.6667 15.9657 61.6667ZM36.9855 61.6667C38.0071 61.6667 38.8728 61.3173 39.5825 60.6184C40.2921 59.92 40.647 59.0544 40.647 58.0214C40.647 56.9885 40.2947 56.1224 39.5902 55.423C38.8851 54.723 38.012 54.3731 36.9709 54.3731C35.9585 54.3731 35.1026 54.7279 34.4032 55.4376C33.7033 56.1473 33.3534 57.008 33.3534 58.0199C33.3534 59.0317 33.7033 59.8925 34.4032 60.6022C35.1026 61.3119 35.9634 61.6667 36.9855 61.6667ZM58.0054 61.6667C59.027 61.6667 59.8926 61.3173 60.6023 60.6184C61.312 59.92 61.6668 59.0544 61.6668 58.0214C61.6668 56.9885 61.3146 56.1224 60.61 55.423C59.9055 54.723 59.0324 54.3731 57.9907 54.3731C56.9784 54.3731 56.1225 54.7279 55.4231 55.4376C54.7232 56.1473 54.3732 57.008 54.3732 58.0199C54.3732 59.0317 54.7232 59.8925 55.4231 60.6022C56.1225 61.3119 56.9832 61.6667 58.0054 61.6667ZM36.9855 19.627C38.0071 19.627 38.8728 19.2776 39.5825 18.5787C40.2921 17.8803 40.647 17.0146 40.647 15.9817C40.647 14.9488 40.2947 14.0827 39.5902 13.3832C38.8851 12.6833 38.012 12.3334 36.9709 12.3334C35.9585 12.3334 35.1026 12.6882 34.4032 13.3979C33.7033 14.1076 33.3534 14.9683 33.3534 15.9802C33.3534 16.992 33.7033 17.8528 34.4032 18.5625C35.1026 19.2722 35.9634 19.627 36.9855 19.627Z" fill="#111827"/>
</svg>
