<svg width="74" height="74" viewBox="0 0 74 74" fill="none" xmlns="http://www.w3.org/2000/svg">
<path d="M35.3522 63.3139C34.9092 62.8709 34.6877 62.3218 34.6877 61.6666V39.5082C31.5967 39.5082 28.6338 38.9232 25.7992 37.753C22.9651 36.5829 20.461 34.9107 18.2867 32.7365C16.1129 30.5622 14.4539 28.058 13.3094 25.2239C12.165 22.3898 11.5928 19.427 11.5928 16.3354V14.4384C11.5928 13.6573 11.8569 13.0024 12.3852 12.4736C12.9135 11.9453 13.5684 11.6812 14.35 11.6812H16.2471C19.2713 11.6812 22.1994 12.2711 25.0315 13.451C27.864 14.6309 30.3672 16.308 32.5409 18.4822C34.154 20.0953 35.4773 21.897 36.5107 23.8873C37.5447 25.8776 38.2849 27.9915 38.7315 30.2289C39.0871 29.6123 39.4833 29.028 39.9201 28.4761C40.3569 27.9247 40.8444 27.3802 41.3824 26.8427C43.55 24.672 46.0547 22.996 48.8965 21.8145C51.7383 20.6326 54.7003 20.0416 57.7826 20.0416H59.6804C60.4615 20.0416 61.1162 20.306 61.6445 20.8348C62.1733 21.3631 62.4377 22.0178 62.4377 22.7989V24.6959C62.4377 27.7787 61.8467 30.741 60.6648 33.5828C59.4834 36.4246 57.8073 38.9293 55.6367 41.0969C53.4624 43.2712 50.9711 44.9305 48.1626 46.075C45.3537 47.2194 42.4038 47.7916 39.3127 47.7916V61.6666C39.3127 62.3218 39.091 62.8709 38.6475 63.3139C38.204 63.7574 37.6546 63.9791 36.9994 63.9791C36.3437 63.9791 35.7946 63.7574 35.3522 63.3139ZM34.7178 34.8062C34.7178 32.3395 34.2424 29.9884 33.2917 27.753C32.341 25.5176 30.9921 23.5263 29.2449 21.7791C27.4976 20.0318 25.5063 18.6829 23.2709 17.7322C21.0355 16.7815 18.6844 16.3062 16.2178 16.3062C16.2178 18.7728 16.6803 21.1367 17.6053 23.3978C18.5303 25.6589 19.8664 27.6631 21.6136 29.4103C23.3608 31.1575 25.365 32.4937 27.6261 33.4187C29.8872 34.3437 32.2511 34.8062 34.7178 34.8062ZM39.3127 43.1666C41.7794 43.1666 44.1304 42.7041 46.3658 41.7791C48.6013 40.8541 50.5926 39.518 52.3398 37.7708C54.087 36.0236 55.436 34.0194 56.3867 31.7583C57.3374 29.4972 57.8127 27.1333 57.8127 24.6666C55.346 24.6666 52.9822 25.142 50.721 26.0927C48.4599 27.0433 46.4558 28.3923 44.7085 30.1395C42.9613 31.8868 41.6252 33.8781 40.7002 36.1135C39.7752 38.3489 39.3127 40.6999 39.3127 43.1666Z" fill="#111827"/>
</svg>
