<svg width="44" height="44" viewBox="0 0 44 44" fill="none" xmlns="http://www.w3.org/2000/svg">
<path d="M30.4828 23.375H9.625C9.23481 23.375 8.90817 23.2433 8.64508 22.9799C8.38169 22.7168 8.25 22.3902 8.25 22C8.25 21.6098 8.38169 21.2832 8.64508 21.0201C8.90817 20.7567 9.23481 20.625 9.625 20.625H30.4828L21.0059 11.1481C20.7333 10.8755 20.5987 10.5565 20.6021 10.1911C20.6058 9.82561 20.7497 9.50065 21.0338 9.21618C21.3183 8.95065 21.6404 8.81315 22 8.80368C22.3596 8.79421 22.6817 8.93171 22.9662 9.21618L34.59 20.84C34.7617 21.0117 34.8827 21.1927 34.953 21.3831C35.0235 21.5735 35.0588 21.7791 35.0588 22C35.0588 22.2209 35.0235 22.4266 34.953 22.6169C34.8827 22.8073 34.7617 22.9883 34.59 23.1601L22.9662 34.7838C22.7123 35.0378 22.3978 35.1676 22.0229 35.1734C21.648 35.1792 21.3183 35.0494 21.0338 34.7838C20.7497 34.4994 20.6076 34.1727 20.6076 33.8039C20.6076 33.4348 20.7497 33.108 21.0338 32.8236L30.4828 23.375Z" fill="#021B2E"/>
</svg>
