<svg width="74" height="74" viewBox="0 0 74 74" fill="none" xmlns="http://www.w3.org/2000/svg">
<path d="M25.7344 35.4583V23.125C25.7344 22.1368 26.0802 21.2968 26.7719 20.6051C27.4636 19.9134 28.3036 19.5676 29.2918 19.5676C30.28 19.5676 31.1199 19.9134 31.8116 20.6051C32.5033 21.2968 32.8492 22.1368 32.8492 23.125V35.4583C32.8492 36.4465 32.5033 37.2865 31.8116 37.9782C31.1199 38.6699 30.28 39.0157 29.2918 39.0157C28.3036 39.0157 27.4636 38.6699 26.7719 37.9782C26.0802 37.2865 25.7344 36.4465 25.7344 35.4583ZM40.1428 37.1071V10.7917C40.1428 9.80344 40.4886 8.96349 41.1803 8.2718C41.872 7.5801 42.712 7.23425 43.7002 7.23425C44.6884 7.23425 45.5283 7.5801 46.22 8.2718C46.9117 8.96349 47.2576 9.80344 47.2576 10.7917V37.1071C47.2576 38.2927 46.8925 39.182 46.1622 39.775C45.432 40.368 44.6129 40.6645 43.7048 40.6645C42.7968 40.6645 41.9761 40.368 41.2428 39.775C40.5095 39.182 40.1428 38.2927 40.1428 37.1071ZM11.2666 45.7281V35.4583C11.2666 34.4701 11.6124 33.6302 12.3041 32.9385C12.9958 32.2468 13.8358 31.9009 14.824 31.9009C15.8122 31.9009 16.6522 32.2468 17.3439 32.9385C18.0355 33.6302 18.3814 34.4701 18.3814 35.4583V45.7281C18.3814 46.9142 18.0163 47.8035 17.286 48.396C16.5553 48.989 15.7359 49.2855 14.8279 49.2855C13.9198 49.2855 13.0991 48.989 12.3658 48.396C11.633 47.8035 11.2666 46.9142 11.2666 45.7281ZM16.6393 64.1333C15.6264 64.1333 14.9196 63.6618 14.5187 62.7188C14.1174 61.7764 14.2862 60.9354 15.0252 60.1959L27.3709 47.851C27.8765 47.3448 28.4922 47.066 29.2178 47.0147C29.9429 46.9633 30.5863 47.1907 31.1479 47.6968L40.1428 55.4291L59.1885 36.3833H55.5001C54.8449 36.3833 54.2958 36.1616 53.8528 35.7181C53.4093 35.2746 53.1876 34.7253 53.1876 34.07C53.1876 33.4143 53.4093 32.8652 53.8528 32.4228C54.2958 31.9798 54.8449 31.7583 55.5001 31.7583H64.276C65.0654 31.7583 65.7273 32.0253 66.2617 32.5592C66.7956 33.0937 67.0626 33.7555 67.0626 34.5449V43.3208C67.0626 43.976 66.8409 44.5251 66.3974 44.9681C65.9539 45.4116 65.4045 45.6333 64.7493 45.6333C64.0936 45.6333 63.5445 45.4116 63.1021 44.9681C62.6591 44.5251 62.4376 43.976 62.4376 43.3208V39.6324L42.1585 59.9115C41.6529 60.4176 41.0372 60.6964 40.3116 60.7478C39.5865 60.7992 38.9431 60.5718 38.3814 60.0656L29.3866 52.3334L18.275 63.4457C18.0803 63.6364 17.8367 63.7988 17.5443 63.9329C17.2524 64.0665 16.9507 64.1333 16.6393 64.1333Z" fill="#111827"/>
</svg>
