<?xml version="1.0" standalone="no"?>
<svg version="1.0" xmlns="http://www.w3.org/2000/svg"
 width="200" height="200" viewBox="0 0 1419.000000 1108.000000"
 preserveAspectRatio="xMidYMid meet">
<defs><linearGradient id="g" x1="0" y1="0" x2="1" y2="1"><stop offset="0" stop-color="#1c7e4a"/><stop offset="0.5" stop-color="#6f9a38"/><stop offset="1" stop-color="#d4a029"/></linearGradient></defs>
<g transform="translate(0.000000,1108.000000) scale(0.100000,-0.100000)"
fill="url(#g)" stroke="none">
<path d="M6145 9303 c-335 -44 -618 -185 -860 -428 -270 -269 -425 -612 -425
-939 l0 -106 -819 0 -818 0 -34 -23 c-18 -12 -39 -34 -46 -47 -10 -20 -13
-487 -13 -2235 0 -2174 0 -2211 20 -2242 41 -69 -191 -63 2650 -63 l2570 0 0
-890 c0 -978 -3 -933 60 -965 25 -13 203 -15 1481 -15 1450 0 1452 0 1485 21
22 13 37 33 44 57 8 26 10 340 8 1027 -4 1105 2 1018 -78 1183 -93 194 -255
333 -470 404 -86 28 -110 31 -252 36 l-158 4 1 262 0 261 62 46 c162 119 303
341 369 578 26 96 36 319 18 430 -42 262 -200 538 -389 681 l-60 45 0 668 c-1
736 0 718 -63 757 -32 20 -48 20 -834 20 l-801 0 -6 138 c-22 494 -295 924
-747 1179 -79 45 -213 97 -332 129 l-103 28 -715 2 c-393 1 -728 0 -745 -3z
m1495 -260 c168 -42 308 -110 457 -223 418 -316 575 -907 367 -1374 -69 -154
-70 -158 -57 -228 7 -35 26 -121 43 -193 62 -261 120 -528 116 -533 -3 -2
-145 66 -316 152 -329 166 -363 178 -412 142 -13 -9 -38 -28 -57 -41 -44 -32
-173 -73 -271 -86 -46 -6 -319 -9 -720 -6 -572 3 -653 5 -720 21 -255 60 -439
162 -620 345 -208 209 -319 442 -352 734 -21 190 17 421 101 602 142 307 428
555 761 660 166 52 200 54 925 51 641 -2 674 -3 755 -23z m-2751 -1495 c140
-585 637 -1046 1211 -1123 154 -21 1334 -21 1470 0 103 15 202 46 291 90 l56
28 398 -203 c353 -179 402 -201 433 -196 43 7 98 57 106 98 6 32 -62 365 -188
917 l-24 104 28 61 c15 33 42 107 60 164 l32 102 744 0 744 0 0 -534 0 -535
-56 19 c-150 52 -390 67 -544 35 -405 -84 -714 -359 -838 -745 -45 -139 -55
-201 -55 -340 -2 -495 329 -922 818 -1057 93 -26 113 -28 280 -27 159 1 190 4
270 26 50 13 98 28 108 32 16 8 17 -5 17 -187 l0 -196 -617 -4 c-690 -4 -661
-1 -818 -77 -201 -98 -345 -264 -411 -472 l-18 -58 -2508 0 -2508 0 0 2053 c0
1130 3 2057 7 2060 3 4 343 7 754 7 l748 0 10 -42z m5144 -1213 c195 -41 380
-158 499 -314 190 -251 232 -579 110 -869 -96 -229 -306 -412 -553 -482 -96
-27 -273 -37 -374 -21 -232 38 -439 166 -563 348 -113 167 -157 304 -156 493
1 142 15 213 67 337 68 160 196 312 333 396 74 45 197 95 278 112 82 18 275
18 359 0z m733 -2506 c76 -14 185 -65 250 -118 62 -49 136 -154 166 -236 l23
-60 3 -913 2 -912 -277 2 -278 3 -5 820 c-3 451 -9 828 -14 838 -30 61 -172
60 -203 -2 -4 -9 -10 -385 -13 -836 l-5 -820 -505 0 -505 0 -1 730 c-1 1008 2
911 -35 946 -26 24 -40 29 -81 29 -44 0 -54 -4 -84 -34 l-34 -34 0 -821 0
-821 -282 2 -283 3 0 890 1 890 24 74 c44 139 149 265 270 326 52 26 131 52
175 58 75 10 1635 6 1691 -4z M4275 6106 c-52 -23 -70 -52 -70 -111 0 -39 5
-59 20 -75 46 -52 4 -50 1192 -50 703 0 1121 4 1144 10 58 16 84 52 84 116 0
47 -4 57 -33 86 l-32 33 -1138 2 c-929 2 -1142 0 -1167 -11z M4284 5479 c-53
-15 -79 -53 -79 -115 0 -47 4 -57 33 -86 l32 -33 263 -3 c282 -4 317 1 358 44
19 21 24 36 24 80 0 44 -4 58 -26 79 -14 15 -43 30 -65 35 -50 12 -499 11
-540 -1z M5237 5480 c-56 -10 -89 -48 -94 -107 -6 -57 19 -96 73 -119 49 -21
2099 -21 2148 0 107 45 100 195 -12 226 -43 12 -2054 12 -2115 0z M4284 4879
c-53 -15 -79 -53 -79 -115 0 -45 4 -58 26 -80 16 -15 45 -30 70 -35 51 -9 641
-12 688 -3 78 16 121 105 85 174 -37 68 -48 70 -424 69 -184 0 -349 -5 -366
-10z M5384 4883 c-12 -2 -34 -18 -50 -34 -25 -26 -29 -38 -29 -84 0 -39 5 -59
20 -75 42 -47 64 -50 403 -50 176 0 334 3 351 6 72 15 116 99 87 168 -30 71
-29 71 -416 72 -190 1 -355 0 -366 -3z M6471 4872 c-45 -22 -75 -80 -67 -127
10 -54 56 -92 119 -100 28 -4 401 -5 827 -3 743 3 776 4 807 22 17 11 36 30
42 43 16 35 13 105 -5 132 -37 52 -23 51 -886 51 -745 0 -805 -1 -837 -18z
M4258 4222 c-53 -32 -72 -106 -43 -162 32 -61 16 -60 667 -60 567 0 594 1 624
19 65 40 69 137 8 190 l-35 31 -597 0 c-544 -1 -599 -2 -624 -18z M5978 4224
c-36 -19 -58 -63 -58 -115 0 -33 6 -47 34 -75 l34 -34 610 0 610 0 31 26 c17
14 36 42 42 63 15 49 -7 103 -53 131 -32 19 -48 20 -628 20 -507 -1 -599 -3
-622 -16z"/>
</g>
</svg>
