<?xml version="1.0" standalone="no"?>
<svg version="1.0" xmlns="http://www.w3.org/2000/svg"
 width="200" height="200" viewBox="0 0 1131.000000 944.000000"
 preserveAspectRatio="xMidYMid meet">
<defs><linearGradient id="g" x1="0" y1="0" x2="1" y2="1"><stop offset="0" stop-color="#1c7e4a"/><stop offset="0.5" stop-color="#6f9a38"/><stop offset="1" stop-color="#d4a029"/></linearGradient></defs>
<g transform="translate(0.000000,944.000000) scale(0.100000,-0.100000)"
fill="url(#g)" stroke="none">
<path d="M5278 8870 l-317 -5 -30 -29 c-17 -17 -36 -46 -41 -65 -5 -20 -10
-139 -10 -264 0 -173 -3 -228 -12 -231 -7 -2 -76 -18 -153 -36 -390 -90 -796
-266 -1150 -499 l-79 -52 -171 175 c-182 187 -209 205 -283 191 -32 -6 -91
-60 -430 -398 -217 -216 -400 -405 -409 -421 -10 -20 -14 -46 -10 -79 4 -49 6
-51 186 -231 99 -99 181 -185 181 -189 0 -5 -17 -34 -38 -65 -217 -322 -385
-726 -481 -1155 l-27 -122 -258 -5 -258 -5 -33 -36 c-26 -29 -35 -49 -40 -90
-3 -30 -5 -289 -3 -576 4 -672 -30 -611 342 -615 156 -2 250 -7 251 -13 2 -5
15 -64 30 -130 71 -313 204 -641 375 -930 40 -66 87 -141 106 -168 19 -26 34
-50 34 -55 0 -4 -75 -81 -166 -172 -91 -91 -173 -180 -181 -199 -9 -22 -12
-47 -8 -75 6 -38 34 -68 352 -386 436 -436 462 -460 513 -467 21 -3 51 -2 66
1 18 5 93 72 199 177 94 93 175 169 181 169 5 0 29 -14 54 -30 243 -164 591
-328 907 -427 l123 -38 0 -283 c0 -313 2 -325 63 -362 31 -19 56 -20 867 -20
648 0 841 3 860 13 13 7 35 28 47 46 23 33 23 39 23 312 l0 278 43 12 c364 97
771 278 1052 466 27 18 52 33 56 33 3 0 70 -66 150 -146 181 -184 208 -204
268 -204 27 0 57 7 72 18 15 9 204 193 422 407 346 342 395 395 401 427 12 65
-13 102 -191 280 l-166 166 60 94 c174 268 300 533 393 823 34 109 90 329 90
357 0 16 11 18 108 18 401 2 433 7 469 73 17 29 18 75 18 592 0 517 -1 562
-18 592 -35 65 -45 67 -321 73 l-250 5 -28 125 c-98 442 -244 785 -512 1202
-9 16 14 43 166 195 97 98 181 188 187 200 13 27 14 73 2 106 -6 14 -188 203
-405 420 -294 293 -405 398 -432 407 -75 25 -93 13 -289 -180 l-180 -178 -50
35 c-339 233 -793 430 -1195 518 -69 15 -131 29 -137 31 -10 3 -13 60 -13 246
0 365 16 349 -362 351 -145 1 -406 0 -580 -3z m680 -505 c2 -213 4 -243 20
-264 33 -45 66 -61 157 -77 471 -82 942 -278 1337 -557 102 -71 147 -87 204
-73 18 5 93 72 199 177 l171 169 284 -285 284 -285 -172 -173 c-190 -190 -204
-212 -179 -284 7 -22 34 -68 59 -104 116 -164 260 -435 341 -639 87 -222 137
-399 191 -682 29 -153 40 -158 345 -158 l231 0 0 -400 0 -400 -225 0 c-322 0
-320 1 -364 -226 -77 -401 -232 -774 -465 -1123 -166 -250 -169 -236 83 -486
l141 -140 -287 -287 -287 -287 -171 168 c-149 148 -175 169 -210 175 -49 8
-82 -3 -144 -48 -87 -64 -315 -197 -449 -262 -188 -92 -537 -224 -591 -224 -8
0 -11 41 -9 141 l3 141 120 42 c361 128 656 292 939 522 96 79 115 98 107 112
-5 9 -46 53 -90 96 l-80 79 -33 -26 c-231 -186 -400 -297 -603 -397 -139 -67
-320 -140 -350 -140 -13 0 -15 57 -15 515 l0 515 -53 103 c-29 56 -175 338
-323 626 -236 460 -275 531 -321 577 -142 143 -381 126 -501 -36 -19 -25 -174
-318 -345 -650 l-312 -605 -3 -514 -3 -513 -25 6 c-45 12 -257 106 -354 157
-229 123 -433 273 -624 459 -450 439 -712 956 -808 1595 -20 139 -17 579 5
725 97 626 352 1136 787 1571 170 171 268 252 435 363 450 299 932 455 1460
473 790 26 1539 -281 2105 -863 647 -666 915 -1614 714 -2522 -91 -409 -292
-809 -576 -1145 l-77 -92 91 -92 c75 -75 94 -90 106 -80 30 24 177 206 249
307 630 883 715 2051 223 3045 -248 500 -589 883 -1068 1202 -408 271 -849
432 -1342 489 -201 23 -595 15 -794 -16 -981 -151 -1850 -787 -2286 -1674
-221 -450 -314 -854 -313 -1356 1 -637 173 -1176 546 -1707 334 -475 861 -880
1402 -1077 55 -20 110 -41 123 -46 21 -9 22 -14 22 -150 0 -114 -3 -140 -14
-140 -23 0 -272 89 -367 130 -201 89 -385 190 -564 310 -174 117 -168 119
-390 -100 l-170 -168 -290 284 -290 284 162 162 c89 90 166 176 172 191 26 69
18 92 -104 276 -235 354 -390 729 -470 1136 -28 140 -39 166 -88 195 -29 18
-52 20 -264 20 l-233 0 0 400 0 400 238 0 c318 0 308 -6 349 215 82 446 244
847 498 1230 74 112 85 134 85 172 0 25 -5 54 -11 66 -6 12 -86 97 -177 190
l-167 167 285 285 285 285 165 -164 c91 -90 175 -169 187 -175 30 -15 89 -14
123 4 15 8 63 40 107 71 225 162 592 345 867 433 121 39 303 84 440 110 119
22 147 36 176 84 18 29 20 52 20 270 l0 237 403 -2 402 -3 3 -240z m-390
-4053 c17 -17 132 -232 132 -246 0 -3 -81 -6 -180 -6 -99 0 -180 2 -180 5 0
15 113 228 130 245 25 25 74 26 98 2z m401 -767 c72 -140 131 -257 131 -260 0
-3 -261 -5 -580 -5 -319 0 -580 2 -580 5 0 8 88 183 182 363 l80 152 318 0
318 0 131 -255z m-581 -662 l3 -133 129 0 129 0 3 133 3 132 265 0 265 0 3
-1047 2 -1048 -270 0 -270 0 0 785 0 785 -130 0 -130 0 0 -785 0 -785 -270 0
-270 0 0 1043 c0 574 3 1047 7 1050 4 4 124 6 267 5 l261 -3 3 -132z M5510
8339 c-37 -15 -78 -58 -90 -95 -23 -68 26 -153 100 -174 132 -38 232 137 133
232 -47 44 -94 56 -143 37z M3003 7291 c-49 -23 -73 -63 -73 -123 0 -153 206
-192 266 -51 18 42 18 67 -2 109 -34 71 -117 100 -191 65z M7995 7300 c-78
-24 -119 -125 -80 -197 72 -133 282 -70 262 79 -12 92 -94 145 -182 118z
M4700 7249 c-37 -15 -68 -48 -79 -83 -6 -17 -36 -240 -66 -496 -31 -256 -83
-686 -115 -955 -33 -270 -63 -523 -66 -564 -4 -41 -10 -67 -15 -60 -4 8 -49
147 -99 309 -51 162 -99 308 -107 323 -8 15 -28 37 -46 47 -30 19 -52 20 -369
20 l-338 0 0 -130 0 -130 272 -2 271 -3 97 -310 c53 -170 114 -363 134 -427
52 -166 89 -198 231 -198 78 0 142 31 166 80 12 23 27 109 43 250 52 441 187
1574 216 1814 16 136 30 250 30 252 0 2 326 4 725 4 l725 0 0 135 0 135 -792
-1 c-502 0 -802 -4 -818 -10z M5462 6714 c-192 -42 -361 -194 -430 -385 -23
-65 -26 -93 -30 -231 l-4 -158 131 0 131 0 0 108 c0 211 58 321 203 388 53 24
68 26 145 22 102 -5 152 -27 217 -93 70 -73 90 -124 90 -235 0 -84 -3 -101
-27 -146 -41 -78 -66 -103 -272 -272 -657 -540 -616 -497 -619 -653 -2 -109
14 -149 73 -180 33 -18 67 -19 572 -19 l538 0 0 135 0 135 -427 2 -427 3 81
65 c286 230 570 469 616 519 67 73 99 127 134 227 38 111 38 252 0 370 -96
292 -395 464 -695 398z M6452 5528 l3 -133 735 -3 c404 -1 740 0 745 2 6 2 9
54 7 135 l-3 131 -745 0 -745 0 3 -132z M6450 4995 l0 -135 135 0 135 0 0 135
0 135 -135 0 -135 0 0 -135z M6990 4995 l0 -135 475 0 475 0 0 135 0 135 -475
0 -475 0 0 -135z M2013 4850 c-46 -28 -67 -65 -67 -120 0 -80 59 -140 137
-140 80 0 137 58 137 140 0 110 -115 177 -207 120z M8963 4855 c-98 -42 -96
-210 2 -251 125 -52 240 59 186 180 -33 77 -110 105 -188 71z M6457 4593 c-4
-3 -7 -64 -7 -135 l0 -128 745 0 745 0 0 135 0 135 -738 0 c-406 0 -742 -3
-745 -7z M6450 3930 l0 -130 475 0 475 0 0 130 0 130 -475 0 -475 0 0 -130z
M7670 3930 l0 -130 135 0 135 0 0 130 0 130 -135 0 -135 0 0 -130z M3011 2473
c-67 -33 -93 -132 -52 -199 38 -62 131 -82 192 -41 147 98 19 318 -140 240z
M7959 2470 c-42 -22 -69 -71 -69 -125 0 -105 124 -171 211 -112 93 62 87 189
-12 239 -44 23 -85 22 -130 -2z"/>
</g>
</svg>
