<?xml version="1.0" standalone="no"?>
<svg version="1.0" xmlns="http://www.w3.org/2000/svg"
 width="200" height="200" viewBox="0 0 1254.000000 1254.000000"
 preserveAspectRatio="xMidYMid meet">
<defs><linearGradient id="g" x1="0" y1="0" x2="1" y2="1"><stop offset="0" stop-color="#1c7e4a"/><stop offset="0.5" stop-color="#6f9a38"/><stop offset="1" stop-color="#d4a029"/></linearGradient></defs>
<g transform="translate(0.000000,1254.000000) scale(0.100000,-0.100000)"
fill="url(#g)" stroke="none">
<path d="M7450 10982 c-42 -21 -73 -75 -66 -117 2 -16 58 -169 124 -340 66
-170 128 -333 138 -361 l17 -50 -194 -189 c-107 -104 -286 -281 -399 -392
l-206 -203 -1727 0 c-1228 0 -1741 -3 -1772 -11 -55 -14 -122 -70 -146 -123
-18 -40 -19 -161 -19 -3491 0 -3326 1 -3451 19 -3490 20 -45 69 -91 118 -112
27 -11 478 -13 2656 -13 l2624 0 44 23 c57 30 104 93 118 157 8 36 11 780 11
2544 l0 2494 318 308 c174 170 367 357 428 417 l111 108 319 -121 c175 -67
322 -124 327 -129 4 -4 -85 -99 -197 -210 l-204 -204 -109 -1 c-137 -2 -198
-24 -283 -102 -104 -96 -145 -196 -138 -338 3 -71 8 -93 41 -158 44 -89 116
-161 205 -205 52 -26 66 -28 167 -28 98 0 116 3 168 27 80 38 166 122 208 206
33 65 34 71 34 182 0 120 -11 160 -72 252 l-18 28 257 257 c233 235 257 262
263 299 8 55 -1 89 -100 344 -116 301 -428 1126 -588 1555 -91 243 -143 368
-159 385 -28 28 -187 87 -1518 565 -810 290 -738 269 -800 237z m705 -460
c439 -158 866 -311 1164 -420 269 -98 275 -100 287 -133 14 -37 334 -879 550
-1447 74 -194 134 -355 134 -358 0 -9 40 -24 -1045 391 -264 101 -554 211
-644 245 -90 33 -172 65 -181 70 -9 5 -42 76 -75 162 -32 84 -105 270 -162
413 -58 143 -138 346 -178 450 -40 105 -123 319 -184 478 -61 158 -111 291
-111 296 0 11 53 -7 445 -147z m-288 -915 c311 -801 352 -902 378 -922 14 -11
106 -50 203 -86 536 -202 925 -350 938 -357 14 -8 -27 -49 -596 -599 l-85 -82
-115 66 c-223 127 -564 291 -836 399 l-110 44 -68 173 c-114 287 -283 624
-434 865 l-64 104 223 216 c123 119 276 267 339 329 63 62 117 113 120 113 3
0 51 -118 107 -263z m-925 -624 c206 -338 358 -654 488 -1011 14 -39 33 -71
49 -83 14 -10 116 -55 226 -100 225 -90 456 -200 688 -325 l157 -85 0 -2525 0
-2524 -2560 0 -2560 0 0 3373 c0 1856 3 3377 7 3380 3 4 779 7 1723 7 l1717 0
65 -107z m2916 -1757 c118 -62 138 -216 39 -303 -32 -28 -90 -53 -122 -53 -60
0 -134 50 -165 111 -45 87 -3 206 85 245 40 18 129 18 163 0z M5640 7716
c-277 -40 -529 -141 -760 -304 -122 -86 -327 -290 -413 -411 -245 -344 -362
-786 -316 -1199 82 -752 643 -1372 1389 -1534 93 -20 133 -22 355 -23 284 0
346 9 549 76 622 208 1087 762 1182 1411 23 157 16 451 -15 593 -149 698 -674
1230 -1358 1375 -129 28 -471 36 -613 16z m329 -282 c73 -55 114 -101 193
-219 50 -75 158 -272 158 -290 0 -3 -192 -5 -426 -5 l-425 0 7 23 c15 49 95
198 152 282 81 121 222 255 267 255 7 0 40 -21 74 -46z m-486 -16 c-65 -71
-193 -305 -248 -450 l-18 -48 -259 0 -260 0 40 48 c110 130 275 261 443 351
83 45 272 120 303 121 19 0 19 -1 -1 -22z m972 -29 c192 -74 360 -186 521
-347 57 -56 104 -107 104 -112 0 -6 -97 -10 -253 -10 l-254 0 -37 88 c-51 117
-118 241 -180 332 -76 111 -73 103 -35 95 19 -4 79 -25 134 -46z m-1325 -717
c0 -4 -11 -56 -25 -117 -23 -103 -48 -261 -61 -387 l-5 -58 -330 0 c-319 0
-329 1 -329 19 0 84 72 345 135 489 l28 62 293 0 c162 0 294 -3 294 -8z m1308
-87 c29 -112 58 -284 68 -392 l7 -83 -617 0 -616 0 0 45 c0 74 29 263 61 398
l31 127 521 -2 521 -3 24 -90z m836 23 c65 -142 126 -366 126 -462 l0 -36
-325 0 c-252 0 -326 3 -329 13 -2 6 -9 68 -15 137 -7 69 -23 177 -37 240 -14
63 -28 130 -31 148 l-6 32 292 0 292 0 33 -72z m-2229 -815 c9 -111 42 -313
65 -404 11 -43 20 -80 20 -83 0 -3 -133 -6 -296 -6 l-295 0 -33 73 c-59 128
-107 302 -121 435 l-7 62 330 0 330 0 7 -77z m1461 -5 c-9 -111 -33 -251 -65
-378 l-26 -105 -517 -3 c-490 -2 -518 -1 -527 16 -27 50 -82 338 -94 490 l-5
62 620 0 621 0 -7 -82z m898 40 c-25 -187 -68 -341 -127 -458 l-32 -65 -292
-3 c-231 -2 -293 0 -293 10 0 7 9 49 19 93 31 129 51 253 58 363 l6 102 334 0
333 0 -6 -42z m-2165 -830 c43 -111 149 -313 205 -391 35 -49 50 -77 41 -77
-65 0 -345 134 -474 227 -90 65 -250 215 -293 275 l-19 28 258 0 258 0 24 -62z
m1075 40 c-34 -112 -189 -354 -288 -453 -85 -84 -124 -104 -164 -84 -40 22
-147 125 -197 191 -51 68 -142 225 -179 311 l-26 57 431 0 430 0 -7 -22z m748
-15 c-53 -67 -215 -217 -292 -272 -41 -29 -112 -73 -157 -97 -82 -45 -278
-124 -308 -124 -11 0 2 25 43 88 70 103 134 223 187 350 l39 92 259 0 259 0
-30 -37z"/>
</g>
</svg>
