<?xml version="1.0" standalone="no"?>
<svg version="1.0" xmlns="http://www.w3.org/2000/svg"
 width="200" height="200" viewBox="0 0 1131.000000 944.000000"
 preserveAspectRatio="xMidYMid meet">
<defs><linearGradient id="g" x1="0" y1="0" x2="1" y2="1"><stop offset="0" stop-color="#1c7e4a"/><stop offset="0.5" stop-color="#6f9a38"/><stop offset="1" stop-color="#d4a029"/></linearGradient></defs>
<g transform="translate(0.000000,944.000000) scale(0.100000,-0.100000)"
fill="url(#g)" stroke="none">
<path d="M6793 8644 c-57 -21 -136 -93 -165 -152 -21 -43 -23 -63 -28 -257
l-5 -210 -190 -6 c-196 -6 -277 -20 -415 -70 -160 -59 -342 -183 -429 -292
l-44 -55 -83 88 c-142 148 -296 237 -529 302 l-80 22 -1750 4 c-1594 3 -1753
2 -1781 -13 -58 -31 -64 -54 -64 -243 l0 -171 -217 -3 c-215 -3 -219 -3 -269
-30 -29 -15 -68 -46 -88 -70 -72 -83 -66 189 -64 -3238 l3 -3095 21 -46 c26
-57 88 -120 146 -151 l43 -23 1960 -3 1960 -2 79 -80 c88 -88 186 -147 292
-174 91 -24 745 -24 835 -1 108 28 193 79 289 171 l87 84 2020 0 c2270 0 2069
-7 2164 78 30 27 62 68 75 97 l24 50 0 3116 0 3115 -26 52 c-28 56 -63 90
-128 125 -38 20 -57 22 -258 25 l-218 3 0 160 c0 181 -9 216 -62 249 -31 19
-50 20 -325 20 l-293 0 0 194 c0 154 -3 204 -17 246 -20 61 -87 141 -147 173
l-41 22 -1120 2 c-975 1 -1125 0 -1162 -13z m2227 -263 c7 -13 10 -374 10
-1098 0 -960 -2 -1081 -16 -1101 l-15 -22 -1059 0 -1059 0 -15 22 c-14 20 -16
141 -16 1101 0 724 3 1085 10 1098 10 19 33 19 1080 19 1047 0 1070 0 1080
-19z m-4234 -632 c238 -42 468 -188 550 -352 56 -110 54 35 54 -2784 0 -1432
-2 -2603 -4 -2603 -3 0 -33 21 -68 48 -113 85 -247 145 -425 189 -62 16 -207
17 -1740 20 l-1673 3 0 2745 0 2745 1623 0 c1090 0 1643 -3 1683 -11z m1816
-806 l3 -818 23 -46 c29 -59 84 -114 147 -147 l50 -27 1115 0 1115 0 50 25
c27 13 67 42 88 63 21 21 49 60 61 86 21 46 21 51 24 864 l2 817 210 0 210 0
0 -2745 0 -2745 -1732 -3 c-1728 -3 -1733 -3 -1830 -24 -162 -36 -327 -110
-442 -198 -26 -19 -48 -35 -51 -35 -10 0 -5 5217 5 5271 15 81 56 154 128 230
77 83 179 148 293 190 124 46 197 57 371 58 l158 1 2 -817z m-5372 -2191 l0
-2577 -85 -297 c-47 -164 -85 -309 -85 -324 0 -38 28 -90 58 -111 26 -17 107
-18 1753 -21 l1726 -2 6 -93 c4 -50 9 -102 13 -115 l6 -22 -1878 2 -1878 3
-13 25 c-17 33 -19 6060 -3 6091 10 18 23 19 195 19 l185 0 0 -2578z m9108
-475 c1 -2090 -1 -3054 -8 -3068 -11 -19 -42 -19 -1967 -19 l-1955 0 6 32 c3
17 9 69 13 115 l6 83 1794 0 c1759 0 1795 0 1832 20 40 20 71 69 71 112 0 12
-38 155 -85 317 l-85 294 0 2584 0 2583 188 -2 187 -3 3 -3048z m-5433 -2300
c141 -44 239 -100 326 -187 81 -80 117 -142 144 -245 8 -32 15 -77 15 -98 0
-38 0 -38 -37 -35 -32 3 -41 9 -60 43 -12 22 -41 62 -64 89 -40 46 -42 50 -30
80 33 82 35 93 17 140 -21 54 -56 79 -112 80 -55 1 -91 -25 -126 -94 -15 -30
-33 -57 -40 -62 -14 -8 -3578 -11 -3578 -3 0 9 60 226 76 278 l16 48 1681 -3
1682 -3 90 -28z m4849 -19 c8 -29 27 -96 41 -148 14 -52 28 -103 31 -112 5
-17 -88 -18 -1859 -18 -1763 0 -1865 1 -1879 18 -9 9 -25 35 -36 57 -37 74
-94 103 -163 85 -76 -21 -104 -97 -69 -190 l23 -61 -31 -32 c-16 -18 -46 -58
-66 -89 -33 -52 -40 -58 -71 -58 -35 0 -35 1 -35 43 0 58 25 150 58 211 39 75
163 194 247 238 88 46 186 77 289 93 62 10 475 13 1793 14 l1712 1 15 -52z
m-4720 -567 c16 -16 47 -67 70 -112 65 -131 42 -124 411 -124 370 0 345 -8
415 129 67 131 73 136 166 136 l77 0 -6 -87 c-9 -147 -64 -259 -165 -338 -92
-72 -109 -75 -487 -75 -373 0 -394 3 -481 69 -108 81 -163 191 -171 339 l-6
92 75 0 c69 0 76 -2 102 -29z M7777 7860 c-33 -26 -39 -43 -157 -460 -56 -195
-103 -362 -106 -370 -3 -8 -29 34 -62 100 -39 79 -65 119 -82 127 -16 8 -75
13 -167 13 l-143 0 0 -120 0 -120 90 0 89 0 96 -197 c53 -109 105 -208 117
-220 48 -52 139 -48 179 7 10 14 82 249 161 522 l142 498 446 2 445 3 3 118 3
117 -514 0 c-500 0 -515 -1 -540 -20z M8054 7411 c-18 -11 -38 -36 -48 -60
-14 -37 -15 -45 -1 -77 8 -20 55 -83 105 -140 49 -58 90 -108 90 -112 0 -4
-42 -54 -91 -112 -50 -58 -98 -120 -106 -138 -25 -59 13 -128 84 -152 51 -18
90 6 187 119 l87 101 80 -95 c91 -108 118 -129 165 -129 67 0 116 50 116 121
0 41 -14 63 -119 184 -46 53 -83 99 -83 102 0 4 34 45 75 92 116 134 128 151
128 193 0 49 -16 78 -56 102 -39 24 -80 25 -115 4 -15 -9 -63 -58 -107 -110
-44 -52 -82 -94 -85 -94 -4 0 -44 46 -90 101 -47 56 -95 105 -108 110 -37 14
-74 11 -108 -10z M2398 7203 l-378 -3 0 -130 0 -130 1415 0 1415 0 0 130 0
130 -137 1 c-856 3 -2014 4 -2315 2z M2020 6540 l0 -130 445 0 445 0 0 130 0
130 -445 0 -445 0 0 -130z M3180 6540 l0 -130 835 0 835 0 0 130 0 130 -835 0
-835 0 0 -130z M2020 6010 l0 -130 900 0 900 0 0 130 0 130 -900 0 -900 0 0
-130z M2084 5591 c-45 -27 -64 -59 -64 -107 0 -113 136 -175 214 -97 14 14 31
42 37 63 10 31 8 44 -9 82 -31 72 -113 99 -178 59z M2723 5590 c-136 -83 -24
-293 120 -225 48 23 71 60 71 116 0 101 -105 162 -191 109z M3363 5590 c-60
-36 -79 -106 -45 -169 53 -99 202 -86 234 20 34 114 -88 211 -189 149z M2093
5065 c-18 -8 -42 -29 -53 -47 -20 -33 -20 -48 -20 -1107 0 -1059 0 -1074 20
-1106 43 -69 -50 -65 1362 -65 1222 0 1274 1 1301 19 84 55 84 144 1 222 -75
70 -2479 2073 -2504 2086 -32 16 -66 16 -107 -2z m822 -921 c820 -683 1338
-1116 1355 -1131 12 -11 -104 -13 -727 -13 l-742 0 -3 218 c-3 241 -6 253 -71
292 -29 18 -51 20 -239 20 l-208 0 0 571 0 571 48 -39 c26 -22 290 -242 587
-489z m-375 -1009 l0 -135 -130 0 -130 0 0 135 0 135 130 0 130 0 0 -135z
M6177 5643 c-4 -3 -7 -62 -7 -130 l0 -123 1555 0 1555 0 0 130 0 130 -1548 0
c-852 0 -1552 -3 -1555 -7z M6170 4990 l0 -130 770 0 770 0 0 130 0 130 -770
0 -770 0 0 -130z M7970 4990 l0 -130 655 0 655 0 0 130 0 130 -655 0 -655 0 0
-130z M6177 4583 c-4 -3 -7 -62 -7 -130 l0 -123 505 0 505 0 0 130 0 130 -498
0 c-274 0 -502 -3 -505 -7z M7440 4460 l0 -130 920 0 920 0 0 130 0 130 -920
0 -920 0 0 -130z M6170 3930 l0 -130 770 0 770 0 0 130 0 130 -770 0 -770 0 0
-130z M8490 4044 c-211 -45 -402 -220 -476 -436 -26 -74 -29 -97 -29 -208 0
-102 4 -138 22 -195 52 -163 185 -321 335 -394 189 -94 383 -94 577 -1 162 78
300 250 345 431 36 147 13 331 -61 472 -56 107 -173 221 -283 276 -139 68
-284 87 -430 55z m301 -281 c159 -74 259 -259 229 -425 -21 -117 -70 -197
-161 -264 -129 -95 -310 -98 -446 -7 -60 40 -100 87 -140 164 -26 49 -28 63
-28 164 0 103 2 114 31 175 51 106 145 186 253 217 76 21 187 11 262 -24z
M6170 3400 l0 -130 770 0 770 0 0 130 0 130 -770 0 -770 0 0 -130z M6170 2870
l0 -130 770 0 770 0 0 130 0 130 -770 0 -770 0 0 -130z"/>
</g>
</svg>
