<?xml version="1.0" standalone="no"?>
<svg version="1.0" xmlns="http://www.w3.org/2000/svg"
 width="200" height="200" viewBox="0 0 992.000000 1077.000000"
 preserveAspectRatio="xMidYMid meet">
<defs><linearGradient id="g" x1="0" y1="0" x2="1" y2="1"><stop offset="0" stop-color="#1c7e4a"/><stop offset="0.5" stop-color="#6f9a38"/><stop offset="1" stop-color="#d4a029"/></linearGradient></defs>
<g transform="translate(0.000000,1077.000000) scale(0.100000,-0.100000)"
fill="url(#g)" stroke="none">
<path d="M2069 8106 c-105 -28 -199 -115 -239 -223 -20 -54 -20 -54 -18 -3196
l3 -3142 24 -52 c29 -64 94 -126 169 -161 l57 -27 2135 0 2135 0 47 22 c53 24
128 90 158 138 l20 33 103 -52 c56 -29 140 -64 187 -79 166 -53 222 -61 420
-61 169 0 195 2 293 27 285 71 492 190 692 398 380 394 480 971 257 1488 -113
261 -350 513 -611 650 -197 103 -399 151 -631 151 -223 0 -422 -46 -609 -140
l-81 -40 0 1030 c0 822 3 1030 13 1024 6 -5 39 -28 72 -52 81 -59 260 -146
366 -176 218 -62 469 -62 688 0 117 33 309 129 406 202 468 354 629 972 393
1509 -160 368 -507 645 -903 724 -45 9 -134 14 -250 13 -151 0 -195 -4 -269
-22 -167 -42 -318 -111 -448 -207 l-73 -53 -17 49 c-24 69 -72 133 -133 174
-101 70 70 65 -2229 64 -1627 0 -2091 -3 -2127 -13z m4242 -255 c42 -42 41
-37 40 -194 0 -63 -3 -73 -46 -142 -191 -306 -234 -720 -109 -1065 31 -88 73
-173 121 -249 l35 -54 -1 -1240 -2 -1241 -80 -83 c-232 -242 -359 -568 -359
-922 0 -365 122 -666 384 -947 36 -40 66 -78 66 -84 0 -23 -39 -77 -65 -88
-20 -9 -526 -12 -2102 -13 -2022 0 -2077 0 -2102 18 -14 11 -34 35 -44 54 -16
32 -17 196 -15 3119 3 3008 3 3086 22 3113 41 60 -116 56 2145 57 l2073 0 39
-39z m949 -152 l0 -171 -54 6 c-64 8 -156 32 -167 43 -15 15 84 174 145 234
32 33 63 59 67 59 5 0 9 -77 9 -171z m304 119 c52 -53 113 -144 141 -211 l14
-35 -62 -15 c-34 -9 -86 -19 -114 -23 l-53 -7 0 172 c0 114 4 171 11 171 6 0
34 -24 63 -52z m-716 -103 c-23 -48 -33 -53 -62 -32 -17 12 -14 16 30 45 27
17 50 32 51 32 2 0 -7 -20 -19 -45z m1117 -32 c-29 -20 -40 -16 -58 22 -26 55
-21 59 30 24 43 -30 45 -33 28 -46z m-1292 -196 c37 -21 67 -45 67 -52 0 -8
-7 -40 -15 -72 -21 -80 -55 -289 -55 -340 l0 -43 -155 0 -155 0 0 28 c0 43 36
175 70 256 46 111 149 273 168 264 4 -2 37 -20 75 -41z m1523 0 c86 -118 152
-262 178 -390 27 -129 40 -118 -136 -115 l-153 3 -7 85 c-7 71 -23 158 -65
356 -4 17 8 28 64 61 37 23 73 41 78 42 6 0 24 -19 41 -42z m-1162 -143 c33
-9 97 -22 141 -28 l80 -12 3 -162 2 -162 -185 0 -185 0 0 23 c2 91 55 357 72
357 6 0 38 -7 72 -16z m775 -21 c17 -64 39 -194 47 -270 l7 -73 -187 0 -186 0
0 160 c0 158 0 160 23 164 12 2 65 12 117 21 52 9 104 21 115 25 41 17 54 11
64 -27z m-1132 -681 c7 -62 24 -163 38 -225 28 -124 29 -137 16 -137 -6 0 -37
-16 -70 -35 -32 -19 -62 -35 -65 -35 -13 0 -100 129 -136 200 -45 90 -87 220
-96 296 l-7 55 154 -3 153 -3 13 -113z m583 -46 l0 -163 -63 -6 c-35 -3 -103
-16 -151 -28 -72 -18 -89 -20 -96 -9 -11 18 -48 216 -56 303 l-7 67 187 0 186
0 0 -164z m596 84 c-7 -87 -44 -280 -55 -293 -4 -4 -45 1 -90 12 -46 11 -114
23 -152 27 l-69 7 0 163 0 164 186 0 187 0 -7 -80z m536 45 c-8 -80 -48 -210
-93 -300 -45 -92 -125 -214 -140 -215 -4 0 -39 19 -78 42 -51 29 -70 45 -66
56 15 39 55 266 60 342 4 47 8 91 11 98 3 10 39 12 156 10 l153 -3 -3 -30z
m-1132 -685 c0 -195 3 -191 -82 -103 -51 53 -138 187 -138 214 0 11 14 20 43
28 70 19 121 29 150 30 l27 1 0 -170z m364 150 c49 -11 91 -22 93 -24 7 -6
-45 -104 -88 -167 -36 -54 -113 -129 -131 -129 -4 0 -8 77 -8 170 0 198 -14
183 134 150z m-776 -165 c12 -25 19 -45 16 -45 -3 0 -26 14 -51 32 -43 29 -45
32 -28 45 30 21 40 16 63 -32z m1116 32 c17 -13 15 -16 -25 -45 -24 -18 -46
-32 -51 -32 -4 0 2 20 14 45 23 48 33 53 62 32z m-515 -2272 c241 -39 442
-144 622 -324 219 -220 331 -491 332 -801 0 -189 -39 -347 -127 -517 -44 -84
-140 -223 -154 -223 -4 0 -17 27 -28 59 -60 165 -225 358 -377 441 l-78 42 50
53 c91 96 141 229 141 377 0 194 -88 362 -244 466 -111 74 -186 97 -321 96
-92 -1 -121 -5 -177 -26 -186 -70 -310 -200 -364 -383 -26 -87 -24 -230 4
-320 23 -77 79 -169 136 -227 l37 -36 -68 -36 c-95 -50 -179 -121 -253 -213
-57 -70 -136 -212 -154 -274 -6 -24 -7 -23 -42 16 -91 104 -178 278 -220 443
-127 495 128 1046 591 1276 224 112 457 149 694 111z m-36 -584 c64 -31 129
-99 164 -169 24 -49 28 -69 28 -142 0 -73 -4 -93 -29 -144 -34 -69 -91 -128
-161 -164 -44 -24 -62 -27 -145 -27 -85 0 -101 3 -148 28 -112 59 -181 163
-190 287 -11 153 78 289 226 345 58 23 195 15 255 -14z m37 -906 c224 -68 395
-245 460 -475 l20 -75 -26 -21 c-43 -35 -197 -113 -275 -139 -113 -39 -220
-55 -359 -55 -139 0 -246 16 -359 55 -78 26 -233 104 -275 139 l-26 21 15 65
c59 248 268 447 525 500 64 13 235 4 300 -15z M3880 7659 c-217 -25 -424 -144
-545 -313 -90 -126 -142 -260 -152 -390 l-5 -71 -293 -295 c-161 -162 -298
-305 -304 -317 -26 -52 3 -133 57 -154 15 -6 117 -39 227 -73 l200 -62 75
-220 c42 -120 81 -229 88 -240 6 -12 28 -29 48 -39 72 -34 77 -31 399 288
l294 292 293 -292 c323 -321 327 -324 403 -287 45 21 47 25 138 288 l72 209
220 69 c131 42 229 78 242 90 26 24 38 75 28 115 -4 18 -111 133 -306 329
l-299 300 0 45 c0 45 -22 151 -42 204 -110 294 -351 486 -659 525 -46 5 -88 9
-94 9 -5 -1 -44 -5 -85 -10z m263 -248 c252 -88 413 -328 393 -584 -21 -255
-206 -462 -461 -514 -148 -30 -301 4 -433 97 -196 137 -282 384 -216 620 53
188 226 352 417 396 83 19 224 12 300 -15z m-879 -896 c78 -157 202 -280 364
-360 l75 -37 -164 -164 c-90 -90 -166 -160 -170 -156 -4 4 -31 80 -59 169 -39
120 -59 167 -78 186 -18 16 -78 40 -182 71 -85 27 -157 50 -160 52 -2 3 70 79
160 169 90 90 165 163 166 162 2 -1 23 -43 48 -92z m1783 -241 c-2 -2 -75 -27
-162 -54 -87 -27 -167 -58 -177 -68 -11 -10 -44 -90 -73 -178 -30 -87 -57
-166 -60 -173 -4 -10 -58 37 -170 149 -91 91 -165 167 -165 170 0 3 31 18 68
35 155 69 296 210 375 373 l40 83 165 -166 c90 -91 162 -168 159 -171z M2308
5139 c-85 -63 -40 -199 67 -199 54 0 91 28 106 80 14 47 0 90 -39 120 -33 26
-98 26 -134 -1z M2772 5147 c-70 -40 -76 -147 -9 -187 31 -20 65 -20 1655 -20
1428 0 1627 2 1652 15 38 20 50 43 50 97 0 45 -19 78 -57 97 -33 17 -3260 15
-3291 -2z M2335 4701 c-60 -26 -87 -106 -56 -164 26 -49 68 -59 226 -55 126 3
146 5 165 23 57 50 58 125 4 176 -24 23 -33 24 -172 26 -81 1 -156 -1 -167 -6z
M3003 4694 c-31 -16 -63 -66 -63 -99 0 -34 32 -84 65 -99 30 -14 187 -16 1530
-16 1621 0 1531 -3 1569 52 27 38 21 103 -13 140 l-29 33 -1514 2 c-1359 2
-1516 1 -1545 -13z M2307 4230 c-34 -27 -48 -79 -36 -125 28 -99 169 -102 209
-5 17 41 0 101 -37 129 -35 28 -101 28 -136 1z M2749 4219 c-36 -39 -42 -88
-17 -137 28 -55 -64 -52 1688 -52 1426 0 1625 2 1650 15 38 20 50 43 50 100 0
38 -5 52 -29 76 l-29 29 -1642 0 -1642 0 -29 -31z M2322 3787 c-54 -31 -73
-109 -39 -161 35 -53 56 -56 429 -56 204 0 358 4 380 10 80 23 106 119 49 182
l-29 33 -384 2 c-295 2 -388 0 -406 -10z M3463 3790 c-29 -12 -63 -67 -63
-102 0 -38 19 -75 49 -95 24 -17 102 -18 1291 -21 879 -2 1276 0 1302 8 52 15
78 52 78 109 0 49 -18 80 -57 100 -27 14 -2566 15 -2600 1z M2555 3339 c-114
-11 -210 -82 -262 -194 l-28 -60 0 -535 c0 -533 0 -535 23 -591 27 -67 94
-138 160 -171 l47 -23 1475 0 1475 0 43 23 c66 35 119 88 149 150 l28 57 0
555 0 555 -28 57 c-33 68 -90 121 -166 156 l-56 26 -1400 1 c-770 0 -1427 -3
-1460 -6z m2835 -234 c60 -31 60 -27 60 -555 0 -528 0 -524 -60 -555 -26 -13
-191 -15 -1436 -13 l-1406 3 -29 33 -29 32 0 499 c0 494 0 499 21 525 12 15
31 32 43 36 11 5 648 9 1414 9 1226 1 1397 -1 1422 -14z M3005 2940 c-187 -28
-280 -257 -167 -409 l26 -34 -25 -16 c-113 -74 -203 -237 -164 -298 35 -53 97
-32 115 40 41 160 232 240 385 162 66 -34 105 -80 133 -160 23 -65 57 -87 96
-62 36 24 35 82 -3 162 -26 56 -98 135 -145 162 -18 10 -18 12 6 44 34 46 48
91 48 156 0 158 -143 277 -305 253z m113 -140 c39 -24 72 -75 72 -113 0 -86
-87 -157 -172 -140 -67 13 -121 100 -104 167 8 31 53 85 80 96 37 15 90 11
124 -10z M3923 2939 c-126 -23 -212 -124 -213 -250 0 -67 14 -112 48 -158 l26
-34 -25 -16 c-88 -57 -157 -154 -173 -244 -6 -31 -3 -41 18 -62 14 -14 31 -25
38 -25 28 0 58 32 69 72 35 133 178 219 313 189 102 -23 180 -96 207 -196 18
-65 81 -82 115 -30 39 59 -48 216 -165 297 -23 16 -24 19 -8 35 33 37 57 107
57 169 0 160 -147 282 -307 253z m137 -154 c69 -67 59 -179 -21 -221 -43 -22
-121 -18 -154 8 -31 24 -55 74 -55 114 0 39 39 101 74 119 47 24 120 15 156
-20z M4773 2919 c-83 -40 -153 -148 -153 -234 0 -40 30 -124 55 -153 14 -17
25 -32 25 -34 0 -3 -22 -19 -49 -37 -83 -53 -164 -198 -147 -264 3 -15 18 -30
36 -37 41 -17 76 6 86 55 3 19 19 55 35 79 121 192 421 148 485 -71 19 -65 46
-83 90 -61 27 13 29 18 28 64 -2 83 -61 181 -142 235 -26 18 -49 34 -51 36 -3
2 5 13 16 26 41 45 57 89 57 162 0 52 -6 80 -21 110 -27 52 -88 110 -135 130
-54 22 -163 19 -215 -6z m184 -119 c72 -44 85 -153 25 -213 -26 -26 -40 -31
-90 -35 -57 -4 -62 -2 -97 30 -32 29 -38 42 -42 84 -9 89 47 154 132 154 22 0
54 -9 72 -20z"/>
</g>
</svg>
