<?xml version="1.0" standalone="no"?>
<svg version="1.0" xmlns="http://www.w3.org/2000/svg"
 width="200" height="200" viewBox="0 0 1254.000000 1254.000000"
 preserveAspectRatio="xMidYMid meet">
<defs><linearGradient id="g" x1="0" y1="0" x2="1" y2="1"><stop offset="0" stop-color="#1c7e4a"/><stop offset="0.5" stop-color="#6f9a38"/><stop offset="1" stop-color="#d4a029"/></linearGradient></defs>
<g transform="translate(0.000000,1254.000000) scale(0.100000,-0.100000)"
fill="url(#g)" stroke="none">
<path d="M6370 10621 c-2741 -6 -2857 -7 -2910 -24 -114 -39 -192 -88 -281
-177 -68 -68 -94 -103 -123 -163 -71 -151 -66 150 -68 -3533 l-3 -3329 -492 0
c-483 0 -492 0 -520 -21 -52 -38 -55 -66 -50 -444 5 -386 7 -404 78 -541 74
-141 200 -252 352 -308 l72 -26 3109 -3 3109 -2 78 21 c214 58 390 243 434
457 13 61 15 182 13 777 l-3 703 -24 26 c-43 46 -116 47 -168 2 l-28 -24 -5
-719 -5 -718 -23 -57 c-33 -81 -108 -160 -190 -200 -66 -33 -69 -33 -207 -33
-137 0 -142 1 -207 32 -116 55 -194 156 -218 282 -5 29 -10 200 -10 378 0 355
-3 376 -58 404 -23 12 -398 14 -2412 15 l-2385 0 -3 3309 c-2 3003 -1 3315 14
3365 41 142 133 241 272 293 l57 22 2747 0 c1512 0 2748 -1 2748 -3 0 -2 -11
-18 -24 -35 -35 -45 -82 -150 -103 -227 -17 -60 -18 -128 -18 -866 0 -647 3
-806 13 -826 29 -54 104 -73 163 -42 57 29 59 44 59 484 l0 400 526 0 526 0
34 34 34 34 0 363 c0 327 -2 372 -20 438 -29 112 -72 191 -152 276 -82 87
-172 145 -285 183 -97 32 193 30 -3443 23z m3325 -232 c132 -24 245 -111 306
-234 l34 -70 3 -292 3 -293 -445 0 -446 0 0 263 c0 295 7 342 63 430 100 156
287 232 482 196z m-1842 -7531 c4 -318 7 -340 57 -453 12 -27 32 -64 46 -82
13 -17 24 -34 24 -37 0 -11 -5434 -7 -5491 4 -127 24 -236 109 -292 228 l-32
67 -3 288 -3 287 2845 0 2844 0 5 -302z M4875 8934 c-686 -253 -911 -337 -938
-351 -58 -30 -71 -125 -24 -177 13 -15 87 -52 177 -90 l155 -65 5 -219 c4
-169 8 -223 19 -236 20 -24 65 -46 94 -46 l25 0 5 -217 c4 -186 8 -229 26
-293 26 -86 90 -218 132 -272 l29 -36 -57 -7 c-210 -24 -354 -133 -425 -321
l-23 -59 -3 -990 c-2 -687 0 -1001 8 -1027 6 -20 22 -46 37 -57 26 -21 32 -21
1075 -21 l1050 0 34 34 34 34 0 996 c0 699 -3 1011 -11 1048 -39 183 -202 329
-400 360 l-76 11 44 63 c57 81 95 168 122 273 18 72 21 114 21 283 l0 198 38
0 c46 0 99 31 112 66 6 14 10 117 10 229 l0 203 93 36 93 36 162 0 162 0 0
-314 0 -314 -55 -31 c-113 -64 -171 -175 -163 -315 9 -162 112 -275 278 -306
217 -41 419 163 380 381 -20 111 -74 189 -167 241 l-53 30 0 392 c0 346 -2
394 -16 415 -28 40 -73 51 -204 51 -105 0 -124 3 -148 20 -15 11 -263 106
-552 211 -708 257 -741 269 -770 268 -14 0 -164 -52 -335 -115z m627 -223
c150 -55 353 -128 450 -163 98 -35 178 -65 178 -68 0 -3 -29 -16 -65 -28 -41
-15 -74 -35 -90 -54 -25 -29 -25 -31 -25 -224 l0 -194 -740 0 -740 0 0 190 c0
226 -3 235 -85 274 -30 14 -61 26 -67 26 -27 0 12 20 107 54 55 19 249 91 430
160 182 68 340 124 352 125 12 0 144 -44 295 -98z m283 -1156 c0 -167 -3 -199
-22 -260 -58 -185 -211 -342 -388 -398 -98 -31 -252 -31 -350 0 -169 53 -312
193 -377 369 -20 52 -23 83 -26 272 l-4 212 584 -2 583 -3 0 -190z m1063 -95
c112 -69 23 -240 -99 -189 -35 14 -69 62 -69 97 0 52 58 111 110 112 14 0 40
-9 58 -20z m-1906 -1078 c174 -356 182 -367 260 -359 26 2 54 10 63 17 9 7 88
159 175 338 l159 324 153 -4 c127 -3 160 -7 193 -23 52 -25 111 -87 127 -133
10 -29 13 -224 13 -952 l0 -915 -892 -3 -893 -2 0 908 c0 560 4 920 10 941 14
49 57 108 98 133 64 40 102 47 243 48 l136 0 155 -318z m378 262 c0 -1 -29
-60 -64 -130 l-63 -129 -62 122 c-33 68 -61 126 -61 130 0 5 56 8 125 8 69 0
125 0 125 -1z M7557 7760 c-36 -29 -52 -81 -37 -125 6 -19 23 -44 37 -55 25
-20 38 -20 1208 -20 l1183 0 32 37 c29 32 32 41 27 82 -4 34 -12 52 -36 73
l-31 28 -1179 0 c-1166 0 -1179 0 -1204 -20z M7580 7183 c-50 -26 -76 -82 -61
-133 6 -22 23 -48 38 -59 26 -21 31 -21 1204 -21 l1179 0 32 29 c29 26 33 35
33 80 0 44 -4 55 -33 83 l-32 33 -1163 3 c-1091 2 -1164 1 -1197 -15z M7568
6593 c-62 -39 -71 -125 -19 -177 l31 -31 1166 -3 c1065 -2 1168 -1 1200 14 59
28 80 94 49 154 -33 64 40 60 -1237 60 -1067 -1 -1165 -2 -1190 -17z M7580
5993 c-21 -11 -42 -33 -54 -56 -25 -52 -10 -109 37 -138 31 -19 56 -19 1209
-17 l1178 3 27 28 c23 23 28 36 28 77 0 43 -5 54 -33 82 l-32 33 -1163 3
c-1092 2 -1164 1 -1197 -15z M7557 5379 c-39 -30 -53 -85 -34 -131 31 -74 -33
-69 924 -69 472 0 1001 0 1175 0 l318 1 32 29 c29 26 33 35 33 81 0 46 -4 55
-33 81 l-32 29 -1179 0 c-1173 0 -1178 0 -1204 -21z M7557 4790 c-57 -45 -56
-138 3 -180 28 -20 42 -20 812 -20 754 0 784 1 814 19 63 38 66 134 7 181 -25
20 -39 20 -818 20 -779 0 -793 0 -818 -20z M9468 4781 c-29 -26 -33 -35 -33
-81 0 -46 4 -55 33 -81 l32 -29 221 0 221 0 35 35 c33 33 35 39 30 82 -4 37
-12 54 -36 75 l-31 28 -220 0 -220 0 -32 -29z"/>
</g>
</svg>
