<svg width="54" height="54" viewBox="0 0 54 54" fill="none" xmlns="http://www.w3.org/2000/svg">
<path d="M33.6503 18.0388C33.6503 16.1811 33.0295 14.6889 31.7879 13.5624C30.5459 12.4363 28.9065 11.8732 26.8699 11.8732C25.5807 11.8732 24.4377 12.1363 23.4409 12.6624C22.4442 13.1889 21.5837 13.9815 20.8596 15.0401C20.4329 15.6431 19.8625 15.9994 19.1485 16.1089C18.4349 16.2187 17.811 16.0444 17.277 15.5857C16.8822 15.2422 16.6566 14.8117 16.6003 14.2942C16.5441 13.7764 16.6645 13.2851 16.9615 12.8205C18.1037 11.0929 19.5165 9.77905 21.1999 8.87905C22.8829 7.97905 24.7729 7.52905 26.8699 7.52905C30.219 7.52905 32.9451 8.48812 35.0481 10.4062C37.1507 12.3244 38.202 14.8224 38.202 17.9004C38.202 19.5302 37.8531 21.0236 37.1552 22.3807C36.457 23.7382 35.2671 25.1987 33.5856 26.7621C32.0106 28.1901 30.936 29.349 30.3619 30.2389C29.7878 31.1287 29.4546 32.1289 29.3624 33.2392C29.2701 33.8797 29.0048 34.4134 28.5664 34.8401C28.1277 35.2672 27.5997 35.4808 26.9824 35.4808C26.3652 35.4808 25.8374 35.2695 25.399 34.8469C24.9606 34.4242 24.7414 33.9043 24.7414 33.2871C24.7414 31.7814 25.0853 30.4048 25.773 29.1572C26.4612 27.9096 27.613 26.5674 29.2285 25.1308C30.9535 23.6166 32.1216 22.353 32.7329 21.3401C33.3445 20.3276 33.6503 19.2272 33.6503 18.0388ZM26.8699 48.375C25.9497 48.375 25.1571 48.0426 24.4922 47.3777C23.8274 46.7128 23.4949 45.9202 23.4949 45C23.4949 44.0797 23.8274 43.2872 24.4922 42.6223C25.1571 41.9574 25.9497 41.625 26.8699 41.625C27.7902 41.625 28.5827 41.9574 29.2476 42.6223C29.9125 43.2872 30.2449 44.0797 30.2449 45C30.2449 45.9202 29.9125 46.7128 29.2476 47.3777C28.5827 48.0426 27.7902 48.375 26.8699 48.375Z" fill="#FFBCF9"/>
</svg>
