<svg width="54" height="54" viewBox="0 0 54 54" fill="none" xmlns="http://www.w3.org/2000/svg">
<path d="M14.4994 37.8732C13.836 37.5042 13.316 37.0062 12.9395 36.3792C12.563 35.7522 12.3748 35.0489 12.3748 34.2693V24.5077L7.8838 22.0242C7.51442 21.8135 7.2433 21.5572 7.07042 21.2553C6.89717 20.9538 6.81055 20.6185 6.81055 20.2495C6.81055 19.8805 6.89717 19.5455 7.07042 19.2443C7.2433 18.9428 7.51442 18.6867 7.8838 18.476L25.0625 9.11597C25.3674 8.94647 25.68 8.82197 26.0002 8.74247C26.3205 8.66334 26.6537 8.62378 26.9998 8.62378C27.3459 8.62378 27.6791 8.66334 27.9994 8.74247C28.3196 8.82197 28.6325 8.94628 28.9382 9.1154L48.3399 19.6747C48.686 19.8622 48.9515 20.1157 49.1364 20.4352C49.3209 20.755 49.4132 21.1 49.4132 21.4702V34.7452C49.4132 35.2233 49.2514 35.6242 48.9277 35.9478C48.6041 36.271 48.2032 36.4327 47.7251 36.4327C47.2466 36.4327 46.8459 36.271 46.523 35.9478C46.1998 35.6242 46.0382 35.2233 46.0382 34.7452V22.1193L41.6248 24.5077V34.2693C41.6248 35.0489 41.4365 35.7522 41.06 36.3792C40.6835 37.0062 40.1636 37.5042 39.5002 37.8732L28.9427 43.5809C28.634 43.7538 28.3196 43.88 27.9994 43.9595C27.6791 44.0386 27.3459 44.0782 26.9998 44.0782C26.6537 44.0782 26.3205 44.0386 26.0002 43.9595C25.68 43.88 25.3655 43.7538 25.0569 43.5809L14.4994 37.8732ZM26.7399 28.4452C26.8412 28.5029 26.9314 28.5318 27.0105 28.5318C27.09 28.5318 27.1802 28.5029 27.281 28.4452L42.3909 20.2501L27.281 12.0764C27.1802 12.0187 27.09 11.9898 27.0105 11.9898C26.9314 11.9898 26.8412 12.0187 26.7399 12.0764L11.6087 20.2501L26.7399 28.4452ZM26.7185 40.6598C26.8194 40.7176 26.9132 40.7465 26.9998 40.7465C27.0864 40.7465 27.1802 40.7176 27.281 40.6598L37.9252 34.9094C38.0407 34.8374 38.1236 34.7545 38.1739 34.6608C38.2245 34.567 38.2498 34.448 38.2498 34.3036V26.3077L28.977 31.4005C28.6684 31.5734 28.3483 31.6996 28.0168 31.7791C27.6849 31.8586 27.3459 31.8983 26.9998 31.8983C26.6537 31.8983 26.3147 31.8586 25.9828 31.7791C25.6513 31.6996 25.3312 31.5734 25.0226 31.4005L15.7498 26.3077V34.3036C15.7498 34.4191 15.7751 34.531 15.8257 34.6394C15.876 34.7474 15.9589 34.8374 16.0744 34.9094L26.7185 40.6598Z" fill="#3884A5"/>
</svg>
