<svg width="54" height="54" viewBox="0 0 54 54" fill="none" xmlns="http://www.w3.org/2000/svg">
<path d="M18.6671 46.692C16.0657 45.57 13.803 44.0473 11.8789 42.1239C9.95475 40.2006 8.43131 37.9387 7.30856 35.3385C6.18619 32.7382 5.625 29.9601 5.625 27.0039C5.625 24.0474 6.186 21.2685 7.308 18.6671C8.43 16.0657 9.95269 13.803 11.8761 11.8789C13.7994 9.95475 16.0613 8.43131 18.6615 7.30856C21.2618 6.18619 24.0399 5.625 26.9961 5.625C29.9526 5.625 32.7315 6.186 35.3329 7.308C37.9342 8.43 40.197 9.95269 42.1211 11.8761C44.0452 13.7994 45.5687 16.0613 46.6914 18.6615C47.8138 21.2618 48.375 24.0399 48.375 26.9961C48.375 29.9526 47.814 32.7315 46.692 35.3329C45.57 37.9342 44.0473 40.197 42.1239 42.1211C40.2006 44.0452 37.9387 45.5687 35.3385 46.6914C32.7382 47.8138 29.9601 48.375 27.0039 48.375C24.0474 48.375 21.2685 47.814 18.6671 46.692ZM39.7687 39.7687C43.2562 36.2812 45 32.025 45 27C45 21.975 43.2562 17.7188 39.7687 14.2312C36.2812 10.7438 32.025 9 27 9C21.975 9 17.7188 10.7438 14.2312 14.2312C10.7438 17.7188 9 21.975 9 27C9 32.025 10.7438 36.2812 14.2312 39.7687C17.7188 43.2562 21.975 45 27 45C32.025 45 36.2812 43.2562 39.7687 39.7687ZM18.2379 35.7671C15.8293 33.3619 14.625 30.4412 14.625 27.0051C14.625 23.5689 15.8276 20.6466 18.2329 18.2379C20.6381 15.8293 23.5588 14.625 26.9949 14.625C30.4311 14.625 33.3534 15.8276 35.7621 18.2329C38.1707 20.6381 39.375 23.5588 39.375 26.9949C39.375 30.4311 38.1724 33.3534 35.7671 35.7621C33.3619 38.1707 30.4412 39.375 27.0051 39.375C23.5689 39.375 20.6466 38.1724 18.2379 35.7671ZM33.3562 33.3562C35.1187 31.5938 36 29.475 36 27C36 24.525 35.1187 22.4062 33.3562 20.6437C31.5938 18.8812 29.475 18 27 18C24.525 18 22.4062 18.8812 20.6437 20.6437C18.8812 22.4062 18 24.525 18 27C18 29.475 18.8812 31.5938 20.6437 33.3562C22.4062 35.1187 24.525 36 27 36C29.475 36 31.5938 35.1187 33.3562 33.3562ZM24.6223 29.3777C23.9574 28.7128 23.625 27.9202 23.625 27C23.625 26.0798 23.9574 25.2872 24.6223 24.6223C25.2872 23.9574 26.0798 23.625 27 23.625C27.9202 23.625 28.7128 23.9574 29.3777 24.6223C30.0426 25.2872 30.375 26.0798 30.375 27C30.375 27.9202 30.0426 28.7128 29.3777 29.3777C28.7128 30.0426 27.9202 30.375 27 30.375C26.0798 30.375 25.2872 30.0426 24.6223 29.3777Z" fill="#16AB11"/>
</svg>
