<svg width="54" height="54" viewBox="0 0 54 54" fill="none" xmlns="http://www.w3.org/2000/svg">
<path d="M32.3803 32.6143C32.7913 32.2033 32.9968 31.7222 32.9968 31.1709C32.9968 30.6201 32.7913 30.1391 32.3803 29.7281C31.9693 29.3171 31.4884 29.1116 30.9375 29.1116C30.3866 29.1116 29.9057 29.3171 29.4947 29.7281C29.0833 30.1391 28.8776 30.6201 28.8776 31.1709C28.8776 31.7222 29.0833 32.2033 29.4947 32.6143C29.9057 33.0253 30.3866 33.2308 30.9375 33.2308C31.4884 33.2308 31.9693 33.0253 32.3803 32.6143ZM30.9375 26.4634C31.278 26.4634 31.5866 26.3422 31.8634 26.1C32.1401 25.8577 32.3089 25.5506 32.3696 25.1786C32.4446 24.6562 32.6111 24.2004 32.8691 23.8112C33.1275 23.4216 33.6114 22.8864 34.3209 22.2058C35.3593 21.2106 36.066 20.3696 36.441 19.683C36.816 18.9967 37.0035 18.1993 37.0035 17.2907C37.0035 15.6894 36.4382 14.3689 35.3076 13.329C34.1769 12.2891 32.7202 11.7692 30.9375 11.7692C29.7866 11.7692 28.7338 12.036 27.7791 12.5696C26.8239 13.1033 26.0608 13.8662 25.4897 14.8584C25.3082 15.1614 25.2894 15.4796 25.4334 15.813C25.5778 16.146 25.8246 16.3847 26.1737 16.5291C26.4996 16.6731 26.8269 16.6881 27.1558 16.5741C27.4847 16.4604 27.7515 16.2521 27.9562 15.9491C28.3226 15.4039 28.7524 14.9949 29.2455 14.7223C29.739 14.4497 30.303 14.3134 30.9375 14.3134C31.9241 14.3134 32.7347 14.5989 33.3692 15.1701C34.0037 15.7412 34.3209 16.4942 34.3209 17.4291C34.3209 17.9972 34.1602 18.5301 33.8389 19.0277C33.5171 19.5253 32.9597 20.1375 32.1666 20.8642C31.1942 21.7009 30.5509 22.3903 30.2366 22.9326C29.922 23.4748 29.7272 24.2048 29.6522 25.1224C29.6147 25.4711 29.7229 25.7818 29.9767 26.0544C30.2306 26.3271 30.5509 26.4634 30.9375 26.4634ZM18.1299 39.375C16.9933 39.375 16.0312 38.9813 15.2437 38.1937C14.4563 37.4062 14.0625 36.4442 14.0625 35.3076V9.69244C14.0625 8.55581 14.4563 7.59375 15.2437 6.80625C16.0312 6.01875 16.9933 5.625 18.1299 5.625H43.7451C44.8817 5.625 45.8438 6.01875 46.6312 6.80625C47.4188 7.59375 47.8125 8.55581 47.8125 9.69244V35.3076C47.8125 36.4442 47.4188 37.4062 46.6312 38.1937C45.8438 38.9813 44.8817 39.375 43.7451 39.375H18.1299ZM18.1299 36H43.7451C43.9183 36 44.0769 35.9278 44.2209 35.7834C44.3653 35.6394 44.4375 35.4808 44.4375 35.3076V9.69244C44.4375 9.51919 44.3653 9.36056 44.2209 9.21656C44.0769 9.07219 43.9183 9 43.7451 9H18.1299C17.9567 9 17.7981 9.07219 17.6541 9.21656C17.5097 9.36056 17.4375 9.51919 17.4375 9.69244V35.3076C17.4375 35.4808 17.5097 35.6394 17.6541 35.7834C17.7981 35.9278 17.9567 36 18.1299 36ZM10.2549 47.25C9.11831 47.25 8.15625 46.8563 7.36875 46.0687C6.58125 45.2812 6.1875 44.3192 6.1875 43.1826V15.8799C6.1875 15.4011 6.34913 15 6.67238 14.6767C6.99525 14.3539 7.39612 14.1924 7.875 14.1924C8.35387 14.1924 8.75494 14.3539 9.07819 14.6767C9.40106 15 9.5625 15.4011 9.5625 15.8799V43.1826C9.5625 43.3558 9.63469 43.5144 9.77906 43.6584C9.92306 43.8028 10.0817 43.875 10.2549 43.875H37.5576C38.0364 43.875 38.4375 44.0364 38.7607 44.3593C39.0836 44.6826 39.2451 45.0836 39.2451 45.5625C39.2451 46.0414 39.0836 46.4422 38.7607 46.7651C38.4375 47.0884 38.0364 47.25 37.5576 47.25H10.2549Z" fill="#1B5CC4"/>
</svg>
