<svg width="54" height="54" viewBox="0 0 54 54" fill="none" xmlns="http://www.w3.org/2000/svg">
<path d="M3.07237 40.0241C2.52075 40.0241 2.05819 39.8375 1.68469 39.4644C1.31156 39.0909 1.125 38.6283 1.125 38.0767V37.2808C1.125 35.7838 1.90669 34.5541 3.47006 33.5919C5.03381 32.63 7.07194 32.1491 9.58444 32.1491C9.99956 32.1491 10.4177 32.162 10.8388 32.1879C11.2599 32.2138 11.6841 32.2642 12.1112 32.3392C11.6728 33.0404 11.3475 33.7681 11.1352 34.5223C10.9234 35.2768 10.8174 36.0506 10.8174 36.8437V40.0241H3.07237ZM16.6674 40.0241C16.0817 40.0241 15.5949 39.8291 15.2072 39.4391C14.8191 39.0494 14.625 38.5664 14.625 37.9901V36.9303C14.625 35.8769 14.9207 34.9141 15.5121 34.0419C16.1034 33.1693 16.9558 32.4086 18.0692 31.7598C19.1826 31.1107 20.4981 30.6239 22.0157 30.2996C23.5329 29.9748 25.1916 29.8124 26.9916 29.8124C28.8261 29.8124 30.5019 29.9748 32.0192 30.2996C33.5364 30.6239 34.8517 31.1107 35.9651 31.7598C37.0789 32.4086 37.9256 33.1693 38.5054 34.0419C39.0851 34.9141 39.375 35.8769 39.375 36.9303V37.9901C39.375 38.5664 39.18 39.0494 38.79 39.4391C38.4004 39.8291 37.9174 40.0241 37.341 40.0241H16.6674ZM43.1826 40.0241V36.8465C43.1826 35.9994 43.0824 35.2023 42.8822 34.4553C42.6816 33.7083 42.3808 33.0029 41.9799 32.3392C42.4213 32.2642 42.8432 32.2138 43.2456 32.1879C43.6479 32.162 44.0452 32.1491 44.4375 32.1491C46.95 32.1491 48.9844 32.6244 50.5406 33.575C52.0969 34.5253 52.875 35.7605 52.875 37.2808V38.0767C52.875 38.6283 52.6884 39.0909 52.3153 39.4644C51.9418 39.8375 51.4792 40.0241 50.9276 40.0241H43.1826ZM18.1732 36.6491H35.8616V36.4111C35.631 35.5025 34.6732 34.7381 32.9884 34.1178C31.3039 33.4976 29.3077 33.1874 27 33.1874C24.6922 33.1874 22.6961 33.4976 21.0116 34.1178C19.3267 34.7381 18.3806 35.5025 18.1732 36.4111V36.6491ZM9.57825 29.9638C8.51775 29.9638 7.61175 29.5867 6.86025 28.8326C6.10875 28.0784 5.733 27.1719 5.733 26.1129C5.733 25.04 6.11025 24.1336 6.86475 23.3938C7.61887 22.6539 8.52544 22.2839 9.58444 22.2839C10.6573 22.2839 11.5672 22.6539 12.3142 23.3938C13.0616 24.1336 13.4353 25.0423 13.4353 26.1196C13.4353 27.1651 13.0656 28.0672 12.3261 28.8258C11.5869 29.5844 10.671 29.9638 9.57825 29.9638ZM44.4375 29.9638C43.3875 29.9638 42.4832 29.5844 41.7246 28.8258C40.9659 28.0672 40.5866 27.1651 40.5866 26.1196C40.5866 25.0423 40.9659 24.1336 41.7246 23.3938C42.4832 22.6539 43.3888 22.2839 44.4414 22.2839C45.5263 22.2839 46.4387 22.6539 47.1786 23.3938C47.9184 24.1336 48.2884 25.04 48.2884 26.1129C48.2884 27.1719 47.9194 28.0784 47.1814 28.8326C46.4434 29.5867 45.5287 29.9638 44.4375 29.9638ZM27.0079 28.1249C25.3871 28.1249 24.0071 27.557 22.8679 26.4211C21.7286 25.2856 21.159 23.9066 21.159 22.2839C21.159 20.6287 21.7267 19.2414 22.8622 18.122C23.9981 17.0023 25.3774 16.4424 27 16.4424C28.6549 16.4424 30.0422 17.0015 31.1619 18.1198C32.2813 19.2376 32.841 20.6231 32.841 22.2761C32.841 23.8964 32.2821 25.2764 31.1642 26.4161C30.0459 27.5553 28.6605 28.1249 27.0079 28.1249ZM27.0107 24.7499C27.6988 24.7499 28.2801 24.5092 28.7544 24.0277C29.2292 23.5458 29.4666 22.9608 29.4666 22.2727C29.4666 21.5849 29.2301 21.0037 28.7572 20.5289C28.2844 20.0546 27.6986 19.8174 27 19.8174C26.3194 19.8174 25.7381 20.0538 25.2562 20.5267C24.7744 20.9992 24.5334 21.5849 24.5334 22.2839C24.5334 22.9646 24.7744 23.5458 25.2562 24.0277C25.7381 24.5092 26.3229 24.7499 27.0107 24.7499Z" fill="#B2CCFF"/>
</svg>
