<svg width="54" height="54" viewBox="0 0 54 54" fill="none" xmlns="http://www.w3.org/2000/svg">
<path d="M11.9424 46.125C10.8058 46.125 9.84375 45.7313 9.05625 44.9437C8.26875 44.1562 7.875 43.1942 7.875 42.0576V11.9424C7.875 10.8058 8.26875 9.84375 9.05625 9.05625C9.84375 8.26875 10.8058 7.875 11.9424 7.875H42.0576C43.1942 7.875 44.1562 8.26875 44.9437 9.05625C45.7313 9.84375 46.125 10.8058 46.125 11.9424V42.0576C46.125 43.1942 45.7313 44.1562 44.9437 44.9437C44.1562 45.7313 43.1942 46.125 42.0576 46.125H11.9424ZM11.25 19.4884H42.75V11.9424C42.75 11.7692 42.6778 11.6106 42.5334 11.4666C42.3894 11.3222 42.2308 11.25 42.0576 11.25H11.9424C11.7692 11.25 11.6106 11.3222 11.4666 11.4666C11.3222 11.6106 11.25 11.7692 11.25 11.9424V19.4884ZM11.25 31.1366H42.75V22.8634H11.25V31.1366ZM11.9424 42.75H42.0576C42.2308 42.75 42.3894 42.6778 42.5334 42.5334C42.6778 42.3894 42.75 42.2308 42.75 42.0576V34.5116H11.25V42.0576C11.25 42.2308 11.3222 42.3894 11.4666 42.5334C11.6106 42.6778 11.7692 42.75 11.9424 42.75ZM14.9473 16.8036C14.5596 16.4158 14.3657 15.9319 14.3657 15.3517C14.3657 14.772 14.5596 14.2882 14.9473 13.9005C15.3354 13.5124 15.8194 13.3183 16.3991 13.3183C16.9789 13.3183 17.4628 13.5124 17.8509 13.9005C18.2387 14.2882 18.4326 14.772 18.4326 15.3517C18.4326 15.9319 18.2387 16.4158 17.8509 16.8036C17.4628 17.1917 16.9789 17.3858 16.3991 17.3858C15.8194 17.3858 15.3354 17.1917 14.9473 16.8036ZM14.9473 28.4518C14.5596 28.0637 14.3657 27.5798 14.3657 27C14.3657 26.4202 14.5596 25.9363 14.9473 25.5482C15.3354 25.1604 15.8194 24.9666 16.3991 24.9666C16.9789 24.9666 17.4628 25.1604 17.8509 25.5482C18.2387 25.9363 18.4326 26.4202 18.4326 27C18.4326 27.5798 18.2387 28.0637 17.8509 28.4518C17.4628 28.8396 16.9789 29.0334 16.3991 29.0334C15.8194 29.0334 15.3354 28.8396 14.9473 28.4518ZM14.9473 40.0995C14.5596 39.7118 14.3657 39.228 14.3657 38.6482C14.3657 38.0681 14.5596 37.5842 14.9473 37.1964C15.3354 36.8083 15.8194 36.6143 16.3991 36.6143C16.9789 36.6143 17.4628 36.8083 17.8509 37.1964C18.2387 37.5842 18.4326 38.0681 18.4326 38.6482C18.4326 39.228 18.2387 39.7118 17.8509 40.0995C17.4628 40.4876 16.9789 40.6817 16.3991 40.6817C15.8194 40.6817 15.3354 40.4876 14.9473 40.0995Z" fill="#FFBF4D"/>
</svg>
