<svg xmlns="http://www.w3.org/2000/svg" viewBox="0 0 54 54" fill="none">
  <path d="M27 12c-4.5-3.4-10.5-4.6-17-4.6v34.2c6.5 0 12.5 1.2 17 4.6 4.5-3.4 10.5-4.6 17-4.6V7.4c-6.5 0-12.5 1.2-17 4.6Z" stroke="#FF752D" stroke-width="3.2" stroke-linejoin="round"/>
  <path d="M27 12v34.2" stroke="#FF752D" stroke-width="3.2"/>
  <path d="M14.5 17.5c2.8.2 5.4.7 7.5 1.5M14.5 25c2.8.2 5.4.7 7.5 1.5M32 19c2.1-.8 4.7-1.3 7.5-1.5M32 26.5c2.1-.8 4.7-1.3 7.5-1.5" stroke="#FF752D" stroke-width="2.4" stroke-linecap="round"/>
</svg>
