<svg width="54" height="54" viewBox="0 0 54 54" fill="none" xmlns="http://www.w3.org/2000/svg">
<path d="M11.9424 46.125C10.8058 46.125 9.84375 45.7313 9.05625 44.9437C8.26875 44.1562 7.875 43.1942 7.875 42.0576V11.9424C7.875 10.8058 8.26875 9.84375 9.05625 9.05625C9.84375 8.26875 10.8058 7.875 11.9424 7.875H42.0576C43.1942 7.875 44.1562 8.26875 44.9437 9.05625C45.7313 9.84375 46.125 10.8058 46.125 11.9424V42.0576C46.125 43.1942 45.7313 44.1562 44.9437 44.9437C44.1562 45.7313 43.1942 46.125 42.0576 46.125H11.9424ZM11.9424 42.75H42.0576C42.2308 42.75 42.3894 42.6778 42.5334 42.5334C42.6778 42.3894 42.75 42.2308 42.75 42.0576V11.9424C42.75 11.7692 42.6778 11.6106 42.5334 11.4666C42.3894 11.3222 42.2308 11.25 42.0576 11.25H11.9424C11.7692 11.25 11.6106 11.3222 11.4666 11.4666C11.3222 11.6106 11.25 11.7692 11.25 11.9424V42.0576C11.25 42.2308 11.3222 42.3894 11.4666 42.5334C11.6106 42.6778 11.7692 42.75 11.9424 42.75ZM18 37.6875H29.25C29.7289 37.6875 30.1297 37.5259 30.4526 37.2026C30.7759 36.8797 30.9375 36.4789 30.9375 36C30.9375 35.5211 30.7759 35.1202 30.4526 34.7974C30.1297 34.4741 29.7289 34.3125 29.25 34.3125H18C17.5211 34.3125 17.1202 34.4741 16.7974 34.7974C16.4741 35.1202 16.3125 35.5211 16.3125 36C16.3125 36.4789 16.4741 36.8797 16.7974 37.2026C17.1202 37.5259 17.5211 37.6875 18 37.6875ZM18 28.6875H36C36.4789 28.6875 36.8797 28.5259 37.2026 28.2026C37.5259 27.8797 37.6875 27.4789 37.6875 27C37.6875 26.5211 37.5259 26.1202 37.2026 25.7974C36.8797 25.4741 36.4789 25.3125 36 25.3125H18C17.5211 25.3125 17.1202 25.4741 16.7974 25.7974C16.4741 26.1202 16.3125 26.5211 16.3125 27C16.3125 27.4789 16.4741 27.8797 16.7974 28.2026C17.1202 28.5259 17.5211 28.6875 18 28.6875ZM18 19.6875H36C36.4789 19.6875 36.8797 19.5259 37.2026 19.2026C37.5259 18.8798 37.6875 18.4789 37.6875 18C37.6875 17.5211 37.5259 17.1202 37.2026 16.7974C36.8797 16.4741 36.4789 16.3125 36 16.3125H18C17.5211 16.3125 17.1202 16.4741 16.7974 16.7974C16.4741 17.1202 16.3125 17.5211 16.3125 18C16.3125 18.4789 16.4741 18.8798 16.7974 19.2026C17.1202 19.5259 17.5211 19.6875 18 19.6875Z" fill="#597EB3"/>
</svg>
