<svg width="142" height="167" viewBox="0 0 142 167" fill="none" xmlns="http://www.w3.org/2000/svg">
<path d="M117.61 28.1959C110.292 24.6994 103.299 13.9089 103.299 13.9089C89.5533 -7.31998 67.2755 -3.65112 62.7596 27.1486C57.1147 65.6481 79.5071 81.3058 99.946 82.9996C108.977 83.748 136.316 78.9263 140.86 55.4702C145.403 32.0142 122.203 30.39 117.61 28.1959Z" stroke="#FFBF4D"/>
<path d="M29.5506 146.343C27.2115 149.535 26.6951 155.786 26.6951 155.786C25.6847 168.083 15.262 171.646 6.21456 159.449C-5.09474 144.202 0.9181 132.305 9.31299 126.861C13.0222 124.456 25.8867 120.221 33.2515 129.255C40.6164 138.289 31.0185 144.34 29.5506 146.343Z" fill="#FFBF4D"/>
</svg>
