<svg width="199" height="238" viewBox="0 0 199 238" fill="none" xmlns="http://www.w3.org/2000/svg">
<path d="M168.735 229.921C173.379 230.17 179.448 234.357 179.448 234.357C191.38 242.595 202.381 235.772 198.029 218.463C192.588 196.827 177.294 193.434 166.093 197.013C161.144 198.594 147.713 207.136 150.443 220.56C153.172 233.984 165.821 229.764 168.735 229.921Z" fill="#16AB11"/>
<g filter="url(#filter0_f_461_1573)">
<path d="M27.1512 38.0033C37.1151 32.0083 53.3035 35.9347 65.3452 25.9045C77.3869 15.8742 99.3963 -1.09804 109.557 29.1919C126.729 80.3807 98.1002 114.203 70.9428 119.146C58.8876 121.341 25.6572 114.034 15.3672 85.8906C5.07716 57.7477 21.2633 41.5459 27.1512 38.0033Z" fill="#12C6FF"/>
</g>
<defs>
<filter id="filter0_f_461_1573" x="0" y="0" width="126.775" height="131.532" filterUnits="userSpaceOnUse" color-interpolation-filters="sRGB">
<feFlood flood-opacity="0" result="BackgroundImageFix"/>
<feBlend mode="normal" in="SourceGraphic" in2="BackgroundImageFix" result="shape"/>
<feGaussianBlur stdDeviation="6" result="effect1_foregroundBlur_461_1573"/>
</filter>
</defs>
</svg>
