<svg width="301" height="785" viewBox="0 0 301 785" fill="none" xmlns="http://www.w3.org/2000/svg">
<path d="M150.397 157.859C150.397 210.138 150.314 262.243 150.314 314.175C100.674 314.262 50.8687 314.262 1.06328 314.349C-1.34398 234.06 65.2293 156.728 150.397 157.859Z" stroke="#D7E6FB" stroke-width="2"/>
<path d="M150.423 392.638C150.423 435.871 116.971 470.927 75.715 470.927C34.4595 470.927 1.00684 435.871 1.00684 392.638C1.00684 349.406 34.4595 314.35 75.715 314.35C116.971 314.35 150.423 349.406 150.423 392.638Z" stroke="#D7E6FB" stroke-width="2"/>
<path d="M299.33 79.2884C299.33 122.521 265.877 157.577 224.622 157.577C183.366 157.577 149.913 122.521 149.913 79.2884C149.913 36.0558 183.366 0.999999 224.622 0.999997C265.877 0.999995 299.33 36.0558 299.33 79.2884Z" stroke="#D7E6FB" stroke-width="2"/>
<path d="M1.08985 627.416L150.423 470.839L1.08984 470.839L1.08985 627.416Z" stroke="#D7E6FB" stroke-width="2"/>
<path d="M1.17286 783.906C28.8979 783.906 47.5749 784.167 75.383 783.819C102.693 783.558 124.109 771.206 138.885 747.198C157.645 716.926 153.08 675.955 128.592 650.468C113.982 635.245 96.3013 627.503 75.632 627.416C47.658 627.329 28.8979 627.416 0.923828 627.416" stroke="#D7E6FB" stroke-width="2"/>
<path d="M150.673 470.925C150.673 472.143 150.673 473.1 150.673 474.057C150.673 499.37 150.341 524.596 150.756 549.91C151.171 577.397 162.46 599.231 184.291 614.367C214.341 635.244 252.94 630.721 278.507 603.928C305.983 575.136 307.062 526.771 280.748 496.847C265.64 479.624 246.797 470.925 224.468 470.925C200.893 470.925 177.319 470.925 153.744 470.925L150.673 470.925Z" stroke="#D7E6FB" stroke-width="2"/>
<path d="M150.664 314.436C178.389 314.436 197.066 314.175 224.874 314.523C252.184 314.784 273.6 327.136 288.376 351.144C307.136 381.416 302.571 422.387 278.083 447.874C263.473 463.097 245.792 470.839 225.123 470.926C197.149 471.013 178.389 470.926 150.415 470.926" stroke="#D7E6FB" stroke-width="2"/>
<path d="M150.145 158.584C150.145 157.366 150.145 156.409 150.145 155.452C150.145 130.139 150.477 104.913 150.062 79.5993C149.647 52.1114 138.358 30.2776 116.526 15.1419C86.4771 -5.73502 47.8779 -1.21169 22.3111 25.5803C-5.16496 54.373 -6.24409 102.738 20.0698 132.661C35.1775 149.885 54.0205 158.584 76.35 158.584C99.9246 158.584 123.499 158.584 147.074 158.584L150.145 158.584Z" stroke="#D7E6FB" stroke-width="2"/>
</svg>
