<svg width="301" height="785" viewBox="0 0 301 785" fill="none" xmlns="http://www.w3.org/2000/svg">
<path d="M150.527 157.859C150.527 210.138 150.61 262.243 150.61 314.175C200.25 314.262 250.055 314.262 299.861 314.349C302.268 234.06 235.695 156.728 150.527 157.859Z" stroke="#D7E6FB" stroke-width="2"/>
<path d="M150.501 392.638C150.501 435.871 183.953 470.927 225.209 470.927C266.464 470.927 299.917 435.871 299.917 392.638C299.917 349.406 266.464 314.35 225.209 314.35C183.953 314.35 150.501 349.406 150.501 392.638Z" stroke="#D7E6FB" stroke-width="2"/>
<path d="M1.59411 79.2884C1.59411 122.521 35.0468 157.577 76.3023 157.577C117.558 157.577 151.01 122.521 151.01 79.2884C151.01 36.0558 117.558 0.999998 76.3023 0.999997C35.0468 0.999995 1.59412 36.0558 1.59411 79.2884Z" stroke="#D7E6FB" stroke-width="2"/>
<path d="M299.834 627.416L150.501 470.839L299.834 470.839L299.834 627.416Z" stroke="#D7E6FB" stroke-width="2"/>
<path d="M299.751 783.906C272.026 783.906 253.349 784.167 225.541 783.819C198.231 783.558 176.815 771.206 162.039 747.197C143.279 716.926 147.844 675.955 172.332 650.468C186.942 635.245 204.623 627.503 225.292 627.416C253.266 627.329 272.026 627.416 300 627.416" stroke="#D7E6FB" stroke-width="2"/>
<path d="M150.251 470.925C150.251 472.143 150.251 473.1 150.251 474.057C150.251 499.37 150.583 524.596 150.168 549.909C149.753 577.397 138.464 599.231 116.633 614.367C86.5833 635.244 47.9841 630.72 22.4173 603.928C-5.05871 575.136 -6.13782 526.771 20.1761 496.847C35.2837 479.624 54.1268 470.925 76.4562 470.925C100.031 470.925 123.605 470.925 147.18 470.925L150.251 470.925Z" stroke="#D7E6FB" stroke-width="2"/>
<path d="M150.26 314.436C122.535 314.436 103.858 314.175 76.0497 314.523C48.7397 314.784 27.3234 327.136 12.5478 351.144C-6.21226 381.416 -1.64676 422.387 22.8409 447.874C37.4505 463.097 55.1315 470.839 75.8007 470.926C103.775 471.013 122.535 470.926 150.509 470.926" stroke="#D7E6FB" stroke-width="2"/>
<path d="M150.779 158.584C150.779 157.366 150.779 156.409 150.779 155.452C150.779 130.139 150.447 104.913 150.862 79.5993C151.277 52.1114 162.566 30.2777 184.398 15.1419C214.447 -5.73496 253.046 -1.21163 278.613 25.5804C306.089 54.3731 307.168 102.738 280.854 132.661C265.746 149.885 246.903 158.584 224.574 158.584C200.999 158.584 177.425 158.584 153.85 158.584L150.779 158.584Z" stroke="#D7E6FB" stroke-width="2"/>
</svg>
