<svg width="54" height="54" viewBox="0 0 54 54" fill="none" xmlns="http://www.w3.org/2000/svg">
<path d="M37.4108 28.6875H11.8125C11.3336 28.6875 10.9327 28.5259 10.6099 28.2026C10.2866 27.8798 10.125 27.4789 10.125 27C10.125 26.5211 10.2866 26.1203 10.6099 25.7974C10.9327 25.4741 11.3336 25.3125 11.8125 25.3125H37.4108L25.7799 13.6817C25.4454 13.3472 25.2803 12.9557 25.2844 12.5072C25.2889 12.0587 25.4655 11.6599 25.8143 11.3108C26.1634 10.9849 26.5586 10.8161 27 10.8045C27.4414 10.7929 27.8366 10.9616 28.1858 11.3108L42.4513 25.5763C42.6621 25.7871 42.8106 26.0093 42.8968 26.2429C42.9834 26.4765 43.0268 26.7289 43.0268 27C43.0268 27.2711 42.9834 27.5235 42.8968 27.7571C42.8106 27.9908 42.6621 28.213 42.4513 28.4237L28.1858 42.6893C27.8741 43.0009 27.4883 43.1603 27.0281 43.1674C26.568 43.1745 26.1634 43.0151 25.8143 42.6893C25.4655 42.3401 25.2911 41.9393 25.2911 41.4866C25.2911 41.0336 25.4655 40.6326 25.8143 40.2835L37.4108 28.6875Z" fill="#021B2E"/>
</svg>
