<svg width="74" height="74" viewBox="0 0 74 74" fill="none" xmlns="http://www.w3.org/2000/svg">
<path d="M25.581 63.9854C22.0162 62.4478 18.9154 60.3612 16.2786 57.7254C13.6419 55.0897 11.5542 51.9902 10.0156 48.4269C8.47753 44.8636 7.7085 41.0564 7.7085 37.0054C7.7085 32.9539 8.47727 29.1458 10.0148 25.5809C11.5524 22.0161 13.639 18.9153 16.2748 16.2785C18.9105 13.6417 22.01 11.5541 25.5733 10.0155C29.1366 8.47741 32.9438 7.70837 36.9948 7.70837C41.0463 7.70837 44.8544 8.47715 48.4193 10.0147C51.9841 11.5523 55.0849 13.6389 57.7217 16.2746C60.3585 18.9104 62.4461 22.0099 63.9847 25.5732C65.5228 29.1365 66.2918 32.9437 66.2918 36.9946C66.2918 41.0461 65.5231 44.8543 63.9855 48.4192C62.4479 51.984 60.3613 55.0848 57.7256 57.7216C55.0898 60.3583 51.9903 62.446 48.427 63.9846C44.8637 65.5227 41.0565 66.2917 37.0056 66.2917C32.9541 66.2917 29.1459 65.5229 25.581 63.9854ZM54.4981 54.498C59.2772 49.7188 61.6668 43.8862 61.6668 37C61.6668 30.1139 59.2772 24.2813 54.4981 19.5021C49.7189 14.723 43.8863 12.3334 37.0002 12.3334C30.1141 12.3334 24.2814 14.723 19.5022 19.5021C14.7231 24.2813 12.3335 30.1139 12.3335 37C12.3335 43.8862 14.7231 49.7188 19.5022 54.498C24.2814 59.2771 30.1141 61.6667 37.0002 61.6667C43.8863 61.6667 49.7189 59.2771 54.4981 54.498ZM24.9929 49.0142C21.6922 45.7182 20.0418 41.7157 20.0418 37.007C20.0418 32.2982 21.6899 28.2935 24.986 24.9928C28.282 21.6921 32.2845 20.0417 36.9932 20.0417C41.702 20.0417 45.7067 21.6898 49.0074 24.9858C52.3081 28.2819 53.9585 32.2843 53.9585 36.9931C53.9585 41.7019 52.3105 45.7066 49.0144 49.0073C45.7183 52.308 41.7159 53.9584 37.0071 53.9584C32.2983 53.9584 28.2936 52.3103 24.9929 49.0142ZM45.7106 45.7105C48.1259 43.2952 49.3335 40.3917 49.3335 37C49.3335 33.6084 48.1259 30.7049 45.7106 28.2896C43.2953 25.8743 40.3918 24.6667 37.0002 24.6667C33.6085 24.6667 30.705 25.8743 28.2897 28.2896C25.8745 30.7049 24.6668 33.6084 24.6668 37C24.6668 40.3917 25.8745 43.2952 28.2897 45.7105C30.705 48.1257 33.6085 49.3334 37.0002 49.3334C40.3918 49.3334 43.2953 48.1257 45.7106 45.7105ZM33.7419 40.2584C32.8307 39.3472 32.3752 38.2611 32.3752 37C32.3752 35.739 32.8307 34.6529 33.7419 33.7417C34.653 32.8306 35.7391 32.375 37.0002 32.375C38.2612 32.375 39.3474 32.8306 40.2585 33.7417C41.1696 34.6529 41.6252 35.739 41.6252 37C41.6252 38.2611 41.1696 39.3472 40.2585 40.2584C39.3474 41.1695 38.2612 41.625 37.0002 41.625C35.7391 41.625 34.653 41.1695 33.7419 40.2584Z" fill="#021B2E"/>
</svg>
