<svg width="74" height="74" viewBox="0 0 74 74" fill="none" xmlns="http://www.w3.org/2000/svg">
<path d="M18.5 48.8531C19.1999 48.3747 19.9499 48.0188 20.7501 47.7855C21.5507 47.5528 22.4017 47.4364 23.3031 47.4364H25.2594V12.3334H23.8958C22.4133 12.3334 21.1434 12.8622 20.0864 13.9198C19.0288 14.9768 18.5 16.2466 18.5 17.7292V48.8531ZM29.8844 47.4364H55.5V13.2823C55.5 13.0053 55.4111 12.7779 55.2333 12.6001C55.0555 12.4223 54.8281 12.3334 54.5511 12.3334H29.8844V47.4364ZM23.3031 66.2917C20.6982 66.2917 18.4756 65.3716 16.6354 63.5314C14.7951 61.6911 13.875 59.4685 13.875 56.8636V17.7292C13.875 14.9465 14.8493 12.5806 16.798 10.6314C18.7472 8.68271 21.1131 7.70837 23.8958 7.70837H54.5511C56.0887 7.70837 57.4022 8.25284 58.4916 9.34177C59.5805 10.4312 60.125 11.7447 60.125 13.2823V50.7147C60.125 51.0863 59.9827 51.4193 59.698 51.7137C59.4133 52.0082 58.9528 52.2918 58.3166 52.5647C57.4194 52.8849 56.6958 53.4286 56.146 54.1958C55.5966 54.9625 55.3219 55.8518 55.3219 56.8636C55.3219 57.856 55.5917 58.7435 56.1313 59.5261C56.6709 60.3088 57.3893 60.8543 58.2866 61.1626C58.8678 61.3918 59.3195 61.7119 59.6417 62.123C59.9639 62.5342 60.125 62.9789 60.125 63.4574V63.9314C60.125 64.5877 59.9035 65.1452 59.4605 65.6041C59.0181 66.0625 58.4687 66.2917 57.8125 66.2917H23.3031ZM23.3031 61.6667H52.1145C51.6674 60.9668 51.3195 60.2247 51.0708 59.4405C50.8216 58.6558 50.6969 57.7969 50.6969 56.8636C50.6969 55.9823 50.8136 55.1365 51.0469 54.3261C51.2802 53.5157 51.6361 52.7605 52.1145 52.0606H23.3031C21.9274 52.0606 20.783 52.53 19.8698 53.4689C18.9566 54.4078 18.5 55.5394 18.5 56.8636C18.5 58.2393 18.9566 59.3838 19.8698 60.2969C20.783 61.2101 21.9274 61.6667 23.3031 61.6667Z" fill="#021B2E"/>
</svg>
