<svg width="74" height="74" viewBox="0 0 74 74" fill="none" xmlns="http://www.w3.org/2000/svg">
<path d="M52.1199 60.125C51.3306 60.125 50.6687 59.8578 50.1342 59.3233C49.6003 58.7894 49.3333 58.1275 49.3333 57.3377V44.7083C49.3333 43.919 49.6003 43.2571 50.1342 42.7227C50.6687 42.1887 51.3306 41.9218 52.1199 41.9218H57.3377C58.1275 41.9218 58.7894 42.1887 59.3233 42.7227C59.8578 43.2571 60.125 43.919 60.125 44.7083V57.3377C60.125 58.1275 59.8578 58.7894 59.3233 59.3233C58.7894 59.8578 58.1275 60.125 57.3377 60.125H52.1199ZM34.3907 60.125C33.6014 60.125 32.9395 59.8578 32.4051 59.3233C31.8711 58.7894 31.6042 58.1275 31.6042 57.3377V16.6623C31.6042 15.8725 31.8711 15.2106 32.4051 14.6767C32.9395 14.1422 33.6014 13.875 34.3907 13.875H39.6093C40.3986 13.875 41.0605 14.1422 41.5949 14.6767C42.1289 15.2106 42.3958 15.8725 42.3958 16.6623V57.3377C42.3958 58.1275 42.1289 58.7894 41.5949 59.3233C41.0605 59.8578 40.3986 60.125 39.6093 60.125H34.3907ZM16.6623 60.125C15.8725 60.125 15.2106 59.8578 14.6767 59.3233C14.1422 58.7894 13.875 58.1275 13.875 57.3377V31.7961C13.875 30.9924 14.1422 30.3246 14.6767 29.7927C15.2106 29.2613 15.8725 28.9957 16.6623 28.9957H21.8801C22.6694 28.9957 23.3313 29.2626 23.8658 29.7966C24.3997 30.3305 24.6667 30.9924 24.6667 31.7822V57.3238C24.6667 58.128 24.3997 58.7958 23.8658 59.3272C23.3313 59.8591 22.6694 60.125 21.8801 60.125H16.6623Z" fill="#021B2E"/>
</svg>
