<svg width="74" height="74" viewBox="0 0 74 74" fill="none" xmlns="http://www.w3.org/2000/svg">
<path d="M27.2874 51.877L36.9999 46.0187L46.7124 51.9541L44.1686 40.8541L52.7249 33.4541L41.4707 32.452L36.9999 21.9687L32.529 32.375L21.2749 33.377L29.8311 40.8541L27.2874 51.877ZM36.9999 51.4562L25.0049 58.6897C24.5579 58.9507 24.11 59.0604 23.6614 59.0188C23.2127 58.9772 22.8068 58.8261 22.4435 58.5656C22.0796 58.3045 21.7988 57.9635 21.6009 57.5427C21.4036 57.1218 21.372 56.6562 21.5061 56.1459L24.6904 42.5261L14.1007 33.3593C13.705 33.0155 13.453 32.6173 13.3445 32.1645C13.2356 31.7118 13.2641 31.2719 13.4301 30.8449C13.5961 30.4183 13.8353 30.0697 14.1477 29.7988C14.4602 29.528 14.8872 29.351 15.4289 29.2677L29.4041 28.0467L34.83 15.1854C35.0273 14.7069 35.3267 14.3531 35.728 14.1239C36.1293 13.8947 36.5533 13.7802 36.9999 13.7802C37.4464 13.7802 37.8704 13.8947 38.2717 14.1239C38.6731 14.3531 38.9724 14.7069 39.1698 15.1854L44.5957 28.0467L58.5709 29.2677C59.1125 29.351 59.5396 29.528 59.852 29.7988C60.1644 30.0697 60.4037 30.4183 60.5696 30.8449C60.7356 31.2719 60.7641 31.7118 60.6552 32.1645C60.5468 32.6173 60.2947 33.0155 59.899 33.3593L49.3093 42.5261L52.4936 56.1459C52.6277 56.6562 52.5961 57.1218 52.3988 57.5427C52.201 57.9635 51.9201 58.3045 51.5563 58.5656C51.193 58.8261 50.787 58.9772 50.3384 59.0188C49.8897 59.0604 49.4419 58.9507 48.9948 58.6897L36.9999 51.4562Z" fill="#021B2E"/>
</svg>
