<svg width="74" height="74" viewBox="0 0 74 74" fill="none" xmlns="http://www.w3.org/2000/svg">
<path d="M16.3654 63.2083C14.8325 63.2083 13.5203 62.6626 12.4288 61.5711C11.3373 60.4796 10.7915 59.1674 10.7915 57.6344V16.3656C10.7915 14.8326 11.3373 13.5204 12.4288 12.4289C13.5203 11.3374 14.8325 10.7917 16.3654 10.7917H30.0862C30.28 9.0799 31.0272 7.62431 32.3278 6.42489C33.628 5.22496 35.1902 4.625 37.0145 4.625C38.8388 4.625 40.4013 5.22496 41.7019 6.42489C43.0026 7.62431 43.7397 9.0799 43.9134 10.7917H57.6343C59.1672 10.7917 60.4794 11.3374 61.5709 12.4289C62.6624 13.5204 63.2082 14.8326 63.2082 16.3656V57.6344C63.2082 59.1674 62.6624 60.4796 61.5709 61.5711C60.4794 62.6626 59.1672 63.2083 57.6343 63.2083H16.3654ZM16.3654 58.5833H57.6343C57.8717 58.5833 58.0891 58.4844 58.2864 58.2866C58.4842 58.0892 58.5832 57.8719 58.5832 57.6344V16.3656C58.5832 16.1281 58.4842 15.9108 58.2864 15.7134C58.0891 15.5156 57.8717 15.4167 57.6343 15.4167H16.3654C16.128 15.4167 15.9106 15.5156 15.7133 15.7134C15.5154 15.9108 15.4165 16.1281 15.4165 16.3656V57.6344C15.4165 57.8719 15.5154 58.0892 15.7133 58.2866C15.9106 58.4844 16.128 58.5833 16.3654 58.5833ZM24.6665 51.2897H40.0832C40.7384 51.2897 41.2875 51.068 41.7304 50.6245C42.1739 50.1815 42.3957 49.6322 42.3957 48.9764C42.3957 48.3212 42.1739 47.7721 41.7304 47.3292C41.2875 46.8867 40.7384 46.6655 40.0832 46.6655H24.6665C24.0113 46.6655 23.4622 46.887 23.0192 47.3299C22.5757 47.7734 22.354 48.323 22.354 48.9788C22.354 49.634 22.5757 50.1831 23.0192 50.626C23.4622 51.0685 24.0113 51.2897 24.6665 51.2897ZM24.6665 39.3125H49.3332C49.9884 39.3125 50.5375 39.0908 50.9804 38.6473C51.4239 38.2038 51.6457 37.6544 51.6457 36.9992C51.6457 36.3435 51.4239 35.7944 50.9804 35.352C50.5375 34.909 49.9884 34.6875 49.3332 34.6875H24.6665C24.0113 34.6875 23.4622 34.9092 23.0192 35.3527C22.5757 35.7962 22.354 36.3456 22.354 37.0008C22.354 37.6565 22.5757 38.2056 23.0192 38.648C23.4622 39.091 24.0113 39.3125 24.6665 39.3125ZM24.6665 27.3345H49.3332C49.9884 27.3345 50.5375 27.113 50.9804 26.6701C51.4239 26.2266 51.6457 25.677 51.6457 25.0212C51.6457 24.366 51.4239 23.8169 50.9804 23.374C50.5375 22.9315 49.9884 22.7103 49.3332 22.7103H24.6665C24.0113 22.7103 23.4622 22.932 23.0192 23.3755C22.5757 23.8185 22.354 24.3678 22.354 25.0236C22.354 25.6788 22.5757 26.2279 23.0192 26.6708C23.4622 27.1133 24.0113 27.3345 24.6665 27.3345ZM38.6571 12.7457C39.0939 12.3089 39.3123 11.7565 39.3123 11.0884C39.3123 10.4204 39.0939 9.86795 38.6571 9.43114C38.2203 8.99434 37.6679 8.77594 36.9998 8.77594C36.3318 8.77594 35.7794 8.99434 35.3425 9.43114C34.9057 9.86795 34.6873 10.4204 34.6873 11.0884C34.6873 11.7565 34.9057 12.3089 35.3425 12.7457C35.7794 13.1825 36.3318 13.4009 36.9998 13.4009C37.6679 13.4009 38.2203 13.1825 38.6571 12.7457Z" fill="#021B2E"/>
</svg>
