<svg width="74" height="74" viewBox="0 0 74 74" fill="none" xmlns="http://www.w3.org/2000/svg">
<path d="M46.1136 24.7199C46.1136 22.1741 45.2629 20.1293 43.5614 18.5856C41.8594 17.0424 39.6129 16.2708 36.822 16.2708C35.0552 16.2708 33.4889 16.6313 32.123 17.3523C30.7571 18.0738 29.578 19.1599 28.5856 20.6106C28.0008 21.4369 27.2192 21.9251 26.2408 22.0752C25.2628 22.2257 24.408 21.9868 23.6762 21.3583C23.1351 20.8876 22.826 20.2976 22.7489 19.5884C22.6718 18.8788 22.8368 18.2056 23.2438 17.5689C24.8091 15.2014 26.7451 13.401 29.052 12.1676C31.3583 10.9343 33.9483 10.3176 36.822 10.3176C41.4115 10.3176 45.1472 11.6319 48.0291 14.2604C50.9105 16.889 52.3512 20.3123 52.3512 24.5303C52.3512 26.7636 51.873 28.8102 50.9167 30.6699C49.9598 32.5302 48.3292 34.5316 46.025 36.674C43.8666 38.6309 42.3941 40.219 41.6073 41.4385C40.8206 42.6579 40.364 44.0285 40.2375 45.5501C40.1111 46.4278 39.7476 47.1591 39.1468 47.7439C38.5456 48.3292 37.822 48.6219 36.9762 48.6219C36.1303 48.6219 35.407 48.3323 34.8063 47.7532C34.2055 47.174 33.9052 46.4615 33.9052 45.6156C33.9052 43.5524 34.3764 41.6659 35.3189 39.9562C36.2618 38.2465 37.8403 36.4073 40.0541 34.4385C42.418 32.3635 44.0187 30.6319 44.8564 29.2439C45.6945 27.8564 46.1136 26.3484 46.1136 24.7199ZM36.822 66.2917C35.5609 66.2917 34.4748 65.8361 33.5637 64.925C32.6525 64.0139 32.197 62.9278 32.197 61.6667C32.197 60.4056 32.6525 59.3195 33.5637 58.4084C34.4748 57.4973 35.5609 57.0417 36.822 57.0417C38.0831 57.0417 39.1692 57.4973 40.0803 58.4084C40.9914 59.3195 41.447 60.4056 41.447 61.6667C41.447 62.9278 40.9914 64.0139 40.0803 64.925C39.1692 65.8361 38.0831 66.2917 36.822 66.2917Z" fill="#1E3A8A"/>
</svg>
