<svg width="74" height="74" viewBox="0 0 74 74" fill="none" xmlns="http://www.w3.org/2000/svg">
<path d="M16.3654 63.2083C14.8078 63.2083 13.4894 62.6687 12.4103 61.5895C11.3311 60.5104 10.7915 59.192 10.7915 57.6344V16.3655C10.7915 14.8079 11.3311 13.4895 12.4103 12.4104C13.4894 11.3312 14.8078 10.7916 16.3654 10.7916H57.6343C59.1919 10.7916 60.5103 11.3312 61.5894 12.4104C62.6686 13.4895 63.2082 14.8079 63.2082 16.3655V57.6344C63.2082 59.192 62.6686 60.5104 61.5894 61.5895C60.5103 62.6687 59.1919 63.2083 57.6343 63.2083H16.3654ZM15.4165 26.7063H58.5832V16.3655C58.5832 16.1281 58.4842 15.9107 58.2864 15.7134C58.0891 15.5155 57.8717 15.4166 57.6343 15.4166H16.3654C16.128 15.4166 15.9106 15.5155 15.7133 15.7134C15.5154 15.9107 15.4165 16.1281 15.4165 16.3655V26.7063ZM15.4165 42.6687H58.5832V31.3313H15.4165V42.6687ZM16.3654 58.5833H57.6343C57.8717 58.5833 58.0891 58.4844 58.2864 58.2865C58.4842 58.0892 58.5832 57.8718 58.5832 57.6344V47.2937H15.4165V57.6344C15.4165 57.8718 15.5154 58.0892 15.7133 58.2865C15.9106 58.4844 16.128 58.5833 16.3654 58.5833ZM20.4832 23.0271C19.9518 22.4957 19.6861 21.8325 19.6861 21.0375C19.6861 20.2431 19.9518 19.5802 20.4832 19.0488C21.0151 18.5169 21.6782 18.251 22.4727 18.251C23.2672 18.251 23.9304 18.5169 24.4622 19.0488C24.9936 19.5802 25.2593 20.2431 25.2593 21.0375C25.2593 21.8325 24.9936 22.4957 24.4622 23.0271C23.9304 23.5589 23.2672 23.8249 22.4727 23.8249C21.6782 23.8249 21.0151 23.5589 20.4832 23.0271ZM20.4832 38.9895C19.9518 38.4576 19.6861 37.7944 19.6861 37C19.6861 36.2055 19.9518 35.5423 20.4832 35.0104C21.0151 34.4791 21.6782 34.2134 22.4727 34.2134C23.2672 34.2134 23.9304 34.4791 24.4622 35.0104C24.9936 35.5423 25.2593 36.2055 25.2593 37C25.2593 37.7944 24.9936 38.4576 24.4622 38.9895C23.9304 39.5208 23.2672 39.7865 22.4727 39.7865C21.6782 39.7865 21.0151 39.5208 20.4832 38.9895ZM20.4832 54.9511C19.9518 54.4198 19.6861 53.7568 19.6861 52.9624C19.6861 52.1674 19.9518 51.5042 20.4832 50.9729C21.0151 50.441 21.6782 50.175 22.4727 50.175C23.2672 50.175 23.9304 50.441 24.4622 50.9729C24.9936 51.5042 25.2593 52.1674 25.2593 52.9624C25.2593 53.7568 24.9936 54.4198 24.4622 54.9511C23.9304 55.483 23.2672 55.7489 22.4727 55.7489C21.6782 55.7489 21.0151 55.483 20.4832 54.9511Z" fill="#021B2E"/>
</svg>
