<svg width="74" height="74" viewBox="0 0 74 74" fill="none" xmlns="http://www.w3.org/2000/svg">
<path d="M19.8695 51.9002C18.9605 51.3945 18.248 50.7121 17.732 49.8529C17.2161 48.9936 16.9581 48.0298 16.9581 46.9615V33.5844L10.8038 30.1812C10.2976 29.8924 9.92604 29.5411 9.68913 29.1275C9.45172 28.7143 9.33301 28.2549 9.33301 27.7492C9.33301 27.2435 9.45172 26.7844 9.68913 26.3717C9.92604 25.9586 10.2976 25.6076 10.8038 25.3188L34.345 12.4921C34.7628 12.2598 35.1911 12.0892 35.63 11.9803C36.0688 11.8718 36.5254 11.8176 36.9998 11.8176C37.4741 11.8176 37.9307 11.8718 38.3695 11.9803C38.8084 12.0892 39.2372 12.2596 39.656 12.4913L66.2436 26.9614C66.7179 27.2184 67.0818 27.5658 67.3351 28.0036C67.588 28.4419 67.7144 28.9147 67.7144 29.4219V47.6136C67.7144 48.2688 67.4926 48.8181 67.0492 49.2616C66.6057 49.7046 66.0563 49.9261 65.4011 49.9261C64.7454 49.9261 64.1963 49.7046 63.7538 49.2616C63.3109 48.8181 63.0894 48.2688 63.0894 47.6136V30.3115L57.0414 33.5844V46.9615C57.0414 48.0298 56.7835 48.9936 56.2675 49.8529C55.7516 50.7121 55.0391 51.3945 54.13 51.9002L39.6622 59.7218C39.2393 59.9587 38.8084 60.1317 38.3695 60.2406C37.9307 60.349 37.4741 60.4032 36.9998 60.4032C36.5254 60.4032 36.0688 60.349 35.63 60.2406C35.1911 60.1317 34.7602 59.9587 34.3373 59.7218L19.8695 51.9002ZM36.6436 38.9803C36.7824 39.0594 36.906 39.099 37.0144 39.099C37.1233 39.099 37.2469 39.0594 37.3852 38.9803L58.0913 27.75L37.3852 16.549C37.2469 16.4699 37.1233 16.4303 37.0144 16.4303C36.906 16.4303 36.7824 16.4699 36.6436 16.549L15.9082 27.75L36.6436 38.9803ZM36.6143 55.7189C36.7526 55.798 36.881 55.8376 36.9998 55.8376C37.1185 55.8376 37.2469 55.798 37.3852 55.7189L51.9716 47.8387C52.1299 47.74 52.2435 47.6264 52.3124 47.498C52.3817 47.3695 52.4164 47.2063 52.4164 47.0085V36.0511L39.7092 43.0302C39.2863 43.2671 38.8477 43.44 38.3934 43.549C37.9386 43.6579 37.4741 43.7124 36.9998 43.7124C36.5254 43.7124 36.0609 43.6579 35.6061 43.549C35.1518 43.44 34.7132 43.2671 34.2903 43.0302L21.5831 36.0511V47.0085C21.5831 47.1668 21.6178 47.3202 21.6872 47.4687C21.756 47.6167 21.8696 47.74 22.0279 47.8387L36.6143 55.7189Z" fill="#12C3FD"/>
</svg>
