<svg width="74" height="74" viewBox="0 0 74 74" fill="none" xmlns="http://www.w3.org/2000/svg">
<path d="M13.2824 57.0416C11.7248 57.0416 10.4064 56.5021 9.32725 55.4229C8.24808 54.3437 7.7085 53.0253 7.7085 51.4678V22.5322C7.7085 20.9746 8.24808 19.6562 9.32725 18.5771C10.4064 17.4979 11.7248 16.9583 13.2824 16.9583H60.7179C62.2755 16.9583 63.5939 17.4979 64.6731 18.5771C65.7522 19.6562 66.2918 20.9746 66.2918 22.5322V51.4678C66.2918 53.0253 65.7522 54.3437 64.6731 55.4229C63.5939 56.5021 62.2755 57.0416 60.7179 57.0416H13.2824ZM13.2824 52.4166H60.7179C60.9554 52.4166 61.1727 52.3177 61.3701 52.1199C61.5679 51.9225 61.6668 51.7052 61.6668 51.4678V22.5322C61.6668 22.2948 61.5679 22.0774 61.3701 21.8801C61.1727 21.6822 60.9554 21.5833 60.7179 21.5833H13.2824C13.045 21.5833 12.8276 21.6822 12.6303 21.8801C12.4324 22.0774 12.3335 22.2948 12.3335 22.5322V51.4678C12.3335 51.7052 12.4324 51.9225 12.6303 52.1199C12.8276 52.3177 13.045 52.4166 13.2824 52.4166ZM27.7502 48.9772H46.2502C47.0051 48.9772 47.6485 48.7164 48.1803 48.1948C48.7117 47.6732 48.9774 47.0249 48.9774 46.25C48.9774 45.4951 48.7117 44.8517 48.1803 44.3198C47.6485 43.7885 47.0051 43.5228 46.2502 43.5228H27.7502C26.9953 43.5228 26.3519 43.7836 25.82 44.3052C25.2886 44.8268 25.023 45.475 25.023 46.25C25.023 47.0049 25.2886 47.6483 25.82 48.1801C26.3519 48.7115 26.9953 48.9772 27.7502 48.9772ZM20.4303 29.6801C20.9617 29.1483 21.2274 28.5049 21.2274 27.75C21.2274 26.9951 20.9617 26.3517 20.4303 25.8198C19.8985 25.2885 19.2551 25.0228 18.5002 25.0228C17.7453 25.0228 17.1019 25.2885 16.57 25.8198C16.0386 26.3517 15.773 26.9951 15.773 27.75C15.773 28.5049 16.0386 29.1483 16.57 29.6801C17.1019 30.2115 17.7453 30.4772 18.5002 30.4772C19.2551 30.4772 19.8985 30.2115 20.4303 29.6801ZM29.6803 29.6801C30.2117 29.1483 30.4774 28.5049 30.4774 27.75C30.4774 26.9951 30.2117 26.3517 29.6803 25.8198C29.1485 25.2885 28.5051 25.0228 27.7502 25.0228C26.9953 25.0228 26.3519 25.2885 25.82 25.8198C25.2886 26.3517 25.023 26.9951 25.023 27.75C25.023 28.5049 25.2886 29.1483 25.82 29.6801C26.3519 30.2115 26.9953 30.4772 27.7502 30.4772C28.5051 30.4772 29.1485 30.2115 29.6803 29.6801ZM38.9303 29.6801C39.4617 29.1483 39.7274 28.5049 39.7274 27.75C39.7274 26.9951 39.4617 26.3517 38.9303 25.8198C38.3985 25.2885 37.7551 25.0228 37.0002 25.0228C36.2453 25.0228 35.6019 25.2885 35.07 25.8198C34.5386 26.3517 34.273 26.9951 34.273 27.75C34.273 28.5049 34.5386 29.1483 35.07 29.6801C35.6019 30.2115 36.2453 30.4772 37.0002 30.4772C37.7551 30.4772 38.3985 30.2115 38.9303 29.6801ZM48.1803 29.6801C48.7117 29.1483 48.9774 28.5049 48.9774 27.75C48.9774 26.9951 48.7117 26.3517 48.1803 25.8198C47.6485 25.2885 47.0051 25.0228 46.2502 25.0228C45.4953 25.0228 44.8519 25.2885 44.32 25.8198C43.7886 26.3517 43.523 26.9951 43.523 27.75C43.523 28.5049 43.7886 29.1483 44.32 29.6801C44.8519 30.2115 45.4953 30.4772 46.2502 30.4772C47.0051 30.4772 47.6485 30.2115 48.1803 29.6801ZM57.4303 29.6801C57.9617 29.1483 58.2274 28.5049 58.2274 27.75C58.2274 26.9951 57.9617 26.3517 57.4303 25.8198C56.8985 25.2885 56.2551 25.0228 55.5002 25.0228C54.7453 25.0228 54.1019 25.2885 53.57 25.8198C53.0386 26.3517 52.773 26.9951 52.773 27.75C52.773 28.5049 53.0386 29.1483 53.57 29.6801C54.1019 30.2115 54.7453 30.4772 55.5002 30.4772C56.2551 30.4772 56.8985 30.2115 57.4303 29.6801ZM20.4303 38.9301C20.9617 38.3983 21.2274 37.7549 21.2274 37C21.2274 36.2451 20.9617 35.6017 20.4303 35.0698C19.8985 34.5385 19.2551 34.2728 18.5002 34.2728C17.7453 34.2728 17.1019 34.5385 16.57 35.0698C16.0386 35.6017 15.773 36.2451 15.773 37C15.773 37.7549 16.0386 38.3983 16.57 38.9301C17.1019 39.4615 17.7453 39.7272 18.5002 39.7272C19.2551 39.7272 19.8985 39.4615 20.4303 38.9301ZM29.6803 38.9301C30.2117 38.3983 30.4774 37.7549 30.4774 37C30.4774 36.2451 30.2117 35.6017 29.6803 35.0698C29.1485 34.5385 28.5051 34.2728 27.7502 34.2728C26.9953 34.2728 26.3519 34.5385 25.82 35.0698C25.2886 35.6017 25.023 36.2451 25.023 37C25.023 37.7549 25.2886 38.3983 25.82 38.9301C26.3519 39.4615 26.9953 39.7272 27.7502 39.7272C28.5051 39.7272 29.1485 39.4615 29.6803 38.9301ZM38.9303 38.9301C39.4617 38.3983 39.7274 37.7549 39.7274 37C39.7274 36.2451 39.4617 35.6017 38.9303 35.0698C38.3985 34.5385 37.7551 34.2728 37.0002 34.2728C36.2453 34.2728 35.6019 34.5385 35.07 35.0698C34.5386 35.6017 34.273 36.2451 34.273 37C34.273 37.7549 34.5386 38.3983 35.07 38.9301C35.6019 39.4615 36.2453 39.7272 37.0002 39.7272C37.7551 39.7272 38.3985 39.4615 38.9303 38.9301ZM48.1803 38.9301C48.7117 38.3983 48.9774 37.7549 48.9774 37C48.9774 36.2451 48.7117 35.6017 48.1803 35.0698C47.6485 34.5385 47.0051 34.2728 46.2502 34.2728C45.4953 34.2728 44.8519 34.5385 44.32 35.0698C43.7886 35.6017 43.523 36.2451 43.523 37C43.523 37.7549 43.7886 38.3983 44.32 38.9301C44.8519 39.4615 45.4953 39.7272 46.2502 39.7272C47.0051 39.7272 47.6485 39.4615 48.1803 38.9301ZM57.4303 38.9301C57.9617 38.3983 58.2274 37.7549 58.2274 37C58.2274 36.2451 57.9617 35.6017 57.4303 35.0698C56.8985 34.5385 56.2551 34.2728 55.5002 34.2728C54.7453 34.2728 54.1019 34.5385 53.57 35.0698C53.0386 35.6017 52.773 36.2451 52.773 37C52.773 37.7549 53.0386 38.3983 53.57 38.9301C54.1019 39.4615 54.7453 39.7272 55.5002 39.7272C56.2551 39.7272 56.8985 39.4615 57.4303 38.9301Z" fill="#FF732B"/>
</svg>
