<svg width="74" height="74" viewBox="0 0 74 74" fill="none" xmlns="http://www.w3.org/2000/svg">
<path d="M64.6199 43.7894L43.7897 64.6196C43.2295 65.1767 42.5992 65.5948 41.8988 65.8738C41.1984 66.1523 40.5 66.2916 39.8037 66.2916C39.1069 66.2916 38.41 66.1523 37.7132 65.8738C37.0164 65.5948 36.3894 65.1767 35.8324 64.6196L9.33341 38.15C8.8077 37.6443 8.40533 37.0508 8.12629 36.3694C7.84776 35.688 7.7085 34.9711 7.7085 34.2188V13.3114C7.7085 11.7708 8.25296 10.4516 9.34189 9.35398C10.4313 8.25683 11.7546 7.70825 13.3117 7.70825H34.219C34.9636 7.70825 35.6849 7.85934 36.3827 8.1615C37.0811 8.46316 37.6862 8.86938 38.198 9.38019L64.6199 35.8498C65.1847 36.41 65.5965 37.04 65.8555 37.7399C66.1145 38.4403 66.244 39.1426 66.244 39.8466C66.244 40.5506 66.1145 41.2428 65.8555 41.9232C65.5965 42.6041 65.1847 43.2262 64.6199 43.7894ZM40.4928 61.3698L61.323 40.5396C61.5204 40.3423 61.619 40.11 61.619 39.8428C61.619 39.576 61.5204 39.344 61.323 39.1467L34.5574 12.3625H13.3117C13.0352 12.3625 12.8029 12.4517 12.6149 12.63C12.4273 12.8078 12.3335 13.035 12.3335 13.3114V34.1717C12.3335 34.2904 12.3533 34.4089 12.3929 34.5271C12.4324 34.6458 12.5015 34.7545 12.6002 34.8531L39.0991 61.3698C39.297 61.5677 39.5293 61.6666 39.796 61.6666C40.0627 61.6666 40.295 61.5677 40.4928 61.3698ZM20.1189 23.9844C21.194 23.9844 22.1072 23.6098 22.8585 22.8605C23.6092 22.1113 23.9846 21.2012 23.9846 20.1302C23.9846 19.0516 23.61 18.1348 22.8608 17.3799C22.1115 16.6245 21.2014 16.2468 20.1305 16.2468C19.0518 16.2468 18.135 16.6232 17.3801 17.376C16.6247 18.1289 16.247 19.0431 16.247 20.1187C16.247 21.1937 16.6234 22.1069 17.3763 22.8582C18.1291 23.609 19.0433 23.9844 20.1189 23.9844Z" fill="#021B2E"/>
</svg>
