<svg width="27" height="27" viewBox="0 0 27 27" fill="none" xmlns="http://www.w3.org/2000/svg">
<path d="M13.5 27C20.9558 27 27 20.9558 27 13.5C27 6.04416 20.9558 0 13.5 0C6.04416 0 0 6.04416 0 13.5C0 20.9558 6.04416 27 13.5 27Z" fill="#6BAAC7"/>
<path d="M15.0966 12.987L19.9337 7.36426H18.7875L14.5874 12.2464L11.2328 7.36426H7.36362L12.4364 14.747L7.36362 20.6433H8.50994L12.9453 15.4876L16.488 20.6433H20.3572L15.0963 12.987H15.0966ZM13.5265 14.812L13.0125 14.0769L8.92297 8.22719H10.6836L13.984 12.9481L14.498 13.6832L18.788 19.8197H17.0273L13.5265 14.8123V14.812Z" fill="white"/>
</svg>
