<svg width="74" height="74" viewBox="0 0 74 74" fill="none" xmlns="http://www.w3.org/2000/svg">
<path d="M5.54468 52.6772C5.54468 51.0883 5.95476 49.6702 6.77493 48.423C7.59509 47.1758 8.69045 46.2056 10.061 45.5123C12.9912 44.0791 15.9376 42.974 18.9001 42.197C21.8632 41.4205 25.1195 41.0322 28.6689 41.0322C32.2189 41.0322 35.4751 41.4205 38.4377 42.197C41.4008 42.974 44.3474 44.0791 47.2776 45.5123C48.6481 46.2056 49.7435 47.1758 50.5637 48.423C51.3838 49.6702 51.7939 51.0883 51.7939 52.6772V54.8479C51.7939 56.0889 51.3383 57.1799 50.4272 58.1208C49.5161 59.0618 48.4102 59.5322 47.1096 59.5322H10.2283C8.92812 59.5322 7.82249 59.0767 6.91137 58.1655C6.00024 57.2539 5.54468 56.148 5.54468 54.8479V52.6772ZM63.7719 59.5322H56.7689C57.1563 58.8246 57.4518 58.0715 57.6553 57.2729C57.8588 56.4743 57.9606 55.666 57.9606 54.8479V52.298C57.9606 50.2743 57.4652 48.3454 56.4744 46.5113C55.4831 44.6778 54.0771 43.1045 52.2564 41.7915C54.3238 42.0998 56.2866 42.577 58.1448 43.2229C60.0025 43.8694 61.7754 44.6333 63.4635 45.5146C65.0566 46.3646 66.2869 47.3664 67.1543 48.5201C68.0217 49.6733 68.4555 50.9326 68.4555 52.298V54.8479C68.4555 56.148 67.9999 57.2539 67.0888 58.1655C66.1777 59.0767 65.072 59.5322 63.7719 59.5322ZM21.0407 32.8876C18.9323 30.7791 17.878 28.2364 17.878 25.2594C17.878 22.283 18.9323 19.7403 21.0407 17.6313C23.1497 15.5223 25.6925 14.4678 28.6689 14.4678C31.6459 14.4678 34.1886 15.5223 36.2971 17.6313C38.4061 19.7403 39.4606 22.283 39.4606 25.2594C39.4606 28.2364 38.4061 30.7791 36.2971 32.8876C34.1886 34.9966 31.6459 36.0511 28.6689 36.0511C25.6925 36.0511 23.1497 34.9966 21.0407 32.8876ZM52.1223 32.8876C50.0092 34.9966 47.4688 36.0511 44.501 36.0511C44.1531 36.0511 43.7104 36.0115 43.1729 35.9324C42.6349 35.8533 42.1921 35.7664 41.8448 35.6719C43.0606 34.2098 43.9951 32.588 44.6483 30.8064C45.3009 29.0247 45.6272 27.1747 45.6272 25.2564C45.6272 23.3375 45.2942 21.4944 44.6282 19.7272C43.9622 17.9604 43.0344 16.334 41.8448 14.8478C42.2872 14.6895 42.7299 14.5867 43.1729 14.5395C43.6154 14.4917 44.0581 14.4678 44.501 14.4678C47.4688 14.4678 50.0092 15.5223 52.1223 17.6313C54.2354 19.7403 55.2919 22.283 55.2919 25.2594C55.2919 28.2364 54.2354 30.7791 52.1223 32.8876ZM10.1689 54.9072H47.1689V52.6772C47.1689 52.0333 47.0078 51.4603 46.6856 50.9583C46.3639 50.4562 45.8531 50.0173 45.1532 49.6417C42.6156 48.3333 40.0027 47.342 37.3146 46.6678C34.6264 45.9941 31.7445 45.6572 28.6689 45.6572C25.5938 45.6572 22.7122 45.9941 20.024 46.6678C17.3359 47.342 14.723 48.3333 12.1854 49.6417C11.4855 50.0173 10.9744 50.4562 10.6522 50.9583C10.33 51.4603 10.1689 52.0333 10.1689 52.6772V54.9072ZM33.0241 29.6146C34.2318 28.407 34.8356 26.9553 34.8356 25.2594C34.8356 23.5636 34.2318 22.1119 33.0241 20.9042C31.8165 19.6966 30.3647 19.0928 28.6689 19.0928C26.9731 19.0928 25.5213 19.6966 24.3137 20.9042C23.1061 22.1119 22.5022 23.5636 22.5022 25.2594C22.5022 26.9553 23.1061 28.407 24.3137 29.6146C25.5213 30.8223 26.9731 31.4261 28.6689 31.4261C30.3647 31.4261 31.8165 30.8223 33.0241 29.6146Z" fill="#021B2E"/>
</svg>
