<svg width="74" height="74" viewBox="0 0 74 74" fill="none" xmlns="http://www.w3.org/2000/svg">
<path d="M16.3656 63.2083C14.8327 63.2083 13.5205 62.6626 12.429 61.5711C11.3375 60.4796 10.7917 59.1674 10.7917 57.6344V16.3656C10.7917 14.8326 11.3375 13.5204 12.429 12.4289C13.5205 11.3374 14.8327 10.7917 16.3656 10.7917H30.0865C30.2802 9.0799 31.0274 7.62431 32.3281 6.42489C33.6282 5.22496 35.1904 4.625 37.0147 4.625C38.839 4.625 40.4015 5.22496 41.7022 6.42489C43.0028 7.62431 43.74 9.0799 43.9137 10.7917H57.6345C59.1674 10.7917 60.4797 11.3374 61.5712 12.4289C62.6627 13.5204 63.2084 14.8326 63.2084 16.3656V57.6344C63.2084 59.1674 62.6627 60.4796 61.5712 61.5711C60.4797 62.6626 59.1674 63.2083 57.6345 63.2083H16.3656ZM16.3656 58.5833H57.6345C57.8719 58.5833 58.0893 58.4844 58.2866 58.2866C58.4845 58.0892 58.5834 57.8719 58.5834 57.6344V16.3656C58.5834 16.1281 58.4845 15.9108 58.2866 15.7134C58.0893 15.5156 57.8719 15.4167 57.6345 15.4167H16.3656C16.1282 15.4167 15.9109 15.5156 15.7135 15.7134C15.5157 15.9108 15.4167 16.1281 15.4167 16.3656V57.6344C15.4167 57.8719 15.5157 58.0892 15.7135 58.2866C15.9109 58.4844 16.1282 58.5833 16.3656 58.5833ZM24.6667 51.2897H40.0834C40.7386 51.2897 41.2877 51.068 41.7307 50.6245C42.1742 50.1815 42.3959 49.6322 42.3959 48.9764C42.3959 48.3212 42.1742 47.7721 41.7307 47.3292C41.2877 46.8867 40.7386 46.6655 40.0834 46.6655H24.6667C24.0115 46.6655 23.4625 46.887 23.0195 47.3299C22.576 47.7734 22.3542 48.323 22.3542 48.9788C22.3542 49.634 22.576 50.1831 23.0195 50.626C23.4625 51.0685 24.0115 51.2897 24.6667 51.2897ZM24.6667 39.3125H49.3334C49.9886 39.3125 50.5377 39.0908 50.9807 38.6473C51.4242 38.2038 51.6459 37.6544 51.6459 36.9992C51.6459 36.3435 51.4242 35.7944 50.9807 35.352C50.5377 34.909 49.9886 34.6875 49.3334 34.6875H24.6667C24.0115 34.6875 23.4625 34.9092 23.0195 35.3527C22.576 35.7962 22.3542 36.3456 22.3542 37.0008C22.3542 37.6565 22.576 38.2056 23.0195 38.648C23.4625 39.091 24.0115 39.3125 24.6667 39.3125ZM24.6667 27.3345H49.3334C49.9886 27.3345 50.5377 27.113 50.9807 26.6701C51.4242 26.2266 51.6459 25.677 51.6459 25.0212C51.6459 24.366 51.4242 23.8169 50.9807 23.374C50.5377 22.9315 49.9886 22.7103 49.3334 22.7103H24.6667C24.0115 22.7103 23.4625 22.932 23.0195 23.3755C22.576 23.8185 22.3542 24.3678 22.3542 25.0236C22.3542 25.6788 22.576 26.2279 23.0195 26.6708C23.4625 27.1133 24.0115 27.3345 24.6667 27.3345ZM38.6574 12.7457C39.0942 12.3089 39.3126 11.7565 39.3126 11.0884C39.3126 10.4204 39.0942 9.86795 38.6574 9.43114C38.2206 8.99434 37.6681 8.77594 37.0001 8.77594C36.332 8.77594 35.7796 8.99434 35.3428 9.43114C34.906 9.86795 34.6876 10.4204 34.6876 11.0884C34.6876 11.7565 34.906 12.3089 35.3428 12.7457C35.7796 13.1825 36.332 13.4009 37.0001 13.4009C37.6681 13.4009 38.2206 13.1825 38.6574 12.7457Z" fill="#021B2E"/>
</svg>
