<svg width="74" height="74" viewBox="0 0 74 74" fill="none" xmlns="http://www.w3.org/2000/svg">
<path d="M23.3741 37.6644C22.9316 38.1069 22.7104 38.6562 22.7104 39.3125V49.3333C22.7104 49.9895 22.9316 50.5389 23.3741 50.9813C23.817 51.4243 24.3666 51.6458 25.0229 51.6458C25.6786 51.6458 26.2279 51.4243 26.6709 50.9813C27.1134 50.5389 27.3346 49.9895 27.3346 49.3333V39.3125C27.3346 38.6562 27.1134 38.1069 26.6709 37.6644C26.2279 37.2214 25.6786 37 25.0229 37C24.3666 37 23.817 37.2214 23.3741 37.6644ZM47.3293 22.2478C46.8868 22.6902 46.6656 23.2396 46.6656 23.8958V49.3333C46.6656 49.9895 46.8868 50.5389 47.3293 50.9813C47.7722 51.4243 48.3216 51.6458 48.9773 51.6458C49.6335 51.6458 50.1831 51.4243 50.6261 50.9813C51.0686 50.5389 51.2898 49.9895 51.2898 49.3333V23.8958C51.2898 23.2396 51.0686 22.6902 50.6261 22.2478C50.1831 21.8048 49.6335 21.5833 48.9773 21.5833C48.3216 21.5833 47.7722 21.8048 47.3293 22.2478ZM35.352 43.8311C34.9091 44.2735 34.6876 44.8229 34.6876 45.4791V49.3333C34.6876 49.9895 34.9091 50.5389 35.352 50.9813C35.7945 51.4243 36.3438 51.6458 37.0001 51.6458C37.6563 51.6458 38.2057 51.4243 38.6481 50.9813C39.0911 50.5389 39.3126 49.9895 39.3126 49.3333V45.4791C39.3126 44.8229 39.0911 44.2735 38.6481 43.8311C38.2057 43.3881 37.6563 43.1666 37.0001 43.1666C36.3438 43.1666 35.7945 43.3881 35.352 43.8311ZM16.3656 63.2083C14.808 63.2083 13.4897 62.6687 12.4105 61.5895C11.3313 60.5104 10.7917 59.192 10.7917 57.6344V16.3655C10.7917 14.8079 11.3313 13.4895 12.4105 12.4104C13.4897 11.3312 14.808 10.7916 16.3656 10.7916H57.6345C59.1921 10.7916 60.5105 11.3312 61.5897 12.4104C62.6688 13.4895 63.2084 14.8079 63.2084 16.3655V57.6344C63.2084 59.192 62.6688 60.5104 61.5897 61.5895C60.5105 62.6687 59.1921 63.2083 57.6345 63.2083H16.3656ZM16.3656 58.5833H57.6345C57.8719 58.5833 58.0893 58.4844 58.2866 58.2865C58.4845 58.0892 58.5834 57.8718 58.5834 57.6344V16.3655C58.5834 16.1281 58.4845 15.9107 58.2866 15.7134C58.0893 15.5155 57.8719 15.4166 57.6345 15.4166H16.3656C16.1282 15.4166 15.9109 15.5155 15.7135 15.7134C15.5157 15.9107 15.4167 16.1281 15.4167 16.3655V57.6344C15.4167 57.8718 15.5157 58.0892 15.7135 58.2865C15.9109 58.4844 16.1282 58.5833 16.3656 58.5833ZM38.6481 35.5647C39.0911 35.1222 39.3126 34.5729 39.3126 33.9166C39.3126 33.2604 39.0911 32.711 38.6481 32.2686C38.2057 31.8256 37.6563 31.6041 37.0001 31.6041C36.3438 31.6041 35.7945 31.8256 35.352 32.2686C34.9091 32.711 34.6876 33.2604 34.6876 33.9166C34.6876 34.5729 34.9091 35.1222 35.352 35.5647C35.7945 36.0076 36.3438 36.2291 37.0001 36.2291C37.6563 36.2291 38.2057 36.0076 38.6481 35.5647Z" fill="#021B2E"/>
</svg>
