<svg width="74" height="74" viewBox="0 0 74 74" fill="none" xmlns="http://www.w3.org/2000/svg">
<path d="M61.6666 18.5H12.3333V54.5511C12.3333 54.8281 12.4222 55.0555 12.6 55.2333C12.7778 55.4111 13.0052 55.5 13.2821 55.5H38.5416C39.1978 55.5 39.7474 55.7215 40.1904 56.1645C40.6329 56.6069 40.8541 57.1563 40.8541 57.8125C40.8541 58.4687 40.6329 59.0181 40.1904 59.4605C39.7474 59.9035 39.1978 60.125 38.5416 60.125H13.2821C11.7246 60.125 10.4062 59.5854 9.327 58.5063C8.24784 57.4271 7.70825 56.1087 7.70825 54.5511V19.4489C7.70825 17.8913 8.24784 16.5729 9.327 15.4938C10.4062 14.4146 11.7246 13.875 13.2821 13.875H60.7177C62.2753 13.875 63.5937 14.4146 64.6728 15.4938C65.752 16.5729 66.2916 17.8913 66.2916 19.4489V38.5417C66.2916 39.1979 66.0701 39.7475 65.6271 40.1905C65.1847 40.6329 64.6353 40.8542 63.9791 40.8542C63.3229 40.8542 62.7735 40.6329 62.3311 40.1905C61.8881 39.7475 61.6666 39.1979 61.6666 38.5417V18.5ZM12.3333 18.5V55.5V40.8542V41.2334V18.5ZM36.9999 33.9167L61.6666 18.5V22.9469L38.4707 37.4802C37.9964 37.7685 37.5061 37.9127 36.9999 37.9127C36.4937 37.9127 36.0035 37.7685 35.5292 37.4802L12.3333 23.1844V18.5L36.9999 33.9167ZM60.3685 60.125H48.7405C48.0842 60.125 47.5346 59.9035 47.0917 59.4605C46.6492 59.0181 46.428 58.4687 46.428 57.8125C46.428 57.1563 46.6492 56.6069 47.0917 56.1645C47.5346 55.7215 48.0842 55.5 48.7405 55.5H60.3978L56.3186 51.4208C55.8596 50.9618 55.6333 50.4202 55.6394 49.7958C55.6451 49.1715 55.8871 48.6298 56.3656 48.1709C56.824 47.7444 57.3656 47.528 57.9905 47.5219C58.6149 47.5157 59.1562 47.7421 59.6146 48.201L67.2759 55.8615C67.5642 56.1503 67.7757 56.4548 67.9103 56.775C68.0445 57.0951 68.1115 57.441 68.1115 57.8125C68.1115 58.1645 68.0445 58.5055 67.9103 58.8354C67.7757 59.1653 67.5642 59.4747 67.2759 59.7635L59.5853 67.4541C59.1583 67.8806 58.6295 68.097 57.999 68.1031C57.3684 68.1088 56.824 67.8824 56.3656 67.424C55.9385 66.997 55.725 66.4654 55.725 65.8292C55.725 65.1925 55.9385 64.6608 56.3656 64.2343L60.3685 60.125Z" fill="#021B2E"/>
</svg>
