<svg width="245" height="181" viewBox="0 0 245 181" fill="none" xmlns="http://www.w3.org/2000/svg">
<path d="M241.116 86.2324C234.348 74.6217 204.351 54.526 199.294 37.4875C194.238 20.449 180.201 23.9257 171.031 35.3428C158.284 51.2135 143.777 74.5955 157.056 100.416C165.36 116.563 186.04 124.579 216.219 122.099C246.399 119.619 247.261 96.7734 241.116 86.2324Z" stroke="#16AB11"/>
<path d="M71.2723 170.522C69.3191 167.171 60.6627 161.372 59.2036 156.455C57.7444 151.539 53.6935 152.542 51.0473 155.837C47.3689 160.416 43.1825 167.164 47.0145 174.615C49.411 179.275 55.3786 181.588 64.0876 180.872C72.7966 180.156 73.0455 173.564 71.2723 170.522Z" fill="#FF732B"/>
<path d="M47.9312 60.086C54.0216 54.8113 66.624 52.7299 66.624 52.7299C91.4125 48.6466 96.9205 26.9053 70.6709 10.5602C37.859 -9.87112 14.7086 4.29824 5.0483 22.2351C0.779922 30.1605 -5.68888 56.9683 13.8634 70.4215C33.4157 83.8747 44.1094 63.396 47.9312 60.086Z" stroke="#FF732B"/>
</svg>
