<svg width="54" height="54" viewBox="0 0 54 54" fill="none" xmlns="http://www.w3.org/2000/svg">
<path d="M36.0084 43.875C35.4231 43.875 34.9363 43.68 34.5482 43.29C34.1604 42.9004 33.9666 42.4174 33.9666 41.841V31.5084C33.9666 30.9231 34.1614 30.4363 34.551 30.0482C34.9406 29.6604 35.4236 29.4666 36 29.4666H46.3326C46.9183 29.4666 47.4051 29.6614 47.7928 30.051C48.1809 30.4406 48.375 30.9236 48.375 31.5V41.8326C48.375 42.4183 48.18 42.9051 47.79 43.2928C47.4004 43.6809 46.9174 43.875 46.341 43.875H36.0084ZM27 24.5334C26.4236 24.5334 25.9406 24.3386 25.551 23.949C25.1614 23.5594 24.9666 23.0764 24.9666 22.5V12.1674C24.9666 11.5817 25.1614 11.0949 25.551 10.7072C25.9406 10.3191 26.4236 10.125 27 10.125H46.341C46.9174 10.125 47.4004 10.32 47.79 10.71C48.18 11.0996 48.375 11.5826 48.375 12.159V22.4916C48.375 23.0769 48.18 23.5637 47.79 23.9518C47.4004 24.3396 46.9174 24.5334 46.341 24.5334H27ZM7.659 43.875C7.08263 43.875 6.59963 43.68 6.21 43.29C5.82 42.9004 5.625 42.4174 5.625 41.841V31.5084C5.625 30.9231 5.82 30.4363 6.21 30.0482C6.59963 29.6604 7.08263 29.4666 7.659 29.4666H27C27.5764 29.4666 28.0594 29.6614 28.449 30.051C28.8386 30.4406 29.0334 30.9236 29.0334 31.5V41.8326C29.0334 42.4183 28.8386 42.9051 28.449 43.2928C28.0594 43.6809 27.5764 43.875 27 43.875H7.659ZM7.66744 24.5334C7.08169 24.5334 6.59494 24.3386 6.20719 23.949C5.81906 23.5594 5.625 23.0764 5.625 22.5V12.1674C5.625 11.5817 5.82 11.0949 6.21 10.7072C6.59963 10.3191 7.08263 10.125 7.659 10.125H17.9916C18.5769 10.125 19.0637 10.32 19.4518 10.71C19.8396 11.0996 20.0334 11.5826 20.0334 12.159V22.4916C20.0334 23.0769 19.8386 23.5637 19.449 23.9518C19.0594 24.3396 18.5764 24.5334 18 24.5334H7.66744ZM28.341 21.159H45V13.5H28.341V21.159ZM9 40.5H25.659V32.841H9V40.5ZM37.341 40.5H45V32.841H37.341V40.5ZM9 21.159H16.659V13.5H9V21.159Z" fill="#FF752D"/>
</svg>
