<svg width="54" height="54" viewBox="0 0 54 54" fill="none" xmlns="http://www.w3.org/2000/svg">
<path d="M24.5077 48.375C23.7404 48.375 23.0778 48.1204 22.5198 47.6111C21.9614 47.1022 21.6217 46.4756 21.5005 45.7313L20.951 41.5209C20.3484 41.3192 19.7304 41.0366 19.097 40.6732C18.464 40.3095 17.8979 39.9201 17.3988 39.5049L13.5001 41.1621C12.7932 41.4737 12.083 41.5039 11.3694 41.2526C10.6554 41.0018 10.1007 40.5461 9.70548 39.8857L7.16973 35.4893C6.77448 34.8289 6.66067 34.1301 6.8283 33.3928C6.99555 32.6559 7.37917 32.0481 7.97917 31.5692L11.3497 29.0379C11.2979 28.7034 11.2612 28.3674 11.2394 28.0299C11.2177 27.6924 11.2068 27.3562 11.2068 27.0214C11.2068 26.7015 11.2177 26.3764 11.2394 26.046C11.2612 25.7156 11.2979 25.3543 11.3497 24.9621L7.97917 22.4308C7.37917 21.9519 6.99911 21.3403 6.83898 20.5959C6.67886 19.8519 6.79642 19.1496 7.19167 18.4888L9.70548 14.1576C10.1007 13.5114 10.6554 13.0594 11.3694 12.8014C12.083 12.543 12.7932 12.5696 13.5001 12.8812L17.3769 14.517C17.9195 14.0873 18.4987 13.6942 19.1144 13.338C19.7302 12.9817 20.3352 12.6954 20.9296 12.4791L21.5005 8.26875C21.6217 7.52437 21.9614 6.89775 22.5198 6.38888C23.0778 5.87963 23.7404 5.625 24.5077 5.625H29.4925C30.2598 5.625 30.9224 5.87963 31.4804 6.38888C32.0388 6.89775 32.3785 7.52437 32.4997 8.26875L33.0492 12.5004C33.7242 12.7457 34.3349 13.032 34.8813 13.3594C35.428 13.6867 35.9799 14.0726 36.5367 14.517L40.522 12.8812C41.2285 12.5696 41.9388 12.543 42.6528 12.8014C43.3668 13.0594 43.9212 13.5114 44.3161 14.1576L46.8305 18.5108C47.2257 19.1711 47.3396 19.8699 47.1719 20.6072C47.0047 21.3441 46.6211 21.9519 46.021 22.4308L42.5639 25.0267C42.6446 25.3901 42.6886 25.7299 42.6961 26.046C42.7032 26.3617 42.7068 26.6797 42.7068 27C42.7068 27.3056 42.6995 27.6165 42.6849 27.9326C42.6706 28.2484 42.6189 28.6097 42.5296 29.0166L45.9215 31.5692C46.5215 32.0481 46.9089 32.6559 47.0836 33.3928C47.258 34.1301 47.1476 34.8289 46.7523 35.4893L44.2036 39.8638C43.8087 40.5246 43.2507 40.9804 42.5296 41.2313C41.8085 41.4821 41.0945 41.4517 40.3876 41.1401L36.5367 39.483C35.9799 39.9274 35.4115 40.3204 34.8318 40.662C34.252 41.004 33.6579 41.2832 33.0492 41.4996L32.4997 45.7313C32.3785 46.4756 32.0388 47.1022 31.4804 47.6111C30.9224 48.1204 30.2598 48.375 29.4925 48.375H24.5077ZM24.7501 45H29.1725L29.9814 38.9728C31.1296 38.6728 32.1789 38.2466 33.1291 37.6942C34.0797 37.1415 34.9964 36.4311 35.8792 35.5629L41.4693 37.9125L43.685 34.0875L38.8042 30.4099C38.9917 29.8271 39.1192 29.2558 39.1867 28.6959C39.2546 28.1364 39.2885 27.5711 39.2885 27C39.2885 26.4142 39.2546 25.8489 39.1867 25.3041C39.1192 24.7588 38.9917 24.2019 38.8042 23.6334L43.7277 19.9125L41.5126 16.0875L35.8572 18.4714C35.1042 17.6666 34.2022 16.9556 33.151 16.3384C32.0995 15.7211 31.0359 15.2841 29.96 15.0272L29.2501 9H24.785L24.0402 15.0058C22.8924 15.2769 21.8324 15.6922 20.8604 16.2517C19.888 16.8116 18.9605 17.5328 18.0777 18.4151L12.4876 16.0875L10.2725 19.9125L15.1314 23.5339C14.9439 24.0679 14.8126 24.6232 14.7376 25.2C14.6626 25.7767 14.6251 26.3839 14.6251 27.0214C14.6251 27.6071 14.6626 28.1812 14.7376 28.7437C14.8126 29.3062 14.9367 29.8616 15.11 30.4099L10.2725 34.0875L12.4876 37.9125L18.0564 35.55C18.9102 36.4267 19.8232 37.1451 20.7952 37.7049C21.7675 38.2644 22.8421 38.6942 24.0189 38.9942L24.7501 45ZM27.026 33.75C28.898 33.75 30.491 33.093 31.805 31.779C33.119 30.465 33.776 28.872 33.776 27C33.776 25.128 33.119 23.535 31.805 22.221C30.491 20.907 28.898 20.25 27.026 20.25C25.1307 20.25 23.5319 20.907 22.2295 22.221C20.9272 23.535 20.276 25.128 20.276 27C20.276 28.872 20.9272 30.465 22.2295 31.779C23.5319 33.093 25.1307 33.75 27.026 33.75Z" fill="#111827"/>
</svg>
