<svg width="2165" height="724" viewBox="0 0 2165 724" fill="none" xmlns="http://www.w3.org/2000/svg">
<g opacity="0.3">
<path d="M902.576 1.05382C902.576 61.1788 902.476 121.104 902.476 180.829C842.651 180.929 782.626 180.929 722.601 181.029C719.7 88.6902 799.933 -0.246714 902.576 1.05382Z" stroke="white" stroke-width="2"/>
<path d="M902.575 271.066C902.575 320.787 862.258 361.103 812.538 361.103C762.817 361.103 722.5 320.787 722.5 271.066C722.5 221.345 762.817 181.029 812.538 181.029C862.258 181.029 902.575 221.345 902.575 271.066Z" stroke="white" stroke-width="2"/>
<path d="M722.601 541.079L902.576 361.004L722.601 361.004L722.601 541.079Z" stroke="white" stroke-width="2"/>
<path d="M902.576 1.05537L1082.55 181.03L1082.55 1.05536L902.576 1.05537Z" stroke="white" stroke-width="2"/>
<path d="M722.701 721.053C756.115 721.053 778.624 721.353 812.138 720.953C845.052 720.653 870.862 706.447 888.67 678.835C911.279 644.021 905.777 596.901 876.265 567.589C858.657 550.082 837.348 541.178 812.438 541.078C778.724 540.978 756.115 541.078 722.401 541.078" stroke="white" stroke-width="2.00083"/>
<path d="M902.876 361.103C902.876 362.504 902.876 363.604 902.876 364.705C902.876 393.817 902.476 422.829 902.976 451.941C903.476 483.554 917.082 508.665 943.393 526.072C979.608 550.082 1026.13 544.88 1056.94 514.067C1090.05 480.953 1091.35 425.33 1059.64 390.916C1041.43 371.108 1018.72 361.103 991.813 361.103C963.401 361.103 934.99 361.103 906.578 361.103L902.876 361.103Z" stroke="white" stroke-width="2"/>
<path d="M1082.65 631.116C1082.65 680.837 1042.33 721.153 992.613 721.153C942.892 721.153 902.575 680.837 902.575 631.116C902.575 581.395 942.892 541.079 992.613 541.079C1042.33 541.079 1082.65 581.395 1082.65 631.116Z" stroke="white" stroke-width="2"/>
<path d="M1082.45 181.131C1049.04 181.131 1026.53 180.831 993.013 181.231C960.1 181.531 934.289 195.737 916.482 223.348C893.872 258.163 899.375 305.282 928.887 334.595C946.494 352.102 967.803 361.005 992.713 361.106C1026.43 361.206 1049.04 361.106 1082.75 361.106" stroke="white" stroke-width="2.00083"/>
<path d="M1442.7 91.0928C1442.7 140.813 1402.38 181.13 1352.66 181.13C1302.94 181.13 1262.63 140.813 1262.63 91.0928C1262.63 41.3721 1302.94 1.05537 1352.66 1.05537C1402.38 1.05536 1442.7 41.3721 1442.7 91.0928Z" stroke="white" stroke-width="2"/>
<path d="M1262.63 271.066C1262.63 320.787 1222.31 361.103 1172.59 361.103C1122.87 361.103 1082.55 320.787 1082.55 271.066C1082.55 221.345 1122.87 181.029 1172.59 181.029C1222.31 181.029 1262.63 221.345 1262.63 271.066Z" stroke="white" stroke-width="2"/>
<path d="M1442.7 721.154C1382.57 721.154 1322.65 721.054 1262.92 721.054C1262.82 661.229 1262.82 601.204 1262.72 541.18C1355.06 538.178 1444 618.512 1442.7 721.154Z" stroke="white" stroke-width="2"/>
<path d="M1082.65 721.153L1262.62 541.079L1082.65 541.079L1082.65 721.153Z" stroke="white" stroke-width="2"/>
<path d="M1262.83 541.08C1296.24 541.08 1318.75 541.38 1352.26 540.98C1385.18 540.679 1410.99 526.474 1428.79 498.862C1451.4 464.048 1445.9 416.928 1416.39 387.616C1398.78 370.109 1377.47 361.205 1352.56 361.105C1318.85 361.005 1296.24 361.105 1262.53 361.105" stroke="white" stroke-width="2.00083"/>
<path d="M1262.43 181.03C1262.43 179.629 1262.43 178.529 1262.43 177.428C1262.43 148.316 1262.83 119.304 1262.33 90.1921C1261.82 58.579 1248.22 33.4685 1221.91 16.0613C1185.69 -7.94868 1139.17 -2.74651 1108.36 28.0663C1075.25 61.18 1073.95 116.803 1105.66 151.217C1123.87 171.026 1146.58 181.03 1173.49 181.03C1201.9 181.03 1230.31 181.03 1258.72 181.03L1262.43 181.03Z" stroke="white" stroke-width="2"/>
<path d="M1262.73 361.005C1262.73 300.88 1262.83 240.955 1262.83 181.231C1322.65 181.131 1382.68 181.131 1442.7 181.031C1445.6 273.369 1365.37 362.306 1262.73 361.005Z" stroke="white" stroke-width="2"/>
<path d="M1082.85 541.079C1116.26 541.079 1138.77 541.379 1172.29 540.979C1205.2 540.679 1231.01 526.473 1248.82 498.862C1271.43 464.047 1265.93 416.928 1236.41 387.616C1218.81 370.108 1197.5 361.205 1172.59 361.105C1138.87 361.005 1116.26 361.105 1082.55 361.105" stroke="white" stroke-width="2.00083"/>
</g>
<g opacity="0.3">
<path d="M1623.88 1.05382C1623.88 61.1788 1623.78 121.104 1623.78 180.829C1563.95 180.929 1503.93 180.929 1443.9 181.029C1441 88.6902 1521.23 -0.246714 1623.88 1.05382Z" stroke="white" stroke-width="2"/>
<path d="M1623.87 271.066C1623.87 320.787 1583.56 361.103 1533.84 361.103C1484.12 361.103 1443.8 320.787 1443.8 271.066C1443.8 221.345 1484.12 181.029 1533.84 181.029C1583.56 181.029 1623.87 221.345 1623.87 271.066Z" stroke="white" stroke-width="2"/>
<path d="M1443.9 541.079L1623.88 361.004L1443.9 361.004L1443.9 541.079Z" stroke="white" stroke-width="2"/>
<path d="M1444 721.053C1477.41 721.053 1499.92 721.353 1533.44 720.953C1566.35 720.653 1592.16 706.447 1609.97 678.835C1632.58 644.021 1627.08 596.901 1597.56 567.589C1579.96 550.082 1558.65 541.178 1533.74 541.078C1500.02 540.978 1477.41 541.078 1443.7 541.078" stroke="white" stroke-width="2.00083"/>
</g>
<g opacity="0.3">
<path d="M181.076 1.05382C181.076 61.1788 180.976 121.104 180.976 180.829C121.151 180.929 61.126 180.929 1.10111 181.029C-1.8001 88.6902 78.4332 -0.246714 181.076 1.05382Z" stroke="white" stroke-width="2"/>
<path d="M181.075 271.066C181.075 320.787 140.758 361.103 91.0378 361.103C41.3172 361.103 1.00042 320.787 1.00042 271.066C1.00042 221.345 41.3172 181.029 91.0378 181.029C140.758 181.029 181.075 221.345 181.075 271.066Z" stroke="white" stroke-width="2"/>
<path d="M1.10105 541.079L181.076 361.004L1.10104 361.004L1.10105 541.079Z" stroke="white" stroke-width="2"/>
<path d="M181.075 1.05537L361.05 181.03L361.05 1.05536L181.075 1.05537Z" stroke="white" stroke-width="2"/>
<path d="M1.2009 721.053C34.6148 721.053 57.1241 721.353 90.638 720.953C123.552 720.653 149.362 706.447 167.17 678.835C189.779 644.021 184.277 596.901 154.765 567.589C137.157 550.082 115.849 541.178 90.9382 541.078C57.2242 540.978 34.6148 541.078 0.900765 541.078" stroke="white" stroke-width="2.00083"/>
<path d="M181.376 361.103C181.376 362.504 181.376 363.604 181.376 364.705C181.376 393.817 180.976 422.829 181.476 451.941C181.976 483.554 195.582 508.665 221.893 526.072C258.108 550.082 304.627 544.88 335.44 514.067C368.554 480.953 369.855 425.33 338.141 390.916C319.934 371.108 297.224 361.103 270.313 361.103C241.901 361.103 213.49 361.103 185.078 361.103L181.376 361.103Z" stroke="white" stroke-width="2"/>
<path d="M361.15 631.116C361.15 680.837 320.833 721.153 271.113 721.153C221.392 721.153 181.075 680.837 181.075 631.116C181.075 581.395 221.392 541.079 271.113 541.079C320.833 541.079 361.15 581.395 361.15 631.116Z" stroke="white" stroke-width="2"/>
<path d="M360.951 181.131C327.537 181.131 305.027 180.831 271.514 181.231C238.6 181.531 212.789 195.737 194.982 223.348C172.372 258.163 177.875 305.282 207.387 334.595C224.994 352.102 246.303 361.005 271.213 361.106C304.927 361.206 327.537 361.106 361.251 361.106" stroke="white" stroke-width="2.00083"/>
<path d="M721.2 91.0928C721.2 140.813 680.883 181.13 631.163 181.13C581.442 181.13 541.125 140.813 541.125 91.0928C541.125 41.3721 581.442 1.05537 631.163 1.05537C680.883 1.05536 721.2 41.3721 721.2 91.0928Z" stroke="white" stroke-width="2"/>
<path d="M541.125 271.066C541.125 320.787 500.808 361.103 451.088 361.103C401.367 361.103 361.05 320.787 361.05 271.066C361.05 221.345 401.367 181.029 451.088 181.029C500.808 181.029 541.125 221.345 541.125 271.066Z" stroke="white" stroke-width="2"/>
<path d="M721.2 721.154C661.075 721.154 601.15 721.054 541.425 721.054C541.325 661.229 541.325 601.204 541.225 541.18C633.563 538.178 722.5 618.512 721.2 721.154Z" stroke="white" stroke-width="2"/>
<path d="M361.15 721.153L541.125 541.079L361.15 541.079L361.15 721.153Z" stroke="white" stroke-width="2"/>
<path d="M541.326 541.08C574.74 541.08 597.249 541.38 630.763 540.98C663.677 540.679 689.487 526.474 707.295 498.862C729.904 464.048 724.402 416.928 694.889 387.616C677.282 370.109 655.973 361.205 631.063 361.105C597.349 361.005 574.74 361.105 541.026 361.105" stroke="white" stroke-width="2.00083"/>
<path d="M540.925 181.03C540.925 179.629 540.925 178.529 540.925 177.428C540.925 148.316 541.325 119.304 540.825 90.1921C540.325 58.579 526.719 33.4685 500.408 16.0613C464.193 -7.94868 417.674 -2.74651 386.861 28.0663C353.747 61.18 352.447 116.803 384.16 151.217C402.368 171.026 425.077 181.03 451.988 181.03C480.4 181.03 508.812 181.03 537.224 181.03L540.925 181.03Z" stroke="white" stroke-width="2"/>
<path d="M541.225 361.005C541.225 300.88 541.325 240.955 541.325 181.231C601.15 181.131 661.175 181.131 721.2 181.031C724.101 273.369 643.867 362.306 541.225 361.005Z" stroke="white" stroke-width="2"/>
<path d="M361.351 541.079C394.764 541.079 417.274 541.379 450.788 540.979C483.701 540.679 509.512 526.473 527.319 498.862C549.929 464.047 544.427 416.928 514.914 387.616C497.307 370.108 475.998 361.205 451.088 361.105C417.374 361.005 394.764 361.105 361.05 361.105" stroke="white" stroke-width="2.00083"/>
</g>
</svg>
