<svg width="27" height="27" viewBox="0 0 27 27" fill="none" xmlns="http://www.w3.org/2000/svg">
<path d="M13.5 27C20.9558 27 27 20.9558 27 13.5C27 6.04416 20.9558 0 13.5 0C6.04416 0 0 6.04416 0 13.5C0 20.9558 6.04416 27 13.5 27Z" fill="#6BAAC7"/>
<path d="M8.71228 6.00781C7.69315 6.00781 7.02454 6.67655 7.02454 7.55602C7.02454 8.41621 7.67057 9.09035 8.67043 9.09035H8.6843C9.72331 9.09035 10.372 8.41621 10.372 7.55602C10.3528 6.67643 9.73153 6.00781 8.71228 6.00781ZM17.4997 10.1225C15.9131 10.1225 15.2165 10.99 14.8216 11.601V11.6288H14.7938C14.7987 11.6212 14.8167 11.6087 14.8216 11.601V10.3317H11.8367C11.8758 11.1725 11.8367 19.2865 11.8367 19.2865H14.8216V14.2791C14.8216 14.0113 14.8404 13.7453 14.9193 13.5538C15.1346 13.0187 15.6169 12.4658 16.4397 12.4658C17.5175 12.4658 17.96 13.2838 17.96 14.4884V19.2865H20.931V14.1536C20.931 11.4013 19.4591 10.1225 17.4997 10.1225ZM7.20593 10.3317V19.2865H10.1909V10.3317H7.20593Z" fill="white"/>
</svg>
