<svg width="27" height="27" viewBox="0 0 27 27" fill="none" xmlns="http://www.w3.org/2000/svg">
<path d="M13.5 27C20.9558 27 27 20.9558 27 13.5C27 6.04416 20.9558 0 13.5 0C6.04416 0 0 6.04416 0 13.5C0 20.9558 6.04416 27 13.5 27Z" fill="#6BAAC7"/>
<path d="M16.1959 6.75H10.8287C8.64736 6.75 6.87274 8.52461 6.87274 10.7059V16.0732C6.87274 18.2545 8.64736 20.0291 10.8287 20.0291H16.1959C18.3772 20.0291 20.1518 18.2545 20.1518 16.0732V10.7059C20.1518 8.52461 18.3772 6.75 16.1959 6.75ZM18.816 16.0732C18.816 17.5202 17.6429 18.6932 16.1959 18.6932H10.8287C9.38166 18.6932 8.20862 17.5202 8.20862 16.0732V10.7059C8.20862 9.25889 9.38166 8.08588 10.8287 8.08588H16.1959C17.6429 8.08588 18.816 9.25889 18.816 10.7059V16.0732Z" fill="white"/>
<path d="M13.5123 9.9551C11.6185 9.9551 10.0778 11.4958 10.0778 13.3895C10.0778 15.2833 11.6185 16.824 13.5123 16.824C15.406 16.824 16.9467 15.2833 16.9467 13.3895C16.9467 11.4958 15.406 9.9551 13.5123 9.9551ZM13.5123 15.4881C12.3533 15.4881 11.4137 14.5486 11.4137 13.3895C11.4137 12.2305 12.3533 11.291 13.5123 11.291C14.6713 11.291 15.6109 12.2305 15.6109 13.3895C15.6109 14.5485 14.6713 15.4881 13.5123 15.4881Z" fill="white"/>
<path d="M16.9534 10.8038C17.4079 10.8038 17.7763 10.4354 17.7763 9.98089C17.7763 9.52638 17.4079 9.15792 16.9534 9.15792C16.4989 9.15792 16.1304 9.52638 16.1304 9.98089C16.1304 10.4354 16.4989 10.8038 16.9534 10.8038Z" fill="white"/>
</svg>
